%TF.GenerationSoftware,KiCad,Pcbnew,(5.1.5-0-10_14)*%
%TF.CreationDate,2020-02-24T01:19:29+01:00*%
%TF.ProjectId,raspberrypi_zerow_uhat,72617370-6265-4727-9279-70695f7a6572,1.0*%
%TF.SameCoordinates,Original*%
%TF.FileFunction,Soldermask,Bot*%
%TF.FilePolarity,Negative*%
%FSLAX46Y46*%
G04 Gerber Fmt 4.6, Leading zero omitted, Abs format (unit mm)*
G04 Created by KiCad (PCBNEW (5.1.5-0-10_14)) date 2020-02-24 01:19:29*
%MOMM*%
%LPD*%
G04 APERTURE LIST*
%ADD10C,0.150000*%
G04 APERTURE END LIST*
D10*
X160092000Y-96468000D02*
X160092000Y-120468000D01*
X157092000Y-123468000D02*
X98092000Y-123468000D01*
X156592000Y-93468000D02*
X157092000Y-93468000D01*
X98592000Y-93468000D02*
X98092000Y-93468000D01*
X95092000Y-120468000D02*
X95092000Y-96468000D01*
X160092000Y-120468000D02*
G75*
G02X157092000Y-123468000I-3000000J0D01*
G01*
X157092000Y-93468000D02*
G75*
G02X160092000Y-96468000I0J-3000000D01*
G01*
X95092000Y-96468000D02*
G75*
G02X98092000Y-93468000I3000000J0D01*
G01*
X98092000Y-123468000D02*
G75*
G02X95092000Y-120468000I0J3000000D01*
G01*
X156592000Y-93468000D02*
X98592000Y-93468000D01*
G36*
X151835512Y-120341927D02*
G01*
X151984812Y-120371624D01*
X152148784Y-120439544D01*
X152296354Y-120538147D01*
X152421853Y-120663646D01*
X152520456Y-120811216D01*
X152588376Y-120975188D01*
X152623000Y-121149259D01*
X152623000Y-121326741D01*
X152588376Y-121500812D01*
X152520456Y-121664784D01*
X152421853Y-121812354D01*
X152296354Y-121937853D01*
X152148784Y-122036456D01*
X151984812Y-122104376D01*
X151835512Y-122134073D01*
X151810742Y-122139000D01*
X151633258Y-122139000D01*
X151608488Y-122134073D01*
X151459188Y-122104376D01*
X151295216Y-122036456D01*
X151147646Y-121937853D01*
X151022147Y-121812354D01*
X150923544Y-121664784D01*
X150855624Y-121500812D01*
X150821000Y-121326741D01*
X150821000Y-121149259D01*
X150855624Y-120975188D01*
X150923544Y-120811216D01*
X151022147Y-120663646D01*
X151147646Y-120538147D01*
X151295216Y-120439544D01*
X151459188Y-120371624D01*
X151608488Y-120341927D01*
X151633258Y-120337000D01*
X151810742Y-120337000D01*
X151835512Y-120341927D01*
G37*
G36*
X149295512Y-120341927D02*
G01*
X149444812Y-120371624D01*
X149608784Y-120439544D01*
X149756354Y-120538147D01*
X149881853Y-120663646D01*
X149980456Y-120811216D01*
X150048376Y-120975188D01*
X150083000Y-121149259D01*
X150083000Y-121326741D01*
X150048376Y-121500812D01*
X149980456Y-121664784D01*
X149881853Y-121812354D01*
X149756354Y-121937853D01*
X149608784Y-122036456D01*
X149444812Y-122104376D01*
X149295512Y-122134073D01*
X149270742Y-122139000D01*
X149093258Y-122139000D01*
X149068488Y-122134073D01*
X148919188Y-122104376D01*
X148755216Y-122036456D01*
X148607646Y-121937853D01*
X148482147Y-121812354D01*
X148383544Y-121664784D01*
X148315624Y-121500812D01*
X148281000Y-121326741D01*
X148281000Y-121149259D01*
X148315624Y-120975188D01*
X148383544Y-120811216D01*
X148482147Y-120663646D01*
X148607646Y-120538147D01*
X148755216Y-120439544D01*
X148919188Y-120371624D01*
X149068488Y-120341927D01*
X149093258Y-120337000D01*
X149270742Y-120337000D01*
X149295512Y-120341927D01*
G37*
G36*
X146755512Y-120341927D02*
G01*
X146904812Y-120371624D01*
X147068784Y-120439544D01*
X147216354Y-120538147D01*
X147341853Y-120663646D01*
X147440456Y-120811216D01*
X147508376Y-120975188D01*
X147543000Y-121149259D01*
X147543000Y-121326741D01*
X147508376Y-121500812D01*
X147440456Y-121664784D01*
X147341853Y-121812354D01*
X147216354Y-121937853D01*
X147068784Y-122036456D01*
X146904812Y-122104376D01*
X146755512Y-122134073D01*
X146730742Y-122139000D01*
X146553258Y-122139000D01*
X146528488Y-122134073D01*
X146379188Y-122104376D01*
X146215216Y-122036456D01*
X146067646Y-121937853D01*
X145942147Y-121812354D01*
X145843544Y-121664784D01*
X145775624Y-121500812D01*
X145741000Y-121326741D01*
X145741000Y-121149259D01*
X145775624Y-120975188D01*
X145843544Y-120811216D01*
X145942147Y-120663646D01*
X146067646Y-120538147D01*
X146215216Y-120439544D01*
X146379188Y-120371624D01*
X146528488Y-120341927D01*
X146553258Y-120337000D01*
X146730742Y-120337000D01*
X146755512Y-120341927D01*
G37*
G36*
X144215512Y-120341927D02*
G01*
X144364812Y-120371624D01*
X144528784Y-120439544D01*
X144676354Y-120538147D01*
X144801853Y-120663646D01*
X144900456Y-120811216D01*
X144968376Y-120975188D01*
X145003000Y-121149259D01*
X145003000Y-121326741D01*
X144968376Y-121500812D01*
X144900456Y-121664784D01*
X144801853Y-121812354D01*
X144676354Y-121937853D01*
X144528784Y-122036456D01*
X144364812Y-122104376D01*
X144215512Y-122134073D01*
X144190742Y-122139000D01*
X144013258Y-122139000D01*
X143988488Y-122134073D01*
X143839188Y-122104376D01*
X143675216Y-122036456D01*
X143527646Y-121937853D01*
X143402147Y-121812354D01*
X143303544Y-121664784D01*
X143235624Y-121500812D01*
X143201000Y-121326741D01*
X143201000Y-121149259D01*
X143235624Y-120975188D01*
X143303544Y-120811216D01*
X143402147Y-120663646D01*
X143527646Y-120538147D01*
X143675216Y-120439544D01*
X143839188Y-120371624D01*
X143988488Y-120341927D01*
X144013258Y-120337000D01*
X144190742Y-120337000D01*
X144215512Y-120341927D01*
G37*
G36*
X141675512Y-120341927D02*
G01*
X141824812Y-120371624D01*
X141988784Y-120439544D01*
X142136354Y-120538147D01*
X142261853Y-120663646D01*
X142360456Y-120811216D01*
X142428376Y-120975188D01*
X142463000Y-121149259D01*
X142463000Y-121326741D01*
X142428376Y-121500812D01*
X142360456Y-121664784D01*
X142261853Y-121812354D01*
X142136354Y-121937853D01*
X141988784Y-122036456D01*
X141824812Y-122104376D01*
X141675512Y-122134073D01*
X141650742Y-122139000D01*
X141473258Y-122139000D01*
X141448488Y-122134073D01*
X141299188Y-122104376D01*
X141135216Y-122036456D01*
X140987646Y-121937853D01*
X140862147Y-121812354D01*
X140763544Y-121664784D01*
X140695624Y-121500812D01*
X140661000Y-121326741D01*
X140661000Y-121149259D01*
X140695624Y-120975188D01*
X140763544Y-120811216D01*
X140862147Y-120663646D01*
X140987646Y-120538147D01*
X141135216Y-120439544D01*
X141299188Y-120371624D01*
X141448488Y-120341927D01*
X141473258Y-120337000D01*
X141650742Y-120337000D01*
X141675512Y-120341927D01*
G37*
G36*
X139135512Y-120341927D02*
G01*
X139284812Y-120371624D01*
X139448784Y-120439544D01*
X139596354Y-120538147D01*
X139721853Y-120663646D01*
X139820456Y-120811216D01*
X139888376Y-120975188D01*
X139923000Y-121149259D01*
X139923000Y-121326741D01*
X139888376Y-121500812D01*
X139820456Y-121664784D01*
X139721853Y-121812354D01*
X139596354Y-121937853D01*
X139448784Y-122036456D01*
X139284812Y-122104376D01*
X139135512Y-122134073D01*
X139110742Y-122139000D01*
X138933258Y-122139000D01*
X138908488Y-122134073D01*
X138759188Y-122104376D01*
X138595216Y-122036456D01*
X138447646Y-121937853D01*
X138322147Y-121812354D01*
X138223544Y-121664784D01*
X138155624Y-121500812D01*
X138121000Y-121326741D01*
X138121000Y-121149259D01*
X138155624Y-120975188D01*
X138223544Y-120811216D01*
X138322147Y-120663646D01*
X138447646Y-120538147D01*
X138595216Y-120439544D01*
X138759188Y-120371624D01*
X138908488Y-120341927D01*
X138933258Y-120337000D01*
X139110742Y-120337000D01*
X139135512Y-120341927D01*
G37*
G36*
X136595512Y-120341927D02*
G01*
X136744812Y-120371624D01*
X136908784Y-120439544D01*
X137056354Y-120538147D01*
X137181853Y-120663646D01*
X137280456Y-120811216D01*
X137348376Y-120975188D01*
X137383000Y-121149259D01*
X137383000Y-121326741D01*
X137348376Y-121500812D01*
X137280456Y-121664784D01*
X137181853Y-121812354D01*
X137056354Y-121937853D01*
X136908784Y-122036456D01*
X136744812Y-122104376D01*
X136595512Y-122134073D01*
X136570742Y-122139000D01*
X136393258Y-122139000D01*
X136368488Y-122134073D01*
X136219188Y-122104376D01*
X136055216Y-122036456D01*
X135907646Y-121937853D01*
X135782147Y-121812354D01*
X135683544Y-121664784D01*
X135615624Y-121500812D01*
X135581000Y-121326741D01*
X135581000Y-121149259D01*
X135615624Y-120975188D01*
X135683544Y-120811216D01*
X135782147Y-120663646D01*
X135907646Y-120538147D01*
X136055216Y-120439544D01*
X136219188Y-120371624D01*
X136368488Y-120341927D01*
X136393258Y-120337000D01*
X136570742Y-120337000D01*
X136595512Y-120341927D01*
G37*
G36*
X134055512Y-120341927D02*
G01*
X134204812Y-120371624D01*
X134368784Y-120439544D01*
X134516354Y-120538147D01*
X134641853Y-120663646D01*
X134740456Y-120811216D01*
X134808376Y-120975188D01*
X134843000Y-121149259D01*
X134843000Y-121326741D01*
X134808376Y-121500812D01*
X134740456Y-121664784D01*
X134641853Y-121812354D01*
X134516354Y-121937853D01*
X134368784Y-122036456D01*
X134204812Y-122104376D01*
X134055512Y-122134073D01*
X134030742Y-122139000D01*
X133853258Y-122139000D01*
X133828488Y-122134073D01*
X133679188Y-122104376D01*
X133515216Y-122036456D01*
X133367646Y-121937853D01*
X133242147Y-121812354D01*
X133143544Y-121664784D01*
X133075624Y-121500812D01*
X133041000Y-121326741D01*
X133041000Y-121149259D01*
X133075624Y-120975188D01*
X133143544Y-120811216D01*
X133242147Y-120663646D01*
X133367646Y-120538147D01*
X133515216Y-120439544D01*
X133679188Y-120371624D01*
X133828488Y-120341927D01*
X133853258Y-120337000D01*
X134030742Y-120337000D01*
X134055512Y-120341927D01*
G37*
G36*
X131515512Y-120341927D02*
G01*
X131664812Y-120371624D01*
X131828784Y-120439544D01*
X131976354Y-120538147D01*
X132101853Y-120663646D01*
X132200456Y-120811216D01*
X132268376Y-120975188D01*
X132303000Y-121149259D01*
X132303000Y-121326741D01*
X132268376Y-121500812D01*
X132200456Y-121664784D01*
X132101853Y-121812354D01*
X131976354Y-121937853D01*
X131828784Y-122036456D01*
X131664812Y-122104376D01*
X131515512Y-122134073D01*
X131490742Y-122139000D01*
X131313258Y-122139000D01*
X131288488Y-122134073D01*
X131139188Y-122104376D01*
X130975216Y-122036456D01*
X130827646Y-121937853D01*
X130702147Y-121812354D01*
X130603544Y-121664784D01*
X130535624Y-121500812D01*
X130501000Y-121326741D01*
X130501000Y-121149259D01*
X130535624Y-120975188D01*
X130603544Y-120811216D01*
X130702147Y-120663646D01*
X130827646Y-120538147D01*
X130975216Y-120439544D01*
X131139188Y-120371624D01*
X131288488Y-120341927D01*
X131313258Y-120337000D01*
X131490742Y-120337000D01*
X131515512Y-120341927D01*
G37*
G36*
X128975512Y-120341927D02*
G01*
X129124812Y-120371624D01*
X129288784Y-120439544D01*
X129436354Y-120538147D01*
X129561853Y-120663646D01*
X129660456Y-120811216D01*
X129728376Y-120975188D01*
X129763000Y-121149259D01*
X129763000Y-121326741D01*
X129728376Y-121500812D01*
X129660456Y-121664784D01*
X129561853Y-121812354D01*
X129436354Y-121937853D01*
X129288784Y-122036456D01*
X129124812Y-122104376D01*
X128975512Y-122134073D01*
X128950742Y-122139000D01*
X128773258Y-122139000D01*
X128748488Y-122134073D01*
X128599188Y-122104376D01*
X128435216Y-122036456D01*
X128287646Y-121937853D01*
X128162147Y-121812354D01*
X128063544Y-121664784D01*
X127995624Y-121500812D01*
X127961000Y-121326741D01*
X127961000Y-121149259D01*
X127995624Y-120975188D01*
X128063544Y-120811216D01*
X128162147Y-120663646D01*
X128287646Y-120538147D01*
X128435216Y-120439544D01*
X128599188Y-120371624D01*
X128748488Y-120341927D01*
X128773258Y-120337000D01*
X128950742Y-120337000D01*
X128975512Y-120341927D01*
G37*
G36*
X126435512Y-120341927D02*
G01*
X126584812Y-120371624D01*
X126748784Y-120439544D01*
X126896354Y-120538147D01*
X127021853Y-120663646D01*
X127120456Y-120811216D01*
X127188376Y-120975188D01*
X127223000Y-121149259D01*
X127223000Y-121326741D01*
X127188376Y-121500812D01*
X127120456Y-121664784D01*
X127021853Y-121812354D01*
X126896354Y-121937853D01*
X126748784Y-122036456D01*
X126584812Y-122104376D01*
X126435512Y-122134073D01*
X126410742Y-122139000D01*
X126233258Y-122139000D01*
X126208488Y-122134073D01*
X126059188Y-122104376D01*
X125895216Y-122036456D01*
X125747646Y-121937853D01*
X125622147Y-121812354D01*
X125523544Y-121664784D01*
X125455624Y-121500812D01*
X125421000Y-121326741D01*
X125421000Y-121149259D01*
X125455624Y-120975188D01*
X125523544Y-120811216D01*
X125622147Y-120663646D01*
X125747646Y-120538147D01*
X125895216Y-120439544D01*
X126059188Y-120371624D01*
X126208488Y-120341927D01*
X126233258Y-120337000D01*
X126410742Y-120337000D01*
X126435512Y-120341927D01*
G37*
G36*
X123895512Y-120341927D02*
G01*
X124044812Y-120371624D01*
X124208784Y-120439544D01*
X124356354Y-120538147D01*
X124481853Y-120663646D01*
X124580456Y-120811216D01*
X124648376Y-120975188D01*
X124683000Y-121149259D01*
X124683000Y-121326741D01*
X124648376Y-121500812D01*
X124580456Y-121664784D01*
X124481853Y-121812354D01*
X124356354Y-121937853D01*
X124208784Y-122036456D01*
X124044812Y-122104376D01*
X123895512Y-122134073D01*
X123870742Y-122139000D01*
X123693258Y-122139000D01*
X123668488Y-122134073D01*
X123519188Y-122104376D01*
X123355216Y-122036456D01*
X123207646Y-121937853D01*
X123082147Y-121812354D01*
X122983544Y-121664784D01*
X122915624Y-121500812D01*
X122881000Y-121326741D01*
X122881000Y-121149259D01*
X122915624Y-120975188D01*
X122983544Y-120811216D01*
X123082147Y-120663646D01*
X123207646Y-120538147D01*
X123355216Y-120439544D01*
X123519188Y-120371624D01*
X123668488Y-120341927D01*
X123693258Y-120337000D01*
X123870742Y-120337000D01*
X123895512Y-120341927D01*
G37*
G36*
X121355512Y-120341927D02*
G01*
X121504812Y-120371624D01*
X121668784Y-120439544D01*
X121816354Y-120538147D01*
X121941853Y-120663646D01*
X122040456Y-120811216D01*
X122108376Y-120975188D01*
X122143000Y-121149259D01*
X122143000Y-121326741D01*
X122108376Y-121500812D01*
X122040456Y-121664784D01*
X121941853Y-121812354D01*
X121816354Y-121937853D01*
X121668784Y-122036456D01*
X121504812Y-122104376D01*
X121355512Y-122134073D01*
X121330742Y-122139000D01*
X121153258Y-122139000D01*
X121128488Y-122134073D01*
X120979188Y-122104376D01*
X120815216Y-122036456D01*
X120667646Y-121937853D01*
X120542147Y-121812354D01*
X120443544Y-121664784D01*
X120375624Y-121500812D01*
X120341000Y-121326741D01*
X120341000Y-121149259D01*
X120375624Y-120975188D01*
X120443544Y-120811216D01*
X120542147Y-120663646D01*
X120667646Y-120538147D01*
X120815216Y-120439544D01*
X120979188Y-120371624D01*
X121128488Y-120341927D01*
X121153258Y-120337000D01*
X121330742Y-120337000D01*
X121355512Y-120341927D01*
G37*
G36*
X118815512Y-120341927D02*
G01*
X118964812Y-120371624D01*
X119128784Y-120439544D01*
X119276354Y-120538147D01*
X119401853Y-120663646D01*
X119500456Y-120811216D01*
X119568376Y-120975188D01*
X119603000Y-121149259D01*
X119603000Y-121326741D01*
X119568376Y-121500812D01*
X119500456Y-121664784D01*
X119401853Y-121812354D01*
X119276354Y-121937853D01*
X119128784Y-122036456D01*
X118964812Y-122104376D01*
X118815512Y-122134073D01*
X118790742Y-122139000D01*
X118613258Y-122139000D01*
X118588488Y-122134073D01*
X118439188Y-122104376D01*
X118275216Y-122036456D01*
X118127646Y-121937853D01*
X118002147Y-121812354D01*
X117903544Y-121664784D01*
X117835624Y-121500812D01*
X117801000Y-121326741D01*
X117801000Y-121149259D01*
X117835624Y-120975188D01*
X117903544Y-120811216D01*
X118002147Y-120663646D01*
X118127646Y-120538147D01*
X118275216Y-120439544D01*
X118439188Y-120371624D01*
X118588488Y-120341927D01*
X118613258Y-120337000D01*
X118790742Y-120337000D01*
X118815512Y-120341927D01*
G37*
G36*
X116275512Y-120341927D02*
G01*
X116424812Y-120371624D01*
X116588784Y-120439544D01*
X116736354Y-120538147D01*
X116861853Y-120663646D01*
X116960456Y-120811216D01*
X117028376Y-120975188D01*
X117063000Y-121149259D01*
X117063000Y-121326741D01*
X117028376Y-121500812D01*
X116960456Y-121664784D01*
X116861853Y-121812354D01*
X116736354Y-121937853D01*
X116588784Y-122036456D01*
X116424812Y-122104376D01*
X116275512Y-122134073D01*
X116250742Y-122139000D01*
X116073258Y-122139000D01*
X116048488Y-122134073D01*
X115899188Y-122104376D01*
X115735216Y-122036456D01*
X115587646Y-121937853D01*
X115462147Y-121812354D01*
X115363544Y-121664784D01*
X115295624Y-121500812D01*
X115261000Y-121326741D01*
X115261000Y-121149259D01*
X115295624Y-120975188D01*
X115363544Y-120811216D01*
X115462147Y-120663646D01*
X115587646Y-120538147D01*
X115735216Y-120439544D01*
X115899188Y-120371624D01*
X116048488Y-120341927D01*
X116073258Y-120337000D01*
X116250742Y-120337000D01*
X116275512Y-120341927D01*
G37*
G36*
X113735512Y-120341927D02*
G01*
X113884812Y-120371624D01*
X114048784Y-120439544D01*
X114196354Y-120538147D01*
X114321853Y-120663646D01*
X114420456Y-120811216D01*
X114488376Y-120975188D01*
X114523000Y-121149259D01*
X114523000Y-121326741D01*
X114488376Y-121500812D01*
X114420456Y-121664784D01*
X114321853Y-121812354D01*
X114196354Y-121937853D01*
X114048784Y-122036456D01*
X113884812Y-122104376D01*
X113735512Y-122134073D01*
X113710742Y-122139000D01*
X113533258Y-122139000D01*
X113508488Y-122134073D01*
X113359188Y-122104376D01*
X113195216Y-122036456D01*
X113047646Y-121937853D01*
X112922147Y-121812354D01*
X112823544Y-121664784D01*
X112755624Y-121500812D01*
X112721000Y-121326741D01*
X112721000Y-121149259D01*
X112755624Y-120975188D01*
X112823544Y-120811216D01*
X112922147Y-120663646D01*
X113047646Y-120538147D01*
X113195216Y-120439544D01*
X113359188Y-120371624D01*
X113508488Y-120341927D01*
X113533258Y-120337000D01*
X113710742Y-120337000D01*
X113735512Y-120341927D01*
G37*
G36*
X111195512Y-120341927D02*
G01*
X111344812Y-120371624D01*
X111508784Y-120439544D01*
X111656354Y-120538147D01*
X111781853Y-120663646D01*
X111880456Y-120811216D01*
X111948376Y-120975188D01*
X111983000Y-121149259D01*
X111983000Y-121326741D01*
X111948376Y-121500812D01*
X111880456Y-121664784D01*
X111781853Y-121812354D01*
X111656354Y-121937853D01*
X111508784Y-122036456D01*
X111344812Y-122104376D01*
X111195512Y-122134073D01*
X111170742Y-122139000D01*
X110993258Y-122139000D01*
X110968488Y-122134073D01*
X110819188Y-122104376D01*
X110655216Y-122036456D01*
X110507646Y-121937853D01*
X110382147Y-121812354D01*
X110283544Y-121664784D01*
X110215624Y-121500812D01*
X110181000Y-121326741D01*
X110181000Y-121149259D01*
X110215624Y-120975188D01*
X110283544Y-120811216D01*
X110382147Y-120663646D01*
X110507646Y-120538147D01*
X110655216Y-120439544D01*
X110819188Y-120371624D01*
X110968488Y-120341927D01*
X110993258Y-120337000D01*
X111170742Y-120337000D01*
X111195512Y-120341927D01*
G37*
G36*
X108655512Y-120341927D02*
G01*
X108804812Y-120371624D01*
X108968784Y-120439544D01*
X109116354Y-120538147D01*
X109241853Y-120663646D01*
X109340456Y-120811216D01*
X109408376Y-120975188D01*
X109443000Y-121149259D01*
X109443000Y-121326741D01*
X109408376Y-121500812D01*
X109340456Y-121664784D01*
X109241853Y-121812354D01*
X109116354Y-121937853D01*
X108968784Y-122036456D01*
X108804812Y-122104376D01*
X108655512Y-122134073D01*
X108630742Y-122139000D01*
X108453258Y-122139000D01*
X108428488Y-122134073D01*
X108279188Y-122104376D01*
X108115216Y-122036456D01*
X107967646Y-121937853D01*
X107842147Y-121812354D01*
X107743544Y-121664784D01*
X107675624Y-121500812D01*
X107641000Y-121326741D01*
X107641000Y-121149259D01*
X107675624Y-120975188D01*
X107743544Y-120811216D01*
X107842147Y-120663646D01*
X107967646Y-120538147D01*
X108115216Y-120439544D01*
X108279188Y-120371624D01*
X108428488Y-120341927D01*
X108453258Y-120337000D01*
X108630742Y-120337000D01*
X108655512Y-120341927D01*
G37*
G36*
X106115512Y-120341927D02*
G01*
X106264812Y-120371624D01*
X106428784Y-120439544D01*
X106576354Y-120538147D01*
X106701853Y-120663646D01*
X106800456Y-120811216D01*
X106868376Y-120975188D01*
X106903000Y-121149259D01*
X106903000Y-121326741D01*
X106868376Y-121500812D01*
X106800456Y-121664784D01*
X106701853Y-121812354D01*
X106576354Y-121937853D01*
X106428784Y-122036456D01*
X106264812Y-122104376D01*
X106115512Y-122134073D01*
X106090742Y-122139000D01*
X105913258Y-122139000D01*
X105888488Y-122134073D01*
X105739188Y-122104376D01*
X105575216Y-122036456D01*
X105427646Y-121937853D01*
X105302147Y-121812354D01*
X105203544Y-121664784D01*
X105135624Y-121500812D01*
X105101000Y-121326741D01*
X105101000Y-121149259D01*
X105135624Y-120975188D01*
X105203544Y-120811216D01*
X105302147Y-120663646D01*
X105427646Y-120538147D01*
X105575216Y-120439544D01*
X105739188Y-120371624D01*
X105888488Y-120341927D01*
X105913258Y-120337000D01*
X106090742Y-120337000D01*
X106115512Y-120341927D01*
G37*
G36*
X103575512Y-120341927D02*
G01*
X103724812Y-120371624D01*
X103888784Y-120439544D01*
X104036354Y-120538147D01*
X104161853Y-120663646D01*
X104260456Y-120811216D01*
X104328376Y-120975188D01*
X104363000Y-121149259D01*
X104363000Y-121326741D01*
X104328376Y-121500812D01*
X104260456Y-121664784D01*
X104161853Y-121812354D01*
X104036354Y-121937853D01*
X103888784Y-122036456D01*
X103724812Y-122104376D01*
X103575512Y-122134073D01*
X103550742Y-122139000D01*
X103373258Y-122139000D01*
X103348488Y-122134073D01*
X103199188Y-122104376D01*
X103035216Y-122036456D01*
X102887646Y-121937853D01*
X102762147Y-121812354D01*
X102663544Y-121664784D01*
X102595624Y-121500812D01*
X102561000Y-121326741D01*
X102561000Y-121149259D01*
X102595624Y-120975188D01*
X102663544Y-120811216D01*
X102762147Y-120663646D01*
X102887646Y-120538147D01*
X103035216Y-120439544D01*
X103199188Y-120371624D01*
X103348488Y-120341927D01*
X103373258Y-120337000D01*
X103550742Y-120337000D01*
X103575512Y-120341927D01*
G37*
G36*
X98910433Y-118602893D02*
G01*
X99000657Y-118620839D01*
X99106267Y-118664585D01*
X99255621Y-118726449D01*
X99255622Y-118726450D01*
X99485086Y-118879772D01*
X99680228Y-119074914D01*
X99782675Y-119228237D01*
X99833551Y-119304379D01*
X99939161Y-119559344D01*
X99993000Y-119830012D01*
X99993000Y-120105988D01*
X99939161Y-120376656D01*
X99833551Y-120631621D01*
X99812152Y-120663647D01*
X99680228Y-120861086D01*
X99485086Y-121056228D01*
X99345856Y-121149258D01*
X99255621Y-121209551D01*
X99106267Y-121271415D01*
X99000657Y-121315161D01*
X98910433Y-121333107D01*
X98729988Y-121369000D01*
X98454012Y-121369000D01*
X98273567Y-121333107D01*
X98183343Y-121315161D01*
X98077733Y-121271415D01*
X97928379Y-121209551D01*
X97838144Y-121149258D01*
X97698914Y-121056228D01*
X97503772Y-120861086D01*
X97371848Y-120663647D01*
X97350449Y-120631621D01*
X97244839Y-120376656D01*
X97191000Y-120105988D01*
X97191000Y-119830012D01*
X97244839Y-119559344D01*
X97350449Y-119304379D01*
X97401325Y-119228237D01*
X97503772Y-119074914D01*
X97698914Y-118879772D01*
X97928378Y-118726450D01*
X97928379Y-118726449D01*
X98077733Y-118664585D01*
X98183343Y-118620839D01*
X98273567Y-118602893D01*
X98454012Y-118567000D01*
X98729988Y-118567000D01*
X98910433Y-118602893D01*
G37*
G36*
X156910433Y-118602893D02*
G01*
X157000657Y-118620839D01*
X157106267Y-118664585D01*
X157255621Y-118726449D01*
X157255622Y-118726450D01*
X157485086Y-118879772D01*
X157680228Y-119074914D01*
X157782675Y-119228237D01*
X157833551Y-119304379D01*
X157939161Y-119559344D01*
X157993000Y-119830012D01*
X157993000Y-120105988D01*
X157939161Y-120376656D01*
X157833551Y-120631621D01*
X157812152Y-120663647D01*
X157680228Y-120861086D01*
X157485086Y-121056228D01*
X157345856Y-121149258D01*
X157255621Y-121209551D01*
X157106267Y-121271415D01*
X157000657Y-121315161D01*
X156910433Y-121333107D01*
X156729988Y-121369000D01*
X156454012Y-121369000D01*
X156273567Y-121333107D01*
X156183343Y-121315161D01*
X156077733Y-121271415D01*
X155928379Y-121209551D01*
X155838144Y-121149258D01*
X155698914Y-121056228D01*
X155503772Y-120861086D01*
X155371848Y-120663647D01*
X155350449Y-120631621D01*
X155244839Y-120376656D01*
X155191000Y-120105988D01*
X155191000Y-119830012D01*
X155244839Y-119559344D01*
X155350449Y-119304379D01*
X155401325Y-119228237D01*
X155503772Y-119074914D01*
X155698914Y-118879772D01*
X155928378Y-118726450D01*
X155928379Y-118726449D01*
X156077733Y-118664585D01*
X156183343Y-118620839D01*
X156273567Y-118602893D01*
X156454012Y-118567000D01*
X156729988Y-118567000D01*
X156910433Y-118602893D01*
G37*
G36*
X106115512Y-117801927D02*
G01*
X106264812Y-117831624D01*
X106428784Y-117899544D01*
X106576354Y-117998147D01*
X106701853Y-118123646D01*
X106800456Y-118271216D01*
X106868376Y-118435188D01*
X106903000Y-118609259D01*
X106903000Y-118786741D01*
X106868376Y-118960812D01*
X106800456Y-119124784D01*
X106701853Y-119272354D01*
X106576354Y-119397853D01*
X106428784Y-119496456D01*
X106264812Y-119564376D01*
X106115512Y-119594073D01*
X106090742Y-119599000D01*
X105913258Y-119599000D01*
X105888488Y-119594073D01*
X105739188Y-119564376D01*
X105575216Y-119496456D01*
X105427646Y-119397853D01*
X105302147Y-119272354D01*
X105203544Y-119124784D01*
X105135624Y-118960812D01*
X105101000Y-118786741D01*
X105101000Y-118609259D01*
X105135624Y-118435188D01*
X105203544Y-118271216D01*
X105302147Y-118123646D01*
X105427646Y-117998147D01*
X105575216Y-117899544D01*
X105739188Y-117831624D01*
X105888488Y-117801927D01*
X105913258Y-117797000D01*
X106090742Y-117797000D01*
X106115512Y-117801927D01*
G37*
G36*
X118815512Y-117801927D02*
G01*
X118964812Y-117831624D01*
X119128784Y-117899544D01*
X119276354Y-117998147D01*
X119401853Y-118123646D01*
X119500456Y-118271216D01*
X119568376Y-118435188D01*
X119603000Y-118609259D01*
X119603000Y-118786741D01*
X119568376Y-118960812D01*
X119500456Y-119124784D01*
X119401853Y-119272354D01*
X119276354Y-119397853D01*
X119128784Y-119496456D01*
X118964812Y-119564376D01*
X118815512Y-119594073D01*
X118790742Y-119599000D01*
X118613258Y-119599000D01*
X118588488Y-119594073D01*
X118439188Y-119564376D01*
X118275216Y-119496456D01*
X118127646Y-119397853D01*
X118002147Y-119272354D01*
X117903544Y-119124784D01*
X117835624Y-118960812D01*
X117801000Y-118786741D01*
X117801000Y-118609259D01*
X117835624Y-118435188D01*
X117903544Y-118271216D01*
X118002147Y-118123646D01*
X118127646Y-117998147D01*
X118275216Y-117899544D01*
X118439188Y-117831624D01*
X118588488Y-117801927D01*
X118613258Y-117797000D01*
X118790742Y-117797000D01*
X118815512Y-117801927D01*
G37*
G36*
X146755512Y-117801927D02*
G01*
X146904812Y-117831624D01*
X147068784Y-117899544D01*
X147216354Y-117998147D01*
X147341853Y-118123646D01*
X147440456Y-118271216D01*
X147508376Y-118435188D01*
X147543000Y-118609259D01*
X147543000Y-118786741D01*
X147508376Y-118960812D01*
X147440456Y-119124784D01*
X147341853Y-119272354D01*
X147216354Y-119397853D01*
X147068784Y-119496456D01*
X146904812Y-119564376D01*
X146755512Y-119594073D01*
X146730742Y-119599000D01*
X146553258Y-119599000D01*
X146528488Y-119594073D01*
X146379188Y-119564376D01*
X146215216Y-119496456D01*
X146067646Y-119397853D01*
X145942147Y-119272354D01*
X145843544Y-119124784D01*
X145775624Y-118960812D01*
X145741000Y-118786741D01*
X145741000Y-118609259D01*
X145775624Y-118435188D01*
X145843544Y-118271216D01*
X145942147Y-118123646D01*
X146067646Y-117998147D01*
X146215216Y-117899544D01*
X146379188Y-117831624D01*
X146528488Y-117801927D01*
X146553258Y-117797000D01*
X146730742Y-117797000D01*
X146755512Y-117801927D01*
G37*
G36*
X103575512Y-117801927D02*
G01*
X103724812Y-117831624D01*
X103888784Y-117899544D01*
X104036354Y-117998147D01*
X104161853Y-118123646D01*
X104260456Y-118271216D01*
X104328376Y-118435188D01*
X104363000Y-118609259D01*
X104363000Y-118786741D01*
X104328376Y-118960812D01*
X104260456Y-119124784D01*
X104161853Y-119272354D01*
X104036354Y-119397853D01*
X103888784Y-119496456D01*
X103724812Y-119564376D01*
X103575512Y-119594073D01*
X103550742Y-119599000D01*
X103373258Y-119599000D01*
X103348488Y-119594073D01*
X103199188Y-119564376D01*
X103035216Y-119496456D01*
X102887646Y-119397853D01*
X102762147Y-119272354D01*
X102663544Y-119124784D01*
X102595624Y-118960812D01*
X102561000Y-118786741D01*
X102561000Y-118609259D01*
X102595624Y-118435188D01*
X102663544Y-118271216D01*
X102762147Y-118123646D01*
X102887646Y-117998147D01*
X103035216Y-117899544D01*
X103199188Y-117831624D01*
X103348488Y-117801927D01*
X103373258Y-117797000D01*
X103550742Y-117797000D01*
X103575512Y-117801927D01*
G37*
G36*
X149295512Y-117801927D02*
G01*
X149444812Y-117831624D01*
X149608784Y-117899544D01*
X149756354Y-117998147D01*
X149881853Y-118123646D01*
X149980456Y-118271216D01*
X150048376Y-118435188D01*
X150083000Y-118609259D01*
X150083000Y-118786741D01*
X150048376Y-118960812D01*
X149980456Y-119124784D01*
X149881853Y-119272354D01*
X149756354Y-119397853D01*
X149608784Y-119496456D01*
X149444812Y-119564376D01*
X149295512Y-119594073D01*
X149270742Y-119599000D01*
X149093258Y-119599000D01*
X149068488Y-119594073D01*
X148919188Y-119564376D01*
X148755216Y-119496456D01*
X148607646Y-119397853D01*
X148482147Y-119272354D01*
X148383544Y-119124784D01*
X148315624Y-118960812D01*
X148281000Y-118786741D01*
X148281000Y-118609259D01*
X148315624Y-118435188D01*
X148383544Y-118271216D01*
X148482147Y-118123646D01*
X148607646Y-117998147D01*
X148755216Y-117899544D01*
X148919188Y-117831624D01*
X149068488Y-117801927D01*
X149093258Y-117797000D01*
X149270742Y-117797000D01*
X149295512Y-117801927D01*
G37*
G36*
X152623000Y-119599000D02*
G01*
X150821000Y-119599000D01*
X150821000Y-117797000D01*
X152623000Y-117797000D01*
X152623000Y-119599000D01*
G37*
G36*
X144215512Y-117801927D02*
G01*
X144364812Y-117831624D01*
X144528784Y-117899544D01*
X144676354Y-117998147D01*
X144801853Y-118123646D01*
X144900456Y-118271216D01*
X144968376Y-118435188D01*
X145003000Y-118609259D01*
X145003000Y-118786741D01*
X144968376Y-118960812D01*
X144900456Y-119124784D01*
X144801853Y-119272354D01*
X144676354Y-119397853D01*
X144528784Y-119496456D01*
X144364812Y-119564376D01*
X144215512Y-119594073D01*
X144190742Y-119599000D01*
X144013258Y-119599000D01*
X143988488Y-119594073D01*
X143839188Y-119564376D01*
X143675216Y-119496456D01*
X143527646Y-119397853D01*
X143402147Y-119272354D01*
X143303544Y-119124784D01*
X143235624Y-118960812D01*
X143201000Y-118786741D01*
X143201000Y-118609259D01*
X143235624Y-118435188D01*
X143303544Y-118271216D01*
X143402147Y-118123646D01*
X143527646Y-117998147D01*
X143675216Y-117899544D01*
X143839188Y-117831624D01*
X143988488Y-117801927D01*
X144013258Y-117797000D01*
X144190742Y-117797000D01*
X144215512Y-117801927D01*
G37*
G36*
X141675512Y-117801927D02*
G01*
X141824812Y-117831624D01*
X141988784Y-117899544D01*
X142136354Y-117998147D01*
X142261853Y-118123646D01*
X142360456Y-118271216D01*
X142428376Y-118435188D01*
X142463000Y-118609259D01*
X142463000Y-118786741D01*
X142428376Y-118960812D01*
X142360456Y-119124784D01*
X142261853Y-119272354D01*
X142136354Y-119397853D01*
X141988784Y-119496456D01*
X141824812Y-119564376D01*
X141675512Y-119594073D01*
X141650742Y-119599000D01*
X141473258Y-119599000D01*
X141448488Y-119594073D01*
X141299188Y-119564376D01*
X141135216Y-119496456D01*
X140987646Y-119397853D01*
X140862147Y-119272354D01*
X140763544Y-119124784D01*
X140695624Y-118960812D01*
X140661000Y-118786741D01*
X140661000Y-118609259D01*
X140695624Y-118435188D01*
X140763544Y-118271216D01*
X140862147Y-118123646D01*
X140987646Y-117998147D01*
X141135216Y-117899544D01*
X141299188Y-117831624D01*
X141448488Y-117801927D01*
X141473258Y-117797000D01*
X141650742Y-117797000D01*
X141675512Y-117801927D01*
G37*
G36*
X139135512Y-117801927D02*
G01*
X139284812Y-117831624D01*
X139448784Y-117899544D01*
X139596354Y-117998147D01*
X139721853Y-118123646D01*
X139820456Y-118271216D01*
X139888376Y-118435188D01*
X139923000Y-118609259D01*
X139923000Y-118786741D01*
X139888376Y-118960812D01*
X139820456Y-119124784D01*
X139721853Y-119272354D01*
X139596354Y-119397853D01*
X139448784Y-119496456D01*
X139284812Y-119564376D01*
X139135512Y-119594073D01*
X139110742Y-119599000D01*
X138933258Y-119599000D01*
X138908488Y-119594073D01*
X138759188Y-119564376D01*
X138595216Y-119496456D01*
X138447646Y-119397853D01*
X138322147Y-119272354D01*
X138223544Y-119124784D01*
X138155624Y-118960812D01*
X138121000Y-118786741D01*
X138121000Y-118609259D01*
X138155624Y-118435188D01*
X138223544Y-118271216D01*
X138322147Y-118123646D01*
X138447646Y-117998147D01*
X138595216Y-117899544D01*
X138759188Y-117831624D01*
X138908488Y-117801927D01*
X138933258Y-117797000D01*
X139110742Y-117797000D01*
X139135512Y-117801927D01*
G37*
G36*
X136595512Y-117801927D02*
G01*
X136744812Y-117831624D01*
X136908784Y-117899544D01*
X137056354Y-117998147D01*
X137181853Y-118123646D01*
X137280456Y-118271216D01*
X137348376Y-118435188D01*
X137383000Y-118609259D01*
X137383000Y-118786741D01*
X137348376Y-118960812D01*
X137280456Y-119124784D01*
X137181853Y-119272354D01*
X137056354Y-119397853D01*
X136908784Y-119496456D01*
X136744812Y-119564376D01*
X136595512Y-119594073D01*
X136570742Y-119599000D01*
X136393258Y-119599000D01*
X136368488Y-119594073D01*
X136219188Y-119564376D01*
X136055216Y-119496456D01*
X135907646Y-119397853D01*
X135782147Y-119272354D01*
X135683544Y-119124784D01*
X135615624Y-118960812D01*
X135581000Y-118786741D01*
X135581000Y-118609259D01*
X135615624Y-118435188D01*
X135683544Y-118271216D01*
X135782147Y-118123646D01*
X135907646Y-117998147D01*
X136055216Y-117899544D01*
X136219188Y-117831624D01*
X136368488Y-117801927D01*
X136393258Y-117797000D01*
X136570742Y-117797000D01*
X136595512Y-117801927D01*
G37*
G36*
X134055512Y-117801927D02*
G01*
X134204812Y-117831624D01*
X134368784Y-117899544D01*
X134516354Y-117998147D01*
X134641853Y-118123646D01*
X134740456Y-118271216D01*
X134808376Y-118435188D01*
X134843000Y-118609259D01*
X134843000Y-118786741D01*
X134808376Y-118960812D01*
X134740456Y-119124784D01*
X134641853Y-119272354D01*
X134516354Y-119397853D01*
X134368784Y-119496456D01*
X134204812Y-119564376D01*
X134055512Y-119594073D01*
X134030742Y-119599000D01*
X133853258Y-119599000D01*
X133828488Y-119594073D01*
X133679188Y-119564376D01*
X133515216Y-119496456D01*
X133367646Y-119397853D01*
X133242147Y-119272354D01*
X133143544Y-119124784D01*
X133075624Y-118960812D01*
X133041000Y-118786741D01*
X133041000Y-118609259D01*
X133075624Y-118435188D01*
X133143544Y-118271216D01*
X133242147Y-118123646D01*
X133367646Y-117998147D01*
X133515216Y-117899544D01*
X133679188Y-117831624D01*
X133828488Y-117801927D01*
X133853258Y-117797000D01*
X134030742Y-117797000D01*
X134055512Y-117801927D01*
G37*
G36*
X131515512Y-117801927D02*
G01*
X131664812Y-117831624D01*
X131828784Y-117899544D01*
X131976354Y-117998147D01*
X132101853Y-118123646D01*
X132200456Y-118271216D01*
X132268376Y-118435188D01*
X132303000Y-118609259D01*
X132303000Y-118786741D01*
X132268376Y-118960812D01*
X132200456Y-119124784D01*
X132101853Y-119272354D01*
X131976354Y-119397853D01*
X131828784Y-119496456D01*
X131664812Y-119564376D01*
X131515512Y-119594073D01*
X131490742Y-119599000D01*
X131313258Y-119599000D01*
X131288488Y-119594073D01*
X131139188Y-119564376D01*
X130975216Y-119496456D01*
X130827646Y-119397853D01*
X130702147Y-119272354D01*
X130603544Y-119124784D01*
X130535624Y-118960812D01*
X130501000Y-118786741D01*
X130501000Y-118609259D01*
X130535624Y-118435188D01*
X130603544Y-118271216D01*
X130702147Y-118123646D01*
X130827646Y-117998147D01*
X130975216Y-117899544D01*
X131139188Y-117831624D01*
X131288488Y-117801927D01*
X131313258Y-117797000D01*
X131490742Y-117797000D01*
X131515512Y-117801927D01*
G37*
G36*
X128975512Y-117801927D02*
G01*
X129124812Y-117831624D01*
X129288784Y-117899544D01*
X129436354Y-117998147D01*
X129561853Y-118123646D01*
X129660456Y-118271216D01*
X129728376Y-118435188D01*
X129763000Y-118609259D01*
X129763000Y-118786741D01*
X129728376Y-118960812D01*
X129660456Y-119124784D01*
X129561853Y-119272354D01*
X129436354Y-119397853D01*
X129288784Y-119496456D01*
X129124812Y-119564376D01*
X128975512Y-119594073D01*
X128950742Y-119599000D01*
X128773258Y-119599000D01*
X128748488Y-119594073D01*
X128599188Y-119564376D01*
X128435216Y-119496456D01*
X128287646Y-119397853D01*
X128162147Y-119272354D01*
X128063544Y-119124784D01*
X127995624Y-118960812D01*
X127961000Y-118786741D01*
X127961000Y-118609259D01*
X127995624Y-118435188D01*
X128063544Y-118271216D01*
X128162147Y-118123646D01*
X128287646Y-117998147D01*
X128435216Y-117899544D01*
X128599188Y-117831624D01*
X128748488Y-117801927D01*
X128773258Y-117797000D01*
X128950742Y-117797000D01*
X128975512Y-117801927D01*
G37*
G36*
X126435512Y-117801927D02*
G01*
X126584812Y-117831624D01*
X126748784Y-117899544D01*
X126896354Y-117998147D01*
X127021853Y-118123646D01*
X127120456Y-118271216D01*
X127188376Y-118435188D01*
X127223000Y-118609259D01*
X127223000Y-118786741D01*
X127188376Y-118960812D01*
X127120456Y-119124784D01*
X127021853Y-119272354D01*
X126896354Y-119397853D01*
X126748784Y-119496456D01*
X126584812Y-119564376D01*
X126435512Y-119594073D01*
X126410742Y-119599000D01*
X126233258Y-119599000D01*
X126208488Y-119594073D01*
X126059188Y-119564376D01*
X125895216Y-119496456D01*
X125747646Y-119397853D01*
X125622147Y-119272354D01*
X125523544Y-119124784D01*
X125455624Y-118960812D01*
X125421000Y-118786741D01*
X125421000Y-118609259D01*
X125455624Y-118435188D01*
X125523544Y-118271216D01*
X125622147Y-118123646D01*
X125747646Y-117998147D01*
X125895216Y-117899544D01*
X126059188Y-117831624D01*
X126208488Y-117801927D01*
X126233258Y-117797000D01*
X126410742Y-117797000D01*
X126435512Y-117801927D01*
G37*
G36*
X123895512Y-117801927D02*
G01*
X124044812Y-117831624D01*
X124208784Y-117899544D01*
X124356354Y-117998147D01*
X124481853Y-118123646D01*
X124580456Y-118271216D01*
X124648376Y-118435188D01*
X124683000Y-118609259D01*
X124683000Y-118786741D01*
X124648376Y-118960812D01*
X124580456Y-119124784D01*
X124481853Y-119272354D01*
X124356354Y-119397853D01*
X124208784Y-119496456D01*
X124044812Y-119564376D01*
X123895512Y-119594073D01*
X123870742Y-119599000D01*
X123693258Y-119599000D01*
X123668488Y-119594073D01*
X123519188Y-119564376D01*
X123355216Y-119496456D01*
X123207646Y-119397853D01*
X123082147Y-119272354D01*
X122983544Y-119124784D01*
X122915624Y-118960812D01*
X122881000Y-118786741D01*
X122881000Y-118609259D01*
X122915624Y-118435188D01*
X122983544Y-118271216D01*
X123082147Y-118123646D01*
X123207646Y-117998147D01*
X123355216Y-117899544D01*
X123519188Y-117831624D01*
X123668488Y-117801927D01*
X123693258Y-117797000D01*
X123870742Y-117797000D01*
X123895512Y-117801927D01*
G37*
G36*
X121355512Y-117801927D02*
G01*
X121504812Y-117831624D01*
X121668784Y-117899544D01*
X121816354Y-117998147D01*
X121941853Y-118123646D01*
X122040456Y-118271216D01*
X122108376Y-118435188D01*
X122143000Y-118609259D01*
X122143000Y-118786741D01*
X122108376Y-118960812D01*
X122040456Y-119124784D01*
X121941853Y-119272354D01*
X121816354Y-119397853D01*
X121668784Y-119496456D01*
X121504812Y-119564376D01*
X121355512Y-119594073D01*
X121330742Y-119599000D01*
X121153258Y-119599000D01*
X121128488Y-119594073D01*
X120979188Y-119564376D01*
X120815216Y-119496456D01*
X120667646Y-119397853D01*
X120542147Y-119272354D01*
X120443544Y-119124784D01*
X120375624Y-118960812D01*
X120341000Y-118786741D01*
X120341000Y-118609259D01*
X120375624Y-118435188D01*
X120443544Y-118271216D01*
X120542147Y-118123646D01*
X120667646Y-117998147D01*
X120815216Y-117899544D01*
X120979188Y-117831624D01*
X121128488Y-117801927D01*
X121153258Y-117797000D01*
X121330742Y-117797000D01*
X121355512Y-117801927D01*
G37*
G36*
X108655512Y-117801927D02*
G01*
X108804812Y-117831624D01*
X108968784Y-117899544D01*
X109116354Y-117998147D01*
X109241853Y-118123646D01*
X109340456Y-118271216D01*
X109408376Y-118435188D01*
X109443000Y-118609259D01*
X109443000Y-118786741D01*
X109408376Y-118960812D01*
X109340456Y-119124784D01*
X109241853Y-119272354D01*
X109116354Y-119397853D01*
X108968784Y-119496456D01*
X108804812Y-119564376D01*
X108655512Y-119594073D01*
X108630742Y-119599000D01*
X108453258Y-119599000D01*
X108428488Y-119594073D01*
X108279188Y-119564376D01*
X108115216Y-119496456D01*
X107967646Y-119397853D01*
X107842147Y-119272354D01*
X107743544Y-119124784D01*
X107675624Y-118960812D01*
X107641000Y-118786741D01*
X107641000Y-118609259D01*
X107675624Y-118435188D01*
X107743544Y-118271216D01*
X107842147Y-118123646D01*
X107967646Y-117998147D01*
X108115216Y-117899544D01*
X108279188Y-117831624D01*
X108428488Y-117801927D01*
X108453258Y-117797000D01*
X108630742Y-117797000D01*
X108655512Y-117801927D01*
G37*
G36*
X116275512Y-117801927D02*
G01*
X116424812Y-117831624D01*
X116588784Y-117899544D01*
X116736354Y-117998147D01*
X116861853Y-118123646D01*
X116960456Y-118271216D01*
X117028376Y-118435188D01*
X117063000Y-118609259D01*
X117063000Y-118786741D01*
X117028376Y-118960812D01*
X116960456Y-119124784D01*
X116861853Y-119272354D01*
X116736354Y-119397853D01*
X116588784Y-119496456D01*
X116424812Y-119564376D01*
X116275512Y-119594073D01*
X116250742Y-119599000D01*
X116073258Y-119599000D01*
X116048488Y-119594073D01*
X115899188Y-119564376D01*
X115735216Y-119496456D01*
X115587646Y-119397853D01*
X115462147Y-119272354D01*
X115363544Y-119124784D01*
X115295624Y-118960812D01*
X115261000Y-118786741D01*
X115261000Y-118609259D01*
X115295624Y-118435188D01*
X115363544Y-118271216D01*
X115462147Y-118123646D01*
X115587646Y-117998147D01*
X115735216Y-117899544D01*
X115899188Y-117831624D01*
X116048488Y-117801927D01*
X116073258Y-117797000D01*
X116250742Y-117797000D01*
X116275512Y-117801927D01*
G37*
G36*
X113735512Y-117801927D02*
G01*
X113884812Y-117831624D01*
X114048784Y-117899544D01*
X114196354Y-117998147D01*
X114321853Y-118123646D01*
X114420456Y-118271216D01*
X114488376Y-118435188D01*
X114523000Y-118609259D01*
X114523000Y-118786741D01*
X114488376Y-118960812D01*
X114420456Y-119124784D01*
X114321853Y-119272354D01*
X114196354Y-119397853D01*
X114048784Y-119496456D01*
X113884812Y-119564376D01*
X113735512Y-119594073D01*
X113710742Y-119599000D01*
X113533258Y-119599000D01*
X113508488Y-119594073D01*
X113359188Y-119564376D01*
X113195216Y-119496456D01*
X113047646Y-119397853D01*
X112922147Y-119272354D01*
X112823544Y-119124784D01*
X112755624Y-118960812D01*
X112721000Y-118786741D01*
X112721000Y-118609259D01*
X112755624Y-118435188D01*
X112823544Y-118271216D01*
X112922147Y-118123646D01*
X113047646Y-117998147D01*
X113195216Y-117899544D01*
X113359188Y-117831624D01*
X113508488Y-117801927D01*
X113533258Y-117797000D01*
X113710742Y-117797000D01*
X113735512Y-117801927D01*
G37*
G36*
X111195512Y-117801927D02*
G01*
X111344812Y-117831624D01*
X111508784Y-117899544D01*
X111656354Y-117998147D01*
X111781853Y-118123646D01*
X111880456Y-118271216D01*
X111948376Y-118435188D01*
X111983000Y-118609259D01*
X111983000Y-118786741D01*
X111948376Y-118960812D01*
X111880456Y-119124784D01*
X111781853Y-119272354D01*
X111656354Y-119397853D01*
X111508784Y-119496456D01*
X111344812Y-119564376D01*
X111195512Y-119594073D01*
X111170742Y-119599000D01*
X110993258Y-119599000D01*
X110968488Y-119594073D01*
X110819188Y-119564376D01*
X110655216Y-119496456D01*
X110507646Y-119397853D01*
X110382147Y-119272354D01*
X110283544Y-119124784D01*
X110215624Y-118960812D01*
X110181000Y-118786741D01*
X110181000Y-118609259D01*
X110215624Y-118435188D01*
X110283544Y-118271216D01*
X110382147Y-118123646D01*
X110507646Y-117998147D01*
X110655216Y-117899544D01*
X110819188Y-117831624D01*
X110968488Y-117801927D01*
X110993258Y-117797000D01*
X111170742Y-117797000D01*
X111195512Y-117801927D01*
G37*
G36*
X128542200Y-116578800D02*
G01*
X126640200Y-116578800D01*
X126640200Y-114676800D01*
X128542200Y-114676800D01*
X128542200Y-116578800D01*
G37*
G36*
X132811828Y-114882503D02*
G01*
X132966700Y-114946653D01*
X133106081Y-115039785D01*
X133224615Y-115158319D01*
X133317747Y-115297700D01*
X133381897Y-115452572D01*
X133414600Y-115616984D01*
X133414600Y-115784616D01*
X133381897Y-115949028D01*
X133317747Y-116103900D01*
X133224615Y-116243281D01*
X133106081Y-116361815D01*
X132966700Y-116454947D01*
X132811828Y-116519097D01*
X132647416Y-116551800D01*
X132479784Y-116551800D01*
X132315372Y-116519097D01*
X132160500Y-116454947D01*
X132021119Y-116361815D01*
X131902585Y-116243281D01*
X131809453Y-116103900D01*
X131745303Y-115949028D01*
X131712600Y-115784616D01*
X131712600Y-115616984D01*
X131745303Y-115452572D01*
X131809453Y-115297700D01*
X131902585Y-115158319D01*
X132021119Y-115039785D01*
X132160500Y-114946653D01*
X132315372Y-114882503D01*
X132479784Y-114849800D01*
X132647416Y-114849800D01*
X132811828Y-114882503D01*
G37*
G36*
X142971828Y-114882503D02*
G01*
X143126700Y-114946653D01*
X143266081Y-115039785D01*
X143384615Y-115158319D01*
X143477747Y-115297700D01*
X143541897Y-115452572D01*
X143574600Y-115616984D01*
X143574600Y-115784616D01*
X143541897Y-115949028D01*
X143477747Y-116103900D01*
X143384615Y-116243281D01*
X143266081Y-116361815D01*
X143126700Y-116454947D01*
X142971828Y-116519097D01*
X142807416Y-116551800D01*
X142639784Y-116551800D01*
X142475372Y-116519097D01*
X142320500Y-116454947D01*
X142181119Y-116361815D01*
X142062585Y-116243281D01*
X141969453Y-116103900D01*
X141905303Y-115949028D01*
X141872600Y-115784616D01*
X141872600Y-115616984D01*
X141905303Y-115452572D01*
X141969453Y-115297700D01*
X142062585Y-115158319D01*
X142181119Y-115039785D01*
X142320500Y-114946653D01*
X142475372Y-114882503D01*
X142639784Y-114849800D01*
X142807416Y-114849800D01*
X142971828Y-114882503D01*
G37*
G36*
X115049512Y-113991927D02*
G01*
X115198812Y-114021624D01*
X115362784Y-114089544D01*
X115510354Y-114188147D01*
X115635853Y-114313646D01*
X115734456Y-114461216D01*
X115802376Y-114625188D01*
X115837000Y-114799259D01*
X115837000Y-114976741D01*
X115802376Y-115150812D01*
X115734456Y-115314784D01*
X115635853Y-115462354D01*
X115510354Y-115587853D01*
X115362784Y-115686456D01*
X115198812Y-115754376D01*
X115049512Y-115784073D01*
X115024742Y-115789000D01*
X114847258Y-115789000D01*
X114822488Y-115784073D01*
X114673188Y-115754376D01*
X114509216Y-115686456D01*
X114361646Y-115587853D01*
X114236147Y-115462354D01*
X114137544Y-115314784D01*
X114069624Y-115150812D01*
X114035000Y-114976741D01*
X114035000Y-114799259D01*
X114069624Y-114625188D01*
X114137544Y-114461216D01*
X114236147Y-114313646D01*
X114361646Y-114188147D01*
X114509216Y-114089544D01*
X114673188Y-114021624D01*
X114822488Y-113991927D01*
X114847258Y-113987000D01*
X115024742Y-113987000D01*
X115049512Y-113991927D01*
G37*
G36*
X127868595Y-112173346D02*
G01*
X128041666Y-112245034D01*
X128062955Y-112259259D01*
X128197427Y-112349110D01*
X128329890Y-112481573D01*
X128329891Y-112481575D01*
X128433966Y-112637334D01*
X128505654Y-112810405D01*
X128542200Y-112994133D01*
X128542200Y-113181467D01*
X128505654Y-113365195D01*
X128433966Y-113538266D01*
X128382281Y-113615618D01*
X128329890Y-113694027D01*
X128197427Y-113826490D01*
X128146439Y-113860559D01*
X128041666Y-113930566D01*
X127868595Y-114002254D01*
X127684867Y-114038800D01*
X127497533Y-114038800D01*
X127313805Y-114002254D01*
X127140734Y-113930566D01*
X127035961Y-113860559D01*
X126984973Y-113826490D01*
X126852510Y-113694027D01*
X126800119Y-113615618D01*
X126748434Y-113538266D01*
X126676746Y-113365195D01*
X126640200Y-113181467D01*
X126640200Y-112994133D01*
X126676746Y-112810405D01*
X126748434Y-112637334D01*
X126852509Y-112481575D01*
X126852510Y-112481573D01*
X126984973Y-112349110D01*
X127119445Y-112259259D01*
X127140734Y-112245034D01*
X127313805Y-112173346D01*
X127497533Y-112136800D01*
X127684867Y-112136800D01*
X127868595Y-112173346D01*
G37*
G36*
X132831027Y-111767237D02*
G01*
X133000866Y-111818757D01*
X133157391Y-111902422D01*
X133180291Y-111921216D01*
X133294586Y-112015014D01*
X133352175Y-112085188D01*
X133407178Y-112152209D01*
X133490843Y-112308734D01*
X133542363Y-112478574D01*
X133555400Y-112610943D01*
X133555400Y-112999458D01*
X133542363Y-113131827D01*
X133490843Y-113301666D01*
X133407178Y-113458191D01*
X133377848Y-113493929D01*
X133294586Y-113595386D01*
X133157389Y-113707979D01*
X133000867Y-113791642D01*
X133000865Y-113791643D01*
X132831026Y-113843163D01*
X132654400Y-113860559D01*
X132477773Y-113843163D01*
X132307934Y-113791643D01*
X132151409Y-113707978D01*
X132109150Y-113673297D01*
X132014214Y-113595386D01*
X131901621Y-113458189D01*
X131817958Y-113301667D01*
X131817957Y-113301665D01*
X131766437Y-113131826D01*
X131759919Y-113065642D01*
X131753400Y-112999459D01*
X131753400Y-112610940D01*
X131759918Y-112544758D01*
X131766437Y-112478573D01*
X131817957Y-112308734D01*
X131901622Y-112152209D01*
X132014215Y-112015015D01*
X132151410Y-111902422D01*
X132307935Y-111818757D01*
X132477774Y-111767237D01*
X132654400Y-111749841D01*
X132831027Y-111767237D01*
G37*
G36*
X135913000Y-111758189D02*
G01*
X135946052Y-111768215D01*
X135976503Y-111784492D01*
X136003199Y-111806401D01*
X136025108Y-111833097D01*
X136041385Y-111863548D01*
X136051411Y-111896600D01*
X136055400Y-111937103D01*
X136055400Y-113673297D01*
X136051411Y-113713800D01*
X136041385Y-113746852D01*
X136025108Y-113777303D01*
X136003199Y-113803999D01*
X135976503Y-113825908D01*
X135946052Y-113842185D01*
X135913000Y-113852211D01*
X135872497Y-113856200D01*
X134436303Y-113856200D01*
X134395800Y-113852211D01*
X134362748Y-113842185D01*
X134332297Y-113825908D01*
X134305601Y-113803999D01*
X134283692Y-113777303D01*
X134267415Y-113746852D01*
X134257389Y-113713800D01*
X134253400Y-113673297D01*
X134253400Y-111937103D01*
X134257389Y-111896600D01*
X134267415Y-111863548D01*
X134283692Y-111833097D01*
X134305601Y-111806401D01*
X134332297Y-111784492D01*
X134362748Y-111768215D01*
X134395800Y-111758189D01*
X134436303Y-111754200D01*
X135872497Y-111754200D01*
X135913000Y-111758189D01*
G37*
G36*
X115049512Y-111451927D02*
G01*
X115198812Y-111481624D01*
X115362784Y-111549544D01*
X115510354Y-111648147D01*
X115635853Y-111773646D01*
X115734456Y-111921216D01*
X115802376Y-112085188D01*
X115837000Y-112259259D01*
X115837000Y-112436741D01*
X115802376Y-112610812D01*
X115734456Y-112774784D01*
X115635853Y-112922354D01*
X115510354Y-113047853D01*
X115362784Y-113146456D01*
X115198812Y-113214376D01*
X115049512Y-113244073D01*
X115024742Y-113249000D01*
X114847258Y-113249000D01*
X114822488Y-113244073D01*
X114673188Y-113214376D01*
X114509216Y-113146456D01*
X114361646Y-113047853D01*
X114236147Y-112922354D01*
X114137544Y-112774784D01*
X114069624Y-112610812D01*
X114035000Y-112436741D01*
X114035000Y-112259259D01*
X114069624Y-112085188D01*
X114137544Y-111921216D01*
X114236147Y-111773646D01*
X114361646Y-111648147D01*
X114509216Y-111549544D01*
X114673188Y-111481624D01*
X114822488Y-111451927D01*
X114847258Y-111447000D01*
X115024742Y-111447000D01*
X115049512Y-111451927D01*
G37*
G36*
X146310739Y-110026707D02*
G01*
X146406329Y-110036122D01*
X146590306Y-110091931D01*
X146590309Y-110091932D01*
X146624158Y-110110025D01*
X146759860Y-110182559D01*
X146806035Y-110220454D01*
X146908476Y-110304524D01*
X146972348Y-110382354D01*
X147030441Y-110453140D01*
X147073006Y-110532775D01*
X147121068Y-110622691D01*
X147121069Y-110622694D01*
X147176878Y-110806671D01*
X147195722Y-110998000D01*
X147176878Y-111189329D01*
X147161746Y-111239211D01*
X147121068Y-111373309D01*
X147111986Y-111390300D01*
X147030441Y-111542860D01*
X146992546Y-111589035D01*
X146908476Y-111691476D01*
X146814968Y-111768215D01*
X146759860Y-111813441D01*
X146680225Y-111856006D01*
X146590309Y-111904068D01*
X146590306Y-111904069D01*
X146406329Y-111959878D01*
X146328930Y-111967501D01*
X146262945Y-111974000D01*
X144969055Y-111974000D01*
X144903070Y-111967501D01*
X144825671Y-111959878D01*
X144641694Y-111904069D01*
X144641691Y-111904068D01*
X144551775Y-111856006D01*
X144472140Y-111813441D01*
X144417032Y-111768215D01*
X144323524Y-111691476D01*
X144239454Y-111589035D01*
X144201559Y-111542860D01*
X144120014Y-111390300D01*
X144110932Y-111373309D01*
X144070254Y-111239211D01*
X144055122Y-111189329D01*
X144036278Y-110998000D01*
X144055122Y-110806671D01*
X144110931Y-110622694D01*
X144110932Y-110622691D01*
X144158994Y-110532775D01*
X144201559Y-110453140D01*
X144259652Y-110382354D01*
X144323524Y-110304524D01*
X144425965Y-110220454D01*
X144472140Y-110182559D01*
X144607842Y-110110025D01*
X144641691Y-110091932D01*
X144641694Y-110091931D01*
X144825671Y-110036122D01*
X144921261Y-110026707D01*
X144969055Y-110022000D01*
X146262945Y-110022000D01*
X146310739Y-110026707D01*
G37*
G36*
X158810739Y-110026707D02*
G01*
X158906329Y-110036122D01*
X159090306Y-110091931D01*
X159090309Y-110091932D01*
X159124158Y-110110025D01*
X159259860Y-110182559D01*
X159306035Y-110220454D01*
X159408476Y-110304524D01*
X159472348Y-110382354D01*
X159530441Y-110453140D01*
X159573006Y-110532775D01*
X159621068Y-110622691D01*
X159621069Y-110622694D01*
X159676878Y-110806671D01*
X159695722Y-110998000D01*
X159676878Y-111189329D01*
X159661746Y-111239211D01*
X159621068Y-111373309D01*
X159611986Y-111390300D01*
X159530441Y-111542860D01*
X159492546Y-111589035D01*
X159408476Y-111691476D01*
X159314968Y-111768215D01*
X159259860Y-111813441D01*
X159180225Y-111856006D01*
X159090309Y-111904068D01*
X159090306Y-111904069D01*
X158906329Y-111959878D01*
X158828930Y-111967501D01*
X158762945Y-111974000D01*
X157469055Y-111974000D01*
X157403070Y-111967501D01*
X157325671Y-111959878D01*
X157141694Y-111904069D01*
X157141691Y-111904068D01*
X157051775Y-111856006D01*
X156972140Y-111813441D01*
X156917032Y-111768215D01*
X156823524Y-111691476D01*
X156739454Y-111589035D01*
X156701559Y-111542860D01*
X156620014Y-111390300D01*
X156610932Y-111373309D01*
X156570254Y-111239211D01*
X156555122Y-111189329D01*
X156536278Y-110998000D01*
X156555122Y-110806671D01*
X156610931Y-110622694D01*
X156610932Y-110622691D01*
X156658994Y-110532775D01*
X156701559Y-110453140D01*
X156759652Y-110382354D01*
X156823524Y-110304524D01*
X156925965Y-110220454D01*
X156972140Y-110182559D01*
X157107842Y-110110025D01*
X157141691Y-110091932D01*
X157141694Y-110091931D01*
X157325671Y-110036122D01*
X157421261Y-110026707D01*
X157469055Y-110022000D01*
X158762945Y-110022000D01*
X158810739Y-110026707D01*
G37*
G36*
X97850739Y-110026707D02*
G01*
X97946329Y-110036122D01*
X98130306Y-110091931D01*
X98130309Y-110091932D01*
X98164158Y-110110025D01*
X98299860Y-110182559D01*
X98346035Y-110220454D01*
X98448476Y-110304524D01*
X98512348Y-110382354D01*
X98570441Y-110453140D01*
X98613006Y-110532775D01*
X98661068Y-110622691D01*
X98661069Y-110622694D01*
X98716878Y-110806671D01*
X98735722Y-110998000D01*
X98716878Y-111189329D01*
X98701746Y-111239211D01*
X98661068Y-111373309D01*
X98651986Y-111390300D01*
X98570441Y-111542860D01*
X98532546Y-111589035D01*
X98448476Y-111691476D01*
X98354968Y-111768215D01*
X98299860Y-111813441D01*
X98220225Y-111856006D01*
X98130309Y-111904068D01*
X98130306Y-111904069D01*
X97946329Y-111959878D01*
X97868930Y-111967501D01*
X97802945Y-111974000D01*
X96509055Y-111974000D01*
X96443070Y-111967501D01*
X96365671Y-111959878D01*
X96181694Y-111904069D01*
X96181691Y-111904068D01*
X96091775Y-111856006D01*
X96012140Y-111813441D01*
X95957032Y-111768215D01*
X95863524Y-111691476D01*
X95779454Y-111589035D01*
X95741559Y-111542860D01*
X95660014Y-111390300D01*
X95650932Y-111373309D01*
X95610254Y-111239211D01*
X95595122Y-111189329D01*
X95576278Y-110998000D01*
X95595122Y-110806671D01*
X95650931Y-110622694D01*
X95650932Y-110622691D01*
X95698994Y-110532775D01*
X95741559Y-110453140D01*
X95799652Y-110382354D01*
X95863524Y-110304524D01*
X95965965Y-110220454D01*
X96012140Y-110182559D01*
X96147842Y-110110025D01*
X96181691Y-110091932D01*
X96181694Y-110091931D01*
X96365671Y-110036122D01*
X96461261Y-110026707D01*
X96509055Y-110022000D01*
X97802945Y-110022000D01*
X97850739Y-110026707D01*
G37*
G36*
X110350739Y-110026707D02*
G01*
X110446329Y-110036122D01*
X110630306Y-110091931D01*
X110630309Y-110091932D01*
X110664158Y-110110025D01*
X110799860Y-110182559D01*
X110846035Y-110220454D01*
X110948476Y-110304524D01*
X111012348Y-110382354D01*
X111070441Y-110453140D01*
X111113006Y-110532775D01*
X111161068Y-110622691D01*
X111161069Y-110622694D01*
X111216878Y-110806671D01*
X111235722Y-110998000D01*
X111216878Y-111189329D01*
X111201746Y-111239211D01*
X111161068Y-111373309D01*
X111151986Y-111390300D01*
X111070441Y-111542860D01*
X111032546Y-111589035D01*
X110948476Y-111691476D01*
X110854968Y-111768215D01*
X110799860Y-111813441D01*
X110720225Y-111856006D01*
X110630309Y-111904068D01*
X110630306Y-111904069D01*
X110446329Y-111959878D01*
X110368930Y-111967501D01*
X110302945Y-111974000D01*
X109009055Y-111974000D01*
X108943070Y-111967501D01*
X108865671Y-111959878D01*
X108681694Y-111904069D01*
X108681691Y-111904068D01*
X108591775Y-111856006D01*
X108512140Y-111813441D01*
X108457032Y-111768215D01*
X108363524Y-111691476D01*
X108279454Y-111589035D01*
X108241559Y-111542860D01*
X108160014Y-111390300D01*
X108150932Y-111373309D01*
X108110254Y-111239211D01*
X108095122Y-111189329D01*
X108076278Y-110998000D01*
X108095122Y-110806671D01*
X108150931Y-110622694D01*
X108150932Y-110622691D01*
X108198994Y-110532775D01*
X108241559Y-110453140D01*
X108299652Y-110382354D01*
X108363524Y-110304524D01*
X108465965Y-110220454D01*
X108512140Y-110182559D01*
X108647842Y-110110025D01*
X108681691Y-110091932D01*
X108681694Y-110091931D01*
X108865671Y-110036122D01*
X108961261Y-110026707D01*
X109009055Y-110022000D01*
X110302945Y-110022000D01*
X110350739Y-110026707D01*
G37*
G36*
X151066800Y-111928200D02*
G01*
X149264800Y-111928200D01*
X149264800Y-110126200D01*
X151066800Y-110126200D01*
X151066800Y-111928200D01*
G37*
G36*
X152819312Y-110131127D02*
G01*
X152968612Y-110160824D01*
X153132584Y-110228744D01*
X153280154Y-110327347D01*
X153405653Y-110452846D01*
X153504256Y-110600416D01*
X153572176Y-110764388D01*
X153606800Y-110938459D01*
X153606800Y-111115941D01*
X153572176Y-111290012D01*
X153504256Y-111453984D01*
X153405653Y-111601554D01*
X153280154Y-111727053D01*
X153132584Y-111825656D01*
X152968612Y-111893576D01*
X152819312Y-111923273D01*
X152794542Y-111928200D01*
X152617058Y-111928200D01*
X152592288Y-111923273D01*
X152442988Y-111893576D01*
X152279016Y-111825656D01*
X152131446Y-111727053D01*
X152005947Y-111601554D01*
X151907344Y-111453984D01*
X151839424Y-111290012D01*
X151804800Y-111115941D01*
X151804800Y-110938459D01*
X151839424Y-110764388D01*
X151907344Y-110600416D01*
X152005947Y-110452846D01*
X152131446Y-110327347D01*
X152279016Y-110228744D01*
X152442988Y-110160824D01*
X152592288Y-110131127D01*
X152617058Y-110126200D01*
X152794542Y-110126200D01*
X152819312Y-110131127D01*
G37*
G36*
X103213200Y-111877400D02*
G01*
X101411200Y-111877400D01*
X101411200Y-110075400D01*
X103213200Y-110075400D01*
X103213200Y-111877400D01*
G37*
G36*
X104965712Y-110080327D02*
G01*
X105115012Y-110110024D01*
X105278984Y-110177944D01*
X105426554Y-110276547D01*
X105552053Y-110402046D01*
X105650656Y-110549616D01*
X105718576Y-110713588D01*
X105737091Y-110806673D01*
X105753200Y-110887658D01*
X105753200Y-111065142D01*
X105748273Y-111089912D01*
X105718576Y-111239212D01*
X105650656Y-111403184D01*
X105552053Y-111550754D01*
X105426554Y-111676253D01*
X105278984Y-111774856D01*
X105115012Y-111842776D01*
X104968220Y-111871974D01*
X104940942Y-111877400D01*
X104763458Y-111877400D01*
X104736180Y-111871974D01*
X104589388Y-111842776D01*
X104425416Y-111774856D01*
X104277846Y-111676253D01*
X104152347Y-111550754D01*
X104053744Y-111403184D01*
X103985824Y-111239212D01*
X103956127Y-111089912D01*
X103951200Y-111065142D01*
X103951200Y-110887658D01*
X103967309Y-110806673D01*
X103985824Y-110713588D01*
X104053744Y-110549616D01*
X104152347Y-110402046D01*
X104277846Y-110276547D01*
X104425416Y-110177944D01*
X104589388Y-110110024D01*
X104738688Y-110080327D01*
X104763458Y-110075400D01*
X104940942Y-110075400D01*
X104965712Y-110080327D01*
G37*
G36*
X140222200Y-111838200D02*
G01*
X138520200Y-111838200D01*
X138520200Y-110136200D01*
X140222200Y-110136200D01*
X140222200Y-111838200D01*
G37*
G36*
X142819428Y-110168903D02*
G01*
X142974300Y-110233053D01*
X143113681Y-110326185D01*
X143232215Y-110444719D01*
X143325347Y-110584100D01*
X143389497Y-110738972D01*
X143422200Y-110903384D01*
X143422200Y-111071016D01*
X143389497Y-111235428D01*
X143325347Y-111390300D01*
X143232215Y-111529681D01*
X143113681Y-111648215D01*
X142974300Y-111741347D01*
X142819428Y-111805497D01*
X142655016Y-111838200D01*
X142487384Y-111838200D01*
X142322972Y-111805497D01*
X142168100Y-111741347D01*
X142028719Y-111648215D01*
X141910185Y-111529681D01*
X141817053Y-111390300D01*
X141752903Y-111235428D01*
X141720200Y-111071016D01*
X141720200Y-110903384D01*
X141752903Y-110738972D01*
X141817053Y-110584100D01*
X141910185Y-110444719D01*
X142028719Y-110326185D01*
X142168100Y-110233053D01*
X142322972Y-110168903D01*
X142487384Y-110136200D01*
X142655016Y-110136200D01*
X142819428Y-110168903D01*
G37*
G36*
X115049512Y-108911927D02*
G01*
X115198812Y-108941624D01*
X115362784Y-109009544D01*
X115510354Y-109108147D01*
X115635853Y-109233646D01*
X115734456Y-109381216D01*
X115802376Y-109545188D01*
X115837000Y-109719259D01*
X115837000Y-109896741D01*
X115802376Y-110070812D01*
X115734456Y-110234784D01*
X115635853Y-110382354D01*
X115510354Y-110507853D01*
X115362784Y-110606456D01*
X115198812Y-110674376D01*
X115049512Y-110704073D01*
X115024742Y-110709000D01*
X114847258Y-110709000D01*
X114822488Y-110704073D01*
X114673188Y-110674376D01*
X114509216Y-110606456D01*
X114361646Y-110507853D01*
X114236147Y-110382354D01*
X114137544Y-110234784D01*
X114069624Y-110070812D01*
X114035000Y-109896741D01*
X114035000Y-109719259D01*
X114069624Y-109545188D01*
X114137544Y-109381216D01*
X114236147Y-109233646D01*
X114361646Y-109108147D01*
X114509216Y-109009544D01*
X114673188Y-108941624D01*
X114822488Y-108911927D01*
X114847258Y-108907000D01*
X115024742Y-108907000D01*
X115049512Y-108911927D01*
G37*
G36*
X139619428Y-107668903D02*
G01*
X139774300Y-107733053D01*
X139913681Y-107826185D01*
X140032215Y-107944719D01*
X140125347Y-108084100D01*
X140189497Y-108238972D01*
X140222200Y-108403384D01*
X140222200Y-108571016D01*
X140189497Y-108735428D01*
X140125347Y-108890300D01*
X140032215Y-109029681D01*
X139913681Y-109148215D01*
X139774300Y-109241347D01*
X139619428Y-109305497D01*
X139455016Y-109338200D01*
X139287384Y-109338200D01*
X139122972Y-109305497D01*
X138968100Y-109241347D01*
X138828719Y-109148215D01*
X138710185Y-109029681D01*
X138617053Y-108890300D01*
X138552903Y-108735428D01*
X138520200Y-108571016D01*
X138520200Y-108403384D01*
X138552903Y-108238972D01*
X138617053Y-108084100D01*
X138710185Y-107944719D01*
X138828719Y-107826185D01*
X138968100Y-107733053D01*
X139122972Y-107668903D01*
X139287384Y-107636200D01*
X139455016Y-107636200D01*
X139619428Y-107668903D01*
G37*
G36*
X142819428Y-107668903D02*
G01*
X142974300Y-107733053D01*
X143113681Y-107826185D01*
X143232215Y-107944719D01*
X143325347Y-108084100D01*
X143389497Y-108238972D01*
X143422200Y-108403384D01*
X143422200Y-108571016D01*
X143389497Y-108735428D01*
X143325347Y-108890300D01*
X143232215Y-109029681D01*
X143113681Y-109148215D01*
X142974300Y-109241347D01*
X142819428Y-109305497D01*
X142655016Y-109338200D01*
X142487384Y-109338200D01*
X142322972Y-109305497D01*
X142168100Y-109241347D01*
X142028719Y-109148215D01*
X141910185Y-109029681D01*
X141817053Y-108890300D01*
X141752903Y-108735428D01*
X141720200Y-108571016D01*
X141720200Y-108403384D01*
X141752903Y-108238972D01*
X141817053Y-108084100D01*
X141910185Y-107944719D01*
X142028719Y-107826185D01*
X142168100Y-107733053D01*
X142322972Y-107668903D01*
X142487384Y-107636200D01*
X142655016Y-107636200D01*
X142819428Y-107668903D01*
G37*
G36*
X115049512Y-106371927D02*
G01*
X115198812Y-106401624D01*
X115362784Y-106469544D01*
X115510354Y-106568147D01*
X115635853Y-106693646D01*
X115734456Y-106841216D01*
X115802376Y-107005188D01*
X115837000Y-107179259D01*
X115837000Y-107356741D01*
X115802376Y-107530812D01*
X115734456Y-107694784D01*
X115635853Y-107842354D01*
X115510354Y-107967853D01*
X115362784Y-108066456D01*
X115198812Y-108134376D01*
X115049512Y-108164073D01*
X115024742Y-108169000D01*
X114847258Y-108169000D01*
X114822488Y-108164073D01*
X114673188Y-108134376D01*
X114509216Y-108066456D01*
X114361646Y-107967853D01*
X114236147Y-107842354D01*
X114137544Y-107694784D01*
X114069624Y-107530812D01*
X114035000Y-107356741D01*
X114035000Y-107179259D01*
X114069624Y-107005188D01*
X114137544Y-106841216D01*
X114236147Y-106693646D01*
X114361646Y-106568147D01*
X114509216Y-106469544D01*
X114673188Y-106401624D01*
X114822488Y-106371927D01*
X114847258Y-106367000D01*
X115024742Y-106367000D01*
X115049512Y-106371927D01*
G37*
G36*
X97850739Y-105026707D02*
G01*
X97946329Y-105036122D01*
X98130306Y-105091931D01*
X98130309Y-105091932D01*
X98213128Y-105136200D01*
X98299860Y-105182559D01*
X98346035Y-105220454D01*
X98448476Y-105304524D01*
X98532546Y-105406965D01*
X98570441Y-105453140D01*
X98609629Y-105526456D01*
X98661068Y-105622691D01*
X98661069Y-105622694D01*
X98716878Y-105806671D01*
X98735722Y-105998000D01*
X98716878Y-106189329D01*
X98662982Y-106367000D01*
X98661068Y-106373309D01*
X98613006Y-106463225D01*
X98570441Y-106542860D01*
X98532546Y-106589035D01*
X98448476Y-106691476D01*
X98346035Y-106775546D01*
X98299860Y-106813441D01*
X98220225Y-106856006D01*
X98130309Y-106904068D01*
X98130306Y-106904069D01*
X97946329Y-106959878D01*
X97850739Y-106969293D01*
X97802945Y-106974000D01*
X96509055Y-106974000D01*
X96461261Y-106969293D01*
X96365671Y-106959878D01*
X96181694Y-106904069D01*
X96181691Y-106904068D01*
X96091775Y-106856006D01*
X96012140Y-106813441D01*
X95965965Y-106775546D01*
X95863524Y-106691476D01*
X95779454Y-106589035D01*
X95741559Y-106542860D01*
X95698994Y-106463225D01*
X95650932Y-106373309D01*
X95649018Y-106367000D01*
X95595122Y-106189329D01*
X95576278Y-105998000D01*
X95595122Y-105806671D01*
X95650931Y-105622694D01*
X95650932Y-105622691D01*
X95702371Y-105526456D01*
X95741559Y-105453140D01*
X95779454Y-105406965D01*
X95863524Y-105304524D01*
X95965965Y-105220454D01*
X96012140Y-105182559D01*
X96098872Y-105136200D01*
X96181691Y-105091932D01*
X96181694Y-105091931D01*
X96365671Y-105036122D01*
X96461261Y-105026707D01*
X96509055Y-105022000D01*
X97802945Y-105022000D01*
X97850739Y-105026707D01*
G37*
G36*
X158810739Y-105026707D02*
G01*
X158906329Y-105036122D01*
X159090306Y-105091931D01*
X159090309Y-105091932D01*
X159173128Y-105136200D01*
X159259860Y-105182559D01*
X159306035Y-105220454D01*
X159408476Y-105304524D01*
X159492546Y-105406965D01*
X159530441Y-105453140D01*
X159569629Y-105526456D01*
X159621068Y-105622691D01*
X159621069Y-105622694D01*
X159676878Y-105806671D01*
X159695722Y-105998000D01*
X159676878Y-106189329D01*
X159622982Y-106367000D01*
X159621068Y-106373309D01*
X159573006Y-106463225D01*
X159530441Y-106542860D01*
X159492546Y-106589035D01*
X159408476Y-106691476D01*
X159306035Y-106775546D01*
X159259860Y-106813441D01*
X159180225Y-106856006D01*
X159090309Y-106904068D01*
X159090306Y-106904069D01*
X158906329Y-106959878D01*
X158810739Y-106969293D01*
X158762945Y-106974000D01*
X157469055Y-106974000D01*
X157421261Y-106969293D01*
X157325671Y-106959878D01*
X157141694Y-106904069D01*
X157141691Y-106904068D01*
X157051775Y-106856006D01*
X156972140Y-106813441D01*
X156925965Y-106775546D01*
X156823524Y-106691476D01*
X156739454Y-106589035D01*
X156701559Y-106542860D01*
X156658994Y-106463225D01*
X156610932Y-106373309D01*
X156609018Y-106367000D01*
X156555122Y-106189329D01*
X156536278Y-105998000D01*
X156555122Y-105806671D01*
X156610931Y-105622694D01*
X156610932Y-105622691D01*
X156662371Y-105526456D01*
X156701559Y-105453140D01*
X156739454Y-105406965D01*
X156823524Y-105304524D01*
X156925965Y-105220454D01*
X156972140Y-105182559D01*
X157058872Y-105136200D01*
X157141691Y-105091932D01*
X157141694Y-105091931D01*
X157325671Y-105036122D01*
X157421261Y-105026707D01*
X157469055Y-105022000D01*
X158762945Y-105022000D01*
X158810739Y-105026707D01*
G37*
G36*
X110350739Y-105026707D02*
G01*
X110446329Y-105036122D01*
X110630306Y-105091931D01*
X110630309Y-105091932D01*
X110713128Y-105136200D01*
X110799860Y-105182559D01*
X110846035Y-105220454D01*
X110948476Y-105304524D01*
X111032546Y-105406965D01*
X111070441Y-105453140D01*
X111109629Y-105526456D01*
X111161068Y-105622691D01*
X111161069Y-105622694D01*
X111216878Y-105806671D01*
X111235722Y-105998000D01*
X111216878Y-106189329D01*
X111162982Y-106367000D01*
X111161068Y-106373309D01*
X111113006Y-106463225D01*
X111070441Y-106542860D01*
X111032546Y-106589035D01*
X110948476Y-106691476D01*
X110846035Y-106775546D01*
X110799860Y-106813441D01*
X110720225Y-106856006D01*
X110630309Y-106904068D01*
X110630306Y-106904069D01*
X110446329Y-106959878D01*
X110350739Y-106969293D01*
X110302945Y-106974000D01*
X109009055Y-106974000D01*
X108961261Y-106969293D01*
X108865671Y-106959878D01*
X108681694Y-106904069D01*
X108681691Y-106904068D01*
X108591775Y-106856006D01*
X108512140Y-106813441D01*
X108465965Y-106775546D01*
X108363524Y-106691476D01*
X108279454Y-106589035D01*
X108241559Y-106542860D01*
X108198994Y-106463225D01*
X108150932Y-106373309D01*
X108149018Y-106367000D01*
X108095122Y-106189329D01*
X108076278Y-105998000D01*
X108095122Y-105806671D01*
X108150931Y-105622694D01*
X108150932Y-105622691D01*
X108202371Y-105526456D01*
X108241559Y-105453140D01*
X108279454Y-105406965D01*
X108363524Y-105304524D01*
X108465965Y-105220454D01*
X108512140Y-105182559D01*
X108598872Y-105136200D01*
X108681691Y-105091932D01*
X108681694Y-105091931D01*
X108865671Y-105036122D01*
X108961261Y-105026707D01*
X109009055Y-105022000D01*
X110302945Y-105022000D01*
X110350739Y-105026707D01*
G37*
G36*
X146310739Y-105026707D02*
G01*
X146406329Y-105036122D01*
X146590306Y-105091931D01*
X146590309Y-105091932D01*
X146673128Y-105136200D01*
X146759860Y-105182559D01*
X146806035Y-105220454D01*
X146908476Y-105304524D01*
X146992546Y-105406965D01*
X147030441Y-105453140D01*
X147069629Y-105526456D01*
X147121068Y-105622691D01*
X147121069Y-105622694D01*
X147176878Y-105806671D01*
X147195722Y-105998000D01*
X147176878Y-106189329D01*
X147122982Y-106367000D01*
X147121068Y-106373309D01*
X147073006Y-106463225D01*
X147030441Y-106542860D01*
X146992546Y-106589035D01*
X146908476Y-106691476D01*
X146806035Y-106775546D01*
X146759860Y-106813441D01*
X146680225Y-106856006D01*
X146590309Y-106904068D01*
X146590306Y-106904069D01*
X146406329Y-106959878D01*
X146310739Y-106969293D01*
X146262945Y-106974000D01*
X144969055Y-106974000D01*
X144921261Y-106969293D01*
X144825671Y-106959878D01*
X144641694Y-106904069D01*
X144641691Y-106904068D01*
X144551775Y-106856006D01*
X144472140Y-106813441D01*
X144425965Y-106775546D01*
X144323524Y-106691476D01*
X144239454Y-106589035D01*
X144201559Y-106542860D01*
X144158994Y-106463225D01*
X144110932Y-106373309D01*
X144109018Y-106367000D01*
X144055122Y-106189329D01*
X144036278Y-105998000D01*
X144055122Y-105806671D01*
X144110931Y-105622694D01*
X144110932Y-105622691D01*
X144162371Y-105526456D01*
X144201559Y-105453140D01*
X144239454Y-105406965D01*
X144323524Y-105304524D01*
X144425965Y-105220454D01*
X144472140Y-105182559D01*
X144558872Y-105136200D01*
X144641691Y-105091932D01*
X144641694Y-105091931D01*
X144825671Y-105036122D01*
X144921261Y-105026707D01*
X144969055Y-105022000D01*
X146262945Y-105022000D01*
X146310739Y-105026707D01*
G37*
G36*
X142819428Y-105168903D02*
G01*
X142974300Y-105233053D01*
X143113681Y-105326185D01*
X143232215Y-105444719D01*
X143325347Y-105584100D01*
X143389497Y-105738972D01*
X143422200Y-105903384D01*
X143422200Y-106071016D01*
X143389497Y-106235428D01*
X143325347Y-106390300D01*
X143232215Y-106529681D01*
X143113681Y-106648215D01*
X142974300Y-106741347D01*
X142819428Y-106805497D01*
X142655016Y-106838200D01*
X142487384Y-106838200D01*
X142322972Y-106805497D01*
X142168100Y-106741347D01*
X142028719Y-106648215D01*
X141910185Y-106529681D01*
X141817053Y-106390300D01*
X141752903Y-106235428D01*
X141720200Y-106071016D01*
X141720200Y-105903384D01*
X141752903Y-105738972D01*
X141817053Y-105584100D01*
X141910185Y-105444719D01*
X142028719Y-105326185D01*
X142168100Y-105233053D01*
X142322972Y-105168903D01*
X142487384Y-105136200D01*
X142655016Y-105136200D01*
X142819428Y-105168903D01*
G37*
G36*
X139619428Y-105168903D02*
G01*
X139774300Y-105233053D01*
X139913681Y-105326185D01*
X140032215Y-105444719D01*
X140125347Y-105584100D01*
X140189497Y-105738972D01*
X140222200Y-105903384D01*
X140222200Y-106071016D01*
X140189497Y-106235428D01*
X140125347Y-106390300D01*
X140032215Y-106529681D01*
X139913681Y-106648215D01*
X139774300Y-106741347D01*
X139619428Y-106805497D01*
X139455016Y-106838200D01*
X139287384Y-106838200D01*
X139122972Y-106805497D01*
X138968100Y-106741347D01*
X138828719Y-106648215D01*
X138710185Y-106529681D01*
X138617053Y-106390300D01*
X138552903Y-106235428D01*
X138520200Y-106071016D01*
X138520200Y-105903384D01*
X138552903Y-105738972D01*
X138617053Y-105584100D01*
X138710185Y-105444719D01*
X138828719Y-105326185D01*
X138968100Y-105233053D01*
X139122972Y-105168903D01*
X139287384Y-105136200D01*
X139455016Y-105136200D01*
X139619428Y-105168903D01*
G37*
G36*
X115049512Y-103831927D02*
G01*
X115198812Y-103861624D01*
X115362784Y-103929544D01*
X115510354Y-104028147D01*
X115635853Y-104153646D01*
X115734456Y-104301216D01*
X115802376Y-104465188D01*
X115837000Y-104639259D01*
X115837000Y-104816741D01*
X115802376Y-104990812D01*
X115734456Y-105154784D01*
X115635853Y-105302354D01*
X115510354Y-105427853D01*
X115362784Y-105526456D01*
X115198812Y-105594376D01*
X115056459Y-105622691D01*
X115024742Y-105629000D01*
X114847258Y-105629000D01*
X114815541Y-105622691D01*
X114673188Y-105594376D01*
X114509216Y-105526456D01*
X114361646Y-105427853D01*
X114236147Y-105302354D01*
X114137544Y-105154784D01*
X114069624Y-104990812D01*
X114035000Y-104816741D01*
X114035000Y-104639259D01*
X114069624Y-104465188D01*
X114137544Y-104301216D01*
X114236147Y-104153646D01*
X114361646Y-104028147D01*
X114509216Y-103929544D01*
X114673188Y-103861624D01*
X114822488Y-103831927D01*
X114847258Y-103827000D01*
X115024742Y-103827000D01*
X115049512Y-103831927D01*
G37*
G36*
X115837000Y-103089000D02*
G01*
X114035000Y-103089000D01*
X114035000Y-101287000D01*
X115837000Y-101287000D01*
X115837000Y-103089000D01*
G37*
G36*
X134048712Y-98243927D02*
G01*
X134198012Y-98273624D01*
X134361984Y-98341544D01*
X134509554Y-98440147D01*
X134635053Y-98565646D01*
X134733656Y-98713216D01*
X134801576Y-98877188D01*
X134836200Y-99051259D01*
X134836200Y-99228741D01*
X134801576Y-99402812D01*
X134733656Y-99566784D01*
X134635053Y-99714354D01*
X134509554Y-99839853D01*
X134361984Y-99938456D01*
X134198012Y-100006376D01*
X134048712Y-100036073D01*
X134023942Y-100041000D01*
X133846458Y-100041000D01*
X133821688Y-100036073D01*
X133672388Y-100006376D01*
X133508416Y-99938456D01*
X133360846Y-99839853D01*
X133235347Y-99714354D01*
X133136744Y-99566784D01*
X133068824Y-99402812D01*
X133034200Y-99228741D01*
X133034200Y-99051259D01*
X133068824Y-98877188D01*
X133136744Y-98713216D01*
X133235347Y-98565646D01*
X133360846Y-98440147D01*
X133508416Y-98341544D01*
X133672388Y-98273624D01*
X133821688Y-98243927D01*
X133846458Y-98239000D01*
X134023942Y-98239000D01*
X134048712Y-98243927D01*
G37*
G36*
X131508712Y-98243927D02*
G01*
X131658012Y-98273624D01*
X131821984Y-98341544D01*
X131969554Y-98440147D01*
X132095053Y-98565646D01*
X132193656Y-98713216D01*
X132261576Y-98877188D01*
X132296200Y-99051259D01*
X132296200Y-99228741D01*
X132261576Y-99402812D01*
X132193656Y-99566784D01*
X132095053Y-99714354D01*
X131969554Y-99839853D01*
X131821984Y-99938456D01*
X131658012Y-100006376D01*
X131508712Y-100036073D01*
X131483942Y-100041000D01*
X131306458Y-100041000D01*
X131281688Y-100036073D01*
X131132388Y-100006376D01*
X130968416Y-99938456D01*
X130820846Y-99839853D01*
X130695347Y-99714354D01*
X130596744Y-99566784D01*
X130528824Y-99402812D01*
X130494200Y-99228741D01*
X130494200Y-99051259D01*
X130528824Y-98877188D01*
X130596744Y-98713216D01*
X130695347Y-98565646D01*
X130820846Y-98440147D01*
X130968416Y-98341544D01*
X131132388Y-98273624D01*
X131281688Y-98243927D01*
X131306458Y-98239000D01*
X131483942Y-98239000D01*
X131508712Y-98243927D01*
G37*
G36*
X128968712Y-98243927D02*
G01*
X129118012Y-98273624D01*
X129281984Y-98341544D01*
X129429554Y-98440147D01*
X129555053Y-98565646D01*
X129653656Y-98713216D01*
X129721576Y-98877188D01*
X129756200Y-99051259D01*
X129756200Y-99228741D01*
X129721576Y-99402812D01*
X129653656Y-99566784D01*
X129555053Y-99714354D01*
X129429554Y-99839853D01*
X129281984Y-99938456D01*
X129118012Y-100006376D01*
X128968712Y-100036073D01*
X128943942Y-100041000D01*
X128766458Y-100041000D01*
X128741688Y-100036073D01*
X128592388Y-100006376D01*
X128428416Y-99938456D01*
X128280846Y-99839853D01*
X128155347Y-99714354D01*
X128056744Y-99566784D01*
X127988824Y-99402812D01*
X127954200Y-99228741D01*
X127954200Y-99051259D01*
X127988824Y-98877188D01*
X128056744Y-98713216D01*
X128155347Y-98565646D01*
X128280846Y-98440147D01*
X128428416Y-98341544D01*
X128592388Y-98273624D01*
X128741688Y-98243927D01*
X128766458Y-98239000D01*
X128943942Y-98239000D01*
X128968712Y-98243927D01*
G37*
G36*
X126428712Y-98243927D02*
G01*
X126578012Y-98273624D01*
X126741984Y-98341544D01*
X126889554Y-98440147D01*
X127015053Y-98565646D01*
X127113656Y-98713216D01*
X127181576Y-98877188D01*
X127216200Y-99051259D01*
X127216200Y-99228741D01*
X127181576Y-99402812D01*
X127113656Y-99566784D01*
X127015053Y-99714354D01*
X126889554Y-99839853D01*
X126741984Y-99938456D01*
X126578012Y-100006376D01*
X126428712Y-100036073D01*
X126403942Y-100041000D01*
X126226458Y-100041000D01*
X126201688Y-100036073D01*
X126052388Y-100006376D01*
X125888416Y-99938456D01*
X125740846Y-99839853D01*
X125615347Y-99714354D01*
X125516744Y-99566784D01*
X125448824Y-99402812D01*
X125414200Y-99228741D01*
X125414200Y-99051259D01*
X125448824Y-98877188D01*
X125516744Y-98713216D01*
X125615347Y-98565646D01*
X125740846Y-98440147D01*
X125888416Y-98341544D01*
X126052388Y-98273624D01*
X126201688Y-98243927D01*
X126226458Y-98239000D01*
X126403942Y-98239000D01*
X126428712Y-98243927D01*
G37*
G36*
X123888712Y-98243927D02*
G01*
X124038012Y-98273624D01*
X124201984Y-98341544D01*
X124349554Y-98440147D01*
X124475053Y-98565646D01*
X124573656Y-98713216D01*
X124641576Y-98877188D01*
X124676200Y-99051259D01*
X124676200Y-99228741D01*
X124641576Y-99402812D01*
X124573656Y-99566784D01*
X124475053Y-99714354D01*
X124349554Y-99839853D01*
X124201984Y-99938456D01*
X124038012Y-100006376D01*
X123888712Y-100036073D01*
X123863942Y-100041000D01*
X123686458Y-100041000D01*
X123661688Y-100036073D01*
X123512388Y-100006376D01*
X123348416Y-99938456D01*
X123200846Y-99839853D01*
X123075347Y-99714354D01*
X122976744Y-99566784D01*
X122908824Y-99402812D01*
X122874200Y-99228741D01*
X122874200Y-99051259D01*
X122908824Y-98877188D01*
X122976744Y-98713216D01*
X123075347Y-98565646D01*
X123200846Y-98440147D01*
X123348416Y-98341544D01*
X123512388Y-98273624D01*
X123661688Y-98243927D01*
X123686458Y-98239000D01*
X123863942Y-98239000D01*
X123888712Y-98243927D01*
G37*
G36*
X122136200Y-100041000D02*
G01*
X120334200Y-100041000D01*
X120334200Y-98239000D01*
X122136200Y-98239000D01*
X122136200Y-100041000D01*
G37*
G36*
X156910433Y-95602893D02*
G01*
X157000657Y-95620839D01*
X157106267Y-95664585D01*
X157255621Y-95726449D01*
X157255622Y-95726450D01*
X157485086Y-95879772D01*
X157680228Y-96074914D01*
X157735980Y-96158353D01*
X157833551Y-96304379D01*
X157939161Y-96559344D01*
X157993000Y-96830012D01*
X157993000Y-97105988D01*
X157939161Y-97376656D01*
X157833551Y-97631621D01*
X157833550Y-97631622D01*
X157680228Y-97861086D01*
X157485086Y-98056228D01*
X157331763Y-98158675D01*
X157255621Y-98209551D01*
X157106267Y-98271415D01*
X157000657Y-98315161D01*
X156910433Y-98333107D01*
X156729988Y-98369000D01*
X156454012Y-98369000D01*
X156273567Y-98333107D01*
X156183343Y-98315161D01*
X156077733Y-98271415D01*
X155928379Y-98209551D01*
X155852237Y-98158675D01*
X155698914Y-98056228D01*
X155503772Y-97861086D01*
X155350450Y-97631622D01*
X155350449Y-97631621D01*
X155244839Y-97376656D01*
X155191000Y-97105988D01*
X155191000Y-96830012D01*
X155244839Y-96559344D01*
X155350449Y-96304379D01*
X155448020Y-96158353D01*
X155503772Y-96074914D01*
X155698914Y-95879772D01*
X155928378Y-95726450D01*
X155928379Y-95726449D01*
X156077733Y-95664585D01*
X156183343Y-95620839D01*
X156273567Y-95602893D01*
X156454012Y-95567000D01*
X156729988Y-95567000D01*
X156910433Y-95602893D01*
G37*
G36*
X98910433Y-95602893D02*
G01*
X99000657Y-95620839D01*
X99106267Y-95664585D01*
X99255621Y-95726449D01*
X99255622Y-95726450D01*
X99485086Y-95879772D01*
X99680228Y-96074914D01*
X99735980Y-96158353D01*
X99833551Y-96304379D01*
X99939161Y-96559344D01*
X99993000Y-96830012D01*
X99993000Y-97105988D01*
X99939161Y-97376656D01*
X99833551Y-97631621D01*
X99833550Y-97631622D01*
X99680228Y-97861086D01*
X99485086Y-98056228D01*
X99331763Y-98158675D01*
X99255621Y-98209551D01*
X99106267Y-98271415D01*
X99000657Y-98315161D01*
X98910433Y-98333107D01*
X98729988Y-98369000D01*
X98454012Y-98369000D01*
X98273567Y-98333107D01*
X98183343Y-98315161D01*
X98077733Y-98271415D01*
X97928379Y-98209551D01*
X97852237Y-98158675D01*
X97698914Y-98056228D01*
X97503772Y-97861086D01*
X97350450Y-97631622D01*
X97350449Y-97631621D01*
X97244839Y-97376656D01*
X97191000Y-97105988D01*
X97191000Y-96830012D01*
X97244839Y-96559344D01*
X97350449Y-96304379D01*
X97448020Y-96158353D01*
X97503772Y-96074914D01*
X97698914Y-95879772D01*
X97928378Y-95726450D01*
X97928379Y-95726449D01*
X98077733Y-95664585D01*
X98183343Y-95620839D01*
X98273567Y-95602893D01*
X98454012Y-95567000D01*
X98729988Y-95567000D01*
X98910433Y-95602893D01*
G37*
G36*
X149085512Y-94687927D02*
G01*
X149234812Y-94717624D01*
X149398784Y-94785544D01*
X149546354Y-94884147D01*
X149671853Y-95009646D01*
X149770456Y-95157216D01*
X149838376Y-95321188D01*
X149873000Y-95495259D01*
X149873000Y-95672741D01*
X149838376Y-95846812D01*
X149770456Y-96010784D01*
X149671853Y-96158354D01*
X149546354Y-96283853D01*
X149398784Y-96382456D01*
X149234812Y-96450376D01*
X149085512Y-96480073D01*
X149060742Y-96485000D01*
X148883258Y-96485000D01*
X148858488Y-96480073D01*
X148709188Y-96450376D01*
X148545216Y-96382456D01*
X148397646Y-96283853D01*
X148272147Y-96158354D01*
X148173544Y-96010784D01*
X148105624Y-95846812D01*
X148071000Y-95672741D01*
X148071000Y-95495259D01*
X148105624Y-95321188D01*
X148173544Y-95157216D01*
X148272147Y-95009646D01*
X148397646Y-94884147D01*
X148545216Y-94785544D01*
X148709188Y-94717624D01*
X148858488Y-94687927D01*
X148883258Y-94683000D01*
X149060742Y-94683000D01*
X149085512Y-94687927D01*
G37*
G36*
X151625512Y-94687927D02*
G01*
X151774812Y-94717624D01*
X151938784Y-94785544D01*
X152086354Y-94884147D01*
X152211853Y-95009646D01*
X152310456Y-95157216D01*
X152378376Y-95321188D01*
X152413000Y-95495259D01*
X152413000Y-95672741D01*
X152378376Y-95846812D01*
X152310456Y-96010784D01*
X152211853Y-96158354D01*
X152086354Y-96283853D01*
X151938784Y-96382456D01*
X151774812Y-96450376D01*
X151625512Y-96480073D01*
X151600742Y-96485000D01*
X151423258Y-96485000D01*
X151398488Y-96480073D01*
X151249188Y-96450376D01*
X151085216Y-96382456D01*
X150937646Y-96283853D01*
X150812147Y-96158354D01*
X150713544Y-96010784D01*
X150645624Y-95846812D01*
X150611000Y-95672741D01*
X150611000Y-95495259D01*
X150645624Y-95321188D01*
X150713544Y-95157216D01*
X150812147Y-95009646D01*
X150937646Y-94884147D01*
X151085216Y-94785544D01*
X151249188Y-94717624D01*
X151398488Y-94687927D01*
X151423258Y-94683000D01*
X151600742Y-94683000D01*
X151625512Y-94687927D01*
G37*
G36*
X146545512Y-94687927D02*
G01*
X146694812Y-94717624D01*
X146858784Y-94785544D01*
X147006354Y-94884147D01*
X147131853Y-95009646D01*
X147230456Y-95157216D01*
X147298376Y-95321188D01*
X147333000Y-95495259D01*
X147333000Y-95672741D01*
X147298376Y-95846812D01*
X147230456Y-96010784D01*
X147131853Y-96158354D01*
X147006354Y-96283853D01*
X146858784Y-96382456D01*
X146694812Y-96450376D01*
X146545512Y-96480073D01*
X146520742Y-96485000D01*
X146343258Y-96485000D01*
X146318488Y-96480073D01*
X146169188Y-96450376D01*
X146005216Y-96382456D01*
X145857646Y-96283853D01*
X145732147Y-96158354D01*
X145633544Y-96010784D01*
X145565624Y-95846812D01*
X145531000Y-95672741D01*
X145531000Y-95495259D01*
X145565624Y-95321188D01*
X145633544Y-95157216D01*
X145732147Y-95009646D01*
X145857646Y-94884147D01*
X146005216Y-94785544D01*
X146169188Y-94717624D01*
X146318488Y-94687927D01*
X146343258Y-94683000D01*
X146520742Y-94683000D01*
X146545512Y-94687927D01*
G37*
G36*
X144005512Y-94687927D02*
G01*
X144154812Y-94717624D01*
X144318784Y-94785544D01*
X144466354Y-94884147D01*
X144591853Y-95009646D01*
X144690456Y-95157216D01*
X144758376Y-95321188D01*
X144793000Y-95495259D01*
X144793000Y-95672741D01*
X144758376Y-95846812D01*
X144690456Y-96010784D01*
X144591853Y-96158354D01*
X144466354Y-96283853D01*
X144318784Y-96382456D01*
X144154812Y-96450376D01*
X144005512Y-96480073D01*
X143980742Y-96485000D01*
X143803258Y-96485000D01*
X143778488Y-96480073D01*
X143629188Y-96450376D01*
X143465216Y-96382456D01*
X143317646Y-96283853D01*
X143192147Y-96158354D01*
X143093544Y-96010784D01*
X143025624Y-95846812D01*
X142991000Y-95672741D01*
X142991000Y-95495259D01*
X143025624Y-95321188D01*
X143093544Y-95157216D01*
X143192147Y-95009646D01*
X143317646Y-94884147D01*
X143465216Y-94785544D01*
X143629188Y-94717624D01*
X143778488Y-94687927D01*
X143803258Y-94683000D01*
X143980742Y-94683000D01*
X144005512Y-94687927D01*
G37*
G36*
X141465512Y-94687927D02*
G01*
X141614812Y-94717624D01*
X141778784Y-94785544D01*
X141926354Y-94884147D01*
X142051853Y-95009646D01*
X142150456Y-95157216D01*
X142218376Y-95321188D01*
X142253000Y-95495259D01*
X142253000Y-95672741D01*
X142218376Y-95846812D01*
X142150456Y-96010784D01*
X142051853Y-96158354D01*
X141926354Y-96283853D01*
X141778784Y-96382456D01*
X141614812Y-96450376D01*
X141465512Y-96480073D01*
X141440742Y-96485000D01*
X141263258Y-96485000D01*
X141238488Y-96480073D01*
X141089188Y-96450376D01*
X140925216Y-96382456D01*
X140777646Y-96283853D01*
X140652147Y-96158354D01*
X140553544Y-96010784D01*
X140485624Y-95846812D01*
X140451000Y-95672741D01*
X140451000Y-95495259D01*
X140485624Y-95321188D01*
X140553544Y-95157216D01*
X140652147Y-95009646D01*
X140777646Y-94884147D01*
X140925216Y-94785544D01*
X141089188Y-94717624D01*
X141238488Y-94687927D01*
X141263258Y-94683000D01*
X141440742Y-94683000D01*
X141465512Y-94687927D01*
G37*
G36*
X139713000Y-96485000D02*
G01*
X137911000Y-96485000D01*
X137911000Y-94683000D01*
X139713000Y-94683000D01*
X139713000Y-96485000D01*
G37*
G36*
X119113512Y-94687927D02*
G01*
X119262812Y-94717624D01*
X119426784Y-94785544D01*
X119574354Y-94884147D01*
X119699853Y-95009646D01*
X119798456Y-95157216D01*
X119866376Y-95321188D01*
X119901000Y-95495259D01*
X119901000Y-95672741D01*
X119866376Y-95846812D01*
X119798456Y-96010784D01*
X119699853Y-96158354D01*
X119574354Y-96283853D01*
X119426784Y-96382456D01*
X119262812Y-96450376D01*
X119113512Y-96480073D01*
X119088742Y-96485000D01*
X118911258Y-96485000D01*
X118886488Y-96480073D01*
X118737188Y-96450376D01*
X118573216Y-96382456D01*
X118425646Y-96283853D01*
X118300147Y-96158354D01*
X118201544Y-96010784D01*
X118133624Y-95846812D01*
X118099000Y-95672741D01*
X118099000Y-95495259D01*
X118133624Y-95321188D01*
X118201544Y-95157216D01*
X118300147Y-95009646D01*
X118425646Y-94884147D01*
X118573216Y-94785544D01*
X118737188Y-94717624D01*
X118886488Y-94687927D01*
X118911258Y-94683000D01*
X119088742Y-94683000D01*
X119113512Y-94687927D01*
G37*
G36*
X123965000Y-96485000D02*
G01*
X122163000Y-96485000D01*
X122163000Y-94683000D01*
X123965000Y-94683000D01*
X123965000Y-96485000D01*
G37*
G36*
X104661000Y-96485000D02*
G01*
X102859000Y-96485000D01*
X102859000Y-94683000D01*
X104661000Y-94683000D01*
X104661000Y-96485000D01*
G37*
G36*
X106413512Y-94687927D02*
G01*
X106562812Y-94717624D01*
X106726784Y-94785544D01*
X106874354Y-94884147D01*
X106999853Y-95009646D01*
X107098456Y-95157216D01*
X107166376Y-95321188D01*
X107201000Y-95495259D01*
X107201000Y-95672741D01*
X107166376Y-95846812D01*
X107098456Y-96010784D01*
X106999853Y-96158354D01*
X106874354Y-96283853D01*
X106726784Y-96382456D01*
X106562812Y-96450376D01*
X106413512Y-96480073D01*
X106388742Y-96485000D01*
X106211258Y-96485000D01*
X106186488Y-96480073D01*
X106037188Y-96450376D01*
X105873216Y-96382456D01*
X105725646Y-96283853D01*
X105600147Y-96158354D01*
X105501544Y-96010784D01*
X105433624Y-95846812D01*
X105399000Y-95672741D01*
X105399000Y-95495259D01*
X105433624Y-95321188D01*
X105501544Y-95157216D01*
X105600147Y-95009646D01*
X105725646Y-94884147D01*
X105873216Y-94785544D01*
X106037188Y-94717624D01*
X106186488Y-94687927D01*
X106211258Y-94683000D01*
X106388742Y-94683000D01*
X106413512Y-94687927D01*
G37*
G36*
X125717512Y-94687927D02*
G01*
X125866812Y-94717624D01*
X126030784Y-94785544D01*
X126178354Y-94884147D01*
X126303853Y-95009646D01*
X126402456Y-95157216D01*
X126470376Y-95321188D01*
X126505000Y-95495259D01*
X126505000Y-95672741D01*
X126470376Y-95846812D01*
X126402456Y-96010784D01*
X126303853Y-96158354D01*
X126178354Y-96283853D01*
X126030784Y-96382456D01*
X125866812Y-96450376D01*
X125717512Y-96480073D01*
X125692742Y-96485000D01*
X125515258Y-96485000D01*
X125490488Y-96480073D01*
X125341188Y-96450376D01*
X125177216Y-96382456D01*
X125029646Y-96283853D01*
X124904147Y-96158354D01*
X124805544Y-96010784D01*
X124737624Y-95846812D01*
X124703000Y-95672741D01*
X124703000Y-95495259D01*
X124737624Y-95321188D01*
X124805544Y-95157216D01*
X124904147Y-95009646D01*
X125029646Y-94884147D01*
X125177216Y-94785544D01*
X125341188Y-94717624D01*
X125490488Y-94687927D01*
X125515258Y-94683000D01*
X125692742Y-94683000D01*
X125717512Y-94687927D01*
G37*
G36*
X111493512Y-94687927D02*
G01*
X111642812Y-94717624D01*
X111806784Y-94785544D01*
X111954354Y-94884147D01*
X112079853Y-95009646D01*
X112178456Y-95157216D01*
X112246376Y-95321188D01*
X112281000Y-95495259D01*
X112281000Y-95672741D01*
X112246376Y-95846812D01*
X112178456Y-96010784D01*
X112079853Y-96158354D01*
X111954354Y-96283853D01*
X111806784Y-96382456D01*
X111642812Y-96450376D01*
X111493512Y-96480073D01*
X111468742Y-96485000D01*
X111291258Y-96485000D01*
X111266488Y-96480073D01*
X111117188Y-96450376D01*
X110953216Y-96382456D01*
X110805646Y-96283853D01*
X110680147Y-96158354D01*
X110581544Y-96010784D01*
X110513624Y-95846812D01*
X110479000Y-95672741D01*
X110479000Y-95495259D01*
X110513624Y-95321188D01*
X110581544Y-95157216D01*
X110680147Y-95009646D01*
X110805646Y-94884147D01*
X110953216Y-94785544D01*
X111117188Y-94717624D01*
X111266488Y-94687927D01*
X111291258Y-94683000D01*
X111468742Y-94683000D01*
X111493512Y-94687927D01*
G37*
G36*
X114033512Y-94687927D02*
G01*
X114182812Y-94717624D01*
X114346784Y-94785544D01*
X114494354Y-94884147D01*
X114619853Y-95009646D01*
X114718456Y-95157216D01*
X114786376Y-95321188D01*
X114821000Y-95495259D01*
X114821000Y-95672741D01*
X114786376Y-95846812D01*
X114718456Y-96010784D01*
X114619853Y-96158354D01*
X114494354Y-96283853D01*
X114346784Y-96382456D01*
X114182812Y-96450376D01*
X114033512Y-96480073D01*
X114008742Y-96485000D01*
X113831258Y-96485000D01*
X113806488Y-96480073D01*
X113657188Y-96450376D01*
X113493216Y-96382456D01*
X113345646Y-96283853D01*
X113220147Y-96158354D01*
X113121544Y-96010784D01*
X113053624Y-95846812D01*
X113019000Y-95672741D01*
X113019000Y-95495259D01*
X113053624Y-95321188D01*
X113121544Y-95157216D01*
X113220147Y-95009646D01*
X113345646Y-94884147D01*
X113493216Y-94785544D01*
X113657188Y-94717624D01*
X113806488Y-94687927D01*
X113831258Y-94683000D01*
X114008742Y-94683000D01*
X114033512Y-94687927D01*
G37*
G36*
X116573512Y-94687927D02*
G01*
X116722812Y-94717624D01*
X116886784Y-94785544D01*
X117034354Y-94884147D01*
X117159853Y-95009646D01*
X117258456Y-95157216D01*
X117326376Y-95321188D01*
X117361000Y-95495259D01*
X117361000Y-95672741D01*
X117326376Y-95846812D01*
X117258456Y-96010784D01*
X117159853Y-96158354D01*
X117034354Y-96283853D01*
X116886784Y-96382456D01*
X116722812Y-96450376D01*
X116573512Y-96480073D01*
X116548742Y-96485000D01*
X116371258Y-96485000D01*
X116346488Y-96480073D01*
X116197188Y-96450376D01*
X116033216Y-96382456D01*
X115885646Y-96283853D01*
X115760147Y-96158354D01*
X115661544Y-96010784D01*
X115593624Y-95846812D01*
X115559000Y-95672741D01*
X115559000Y-95495259D01*
X115593624Y-95321188D01*
X115661544Y-95157216D01*
X115760147Y-95009646D01*
X115885646Y-94884147D01*
X116033216Y-94785544D01*
X116197188Y-94717624D01*
X116346488Y-94687927D01*
X116371258Y-94683000D01*
X116548742Y-94683000D01*
X116573512Y-94687927D01*
G37*
G36*
X130569000Y-96485000D02*
G01*
X128767000Y-96485000D01*
X128767000Y-94683000D01*
X130569000Y-94683000D01*
X130569000Y-96485000D01*
G37*
G36*
X132321512Y-94687927D02*
G01*
X132470812Y-94717624D01*
X132634784Y-94785544D01*
X132782354Y-94884147D01*
X132907853Y-95009646D01*
X133006456Y-95157216D01*
X133074376Y-95321188D01*
X133109000Y-95495259D01*
X133109000Y-95672741D01*
X133074376Y-95846812D01*
X133006456Y-96010784D01*
X132907853Y-96158354D01*
X132782354Y-96283853D01*
X132634784Y-96382456D01*
X132470812Y-96450376D01*
X132321512Y-96480073D01*
X132296742Y-96485000D01*
X132119258Y-96485000D01*
X132094488Y-96480073D01*
X131945188Y-96450376D01*
X131781216Y-96382456D01*
X131633646Y-96283853D01*
X131508147Y-96158354D01*
X131409544Y-96010784D01*
X131341624Y-95846812D01*
X131307000Y-95672741D01*
X131307000Y-95495259D01*
X131341624Y-95321188D01*
X131409544Y-95157216D01*
X131508147Y-95009646D01*
X131633646Y-94884147D01*
X131781216Y-94785544D01*
X131945188Y-94717624D01*
X132094488Y-94687927D01*
X132119258Y-94683000D01*
X132296742Y-94683000D01*
X132321512Y-94687927D01*
G37*
G36*
X134861512Y-94687927D02*
G01*
X135010812Y-94717624D01*
X135174784Y-94785544D01*
X135322354Y-94884147D01*
X135447853Y-95009646D01*
X135546456Y-95157216D01*
X135614376Y-95321188D01*
X135649000Y-95495259D01*
X135649000Y-95672741D01*
X135614376Y-95846812D01*
X135546456Y-96010784D01*
X135447853Y-96158354D01*
X135322354Y-96283853D01*
X135174784Y-96382456D01*
X135010812Y-96450376D01*
X134861512Y-96480073D01*
X134836742Y-96485000D01*
X134659258Y-96485000D01*
X134634488Y-96480073D01*
X134485188Y-96450376D01*
X134321216Y-96382456D01*
X134173646Y-96283853D01*
X134048147Y-96158354D01*
X133949544Y-96010784D01*
X133881624Y-95846812D01*
X133847000Y-95672741D01*
X133847000Y-95495259D01*
X133881624Y-95321188D01*
X133949544Y-95157216D01*
X134048147Y-95009646D01*
X134173646Y-94884147D01*
X134321216Y-94785544D01*
X134485188Y-94717624D01*
X134634488Y-94687927D01*
X134659258Y-94683000D01*
X134836742Y-94683000D01*
X134861512Y-94687927D01*
G37*
G36*
X108953512Y-94687927D02*
G01*
X109102812Y-94717624D01*
X109266784Y-94785544D01*
X109414354Y-94884147D01*
X109539853Y-95009646D01*
X109638456Y-95157216D01*
X109706376Y-95321188D01*
X109741000Y-95495259D01*
X109741000Y-95672741D01*
X109706376Y-95846812D01*
X109638456Y-96010784D01*
X109539853Y-96158354D01*
X109414354Y-96283853D01*
X109266784Y-96382456D01*
X109102812Y-96450376D01*
X108953512Y-96480073D01*
X108928742Y-96485000D01*
X108751258Y-96485000D01*
X108726488Y-96480073D01*
X108577188Y-96450376D01*
X108413216Y-96382456D01*
X108265646Y-96283853D01*
X108140147Y-96158354D01*
X108041544Y-96010784D01*
X107973624Y-95846812D01*
X107939000Y-95672741D01*
X107939000Y-95495259D01*
X107973624Y-95321188D01*
X108041544Y-95157216D01*
X108140147Y-95009646D01*
X108265646Y-94884147D01*
X108413216Y-94785544D01*
X108577188Y-94717624D01*
X108726488Y-94687927D01*
X108751258Y-94683000D01*
X108928742Y-94683000D01*
X108953512Y-94687927D01*
G37*
M02*
