M48
; DRILL file {KiCad (5.1.5-0-10_14)} date 2020 February 24, Monday 01:19:32
; FORMAT={-:-/ absolute / inch / decimal}
; #@! TF.CreationDate,2020-02-24T01:19:32+01:00
; #@! TF.GenerationSoftware,Kicad,Pcbnew,(5.1.5-0-10_14)
; #@! TF.FileFunction,Plated,1,2,PTH
FMAT,2
INCH
T1C0.0157
T2C0.0315
T3C0.0354
T4C0.0394
T5C0.0512
%
G90
G05
T1
X4.095Y-4.0831
X4.434Y-3.9801
X4.611Y-4.3755
X4.625Y-3.9131
X4.662Y-4.1891
X4.705Y-3.838
X4.9186Y-4.3166
X4.935Y-4.0731
X4.965Y-4.1831
X5.12Y-4.3755
X5.164Y-4.2851
X5.1908Y-4.1517
X5.2478Y-3.9731
X5.261Y-3.8271
X5.285Y-4.1031
X5.295Y-4.2441
X5.338Y-4.1251
X5.388Y-4.2481
X5.405Y-4.4431
X5.505Y-4.5231
X5.535Y-3.9331
T2
X5.219Y-4.5551
X5.619Y-4.5551
X5.4871Y-4.1727
X5.4871Y-4.2711
X5.4871Y-4.3696
X5.613Y-4.1727
X5.613Y-4.2711
X5.613Y-4.3696
T3
X5.0233Y-4.4523
X5.0233Y-4.5523
T4
X5.912Y-4.3711
X6.012Y-4.3711
X4.085Y-3.7631
X4.185Y-3.7631
X4.285Y-3.7631
X4.385Y-3.7631
X4.485Y-3.7631
X4.585Y-3.7631
X4.685Y-3.7631
X4.028Y-4.3691
X4.128Y-4.3691
X5.105Y-3.7631
X5.205Y-3.7631
X5.305Y-3.7631
X4.0733Y-4.6731
X4.0733Y-4.7731
X4.1733Y-4.6731
X4.1733Y-4.7731
X4.2733Y-4.6731
X4.2733Y-4.7731
X4.3733Y-4.6731
X4.3733Y-4.7731
X4.4733Y-4.6731
X4.4733Y-4.7731
X4.5733Y-4.6731
X4.5733Y-4.7731
X4.6733Y-4.6731
X4.6733Y-4.7731
X4.7733Y-4.6731
X4.7733Y-4.7731
X4.8733Y-4.6731
X4.8733Y-4.7731
X4.9733Y-4.6731
X4.9733Y-4.7731
X5.0733Y-4.6731
X5.0733Y-4.7731
X5.1733Y-4.6731
X5.1733Y-4.7731
X5.2733Y-4.6731
X5.2733Y-4.7731
X5.3733Y-4.6731
X5.3733Y-4.7731
X5.4733Y-4.6731
X5.4733Y-4.7731
X5.5733Y-4.6731
X5.5733Y-4.7731
X5.6733Y-4.6731
X5.6733Y-4.7731
X5.7733Y-4.6731
X5.7733Y-4.7731
X5.8733Y-4.6731
X5.8733Y-4.7731
X5.9733Y-4.6731
X5.9733Y-4.7731
X5.2226Y-4.4411
X5.321Y-4.4411
X4.845Y-3.7631
X4.945Y-3.7631
X4.773Y-3.9031
X4.873Y-3.9031
X4.973Y-3.9031
X5.073Y-3.9031
X5.173Y-3.9031
X5.273Y-3.9031
X4.525Y-4.0231
X4.525Y-4.1231
X4.525Y-4.2231
X4.525Y-4.3231
X4.525Y-4.4231
X4.525Y-4.5231
X5.465Y-3.7631
X5.565Y-3.7631
X5.665Y-3.7631
X5.765Y-3.7631
X5.865Y-3.7631
X5.965Y-3.7631
T5
X3.825Y-4.1731
X3.825Y-4.37
X4.3172Y-4.1731
X4.3172Y-4.37
X5.7329Y-4.1731
X5.7329Y-4.37
X6.225Y-4.1731
X6.225Y-4.37
T0
M30
