%TF.GenerationSoftware,KiCad,Pcbnew,(5.1.5-0-10_14)*%
%TF.CreationDate,2020-02-24T01:19:29+01:00*%
%TF.ProjectId,raspberrypi_zerow_uhat,72617370-6265-4727-9279-70695f7a6572,1.0*%
%TF.SameCoordinates,Original*%
%TF.FileFunction,Legend,Bot*%
%TF.FilePolarity,Positive*%
%FSLAX46Y46*%
G04 Gerber Fmt 4.6, Leading zero omitted, Abs format (unit mm)*
G04 Created by KiCad (PCBNEW (5.1.5-0-10_14)) date 2020-02-24 01:19:29*
%MOMM*%
%LPD*%
G04 APERTURE LIST*
%ADD10C,0.150000*%
%ADD11C,0.125000*%
%ADD12C,0.120000*%
G04 APERTURE END LIST*
D10*
X97410000Y-102442000D02*
X97410000Y-102188000D01*
X109602000Y-102188000D02*
X97410000Y-102188000D01*
X109602000Y-114634000D02*
X109602000Y-102188000D01*
X97410000Y-114634000D02*
X109602000Y-114634000D01*
X97410000Y-102442000D02*
X97410000Y-114634000D01*
X158116000Y-102442000D02*
X145670000Y-102442000D01*
X158116000Y-114634000D02*
X158116000Y-102442000D01*
X145670000Y-114634000D02*
X158116000Y-114634000D01*
X145670000Y-102442000D02*
X145670000Y-114634000D01*
X135256000Y-97870000D02*
X122556000Y-97870000D01*
X135256000Y-100410000D02*
X135256000Y-97870000D01*
X122556000Y-100410000D02*
X135256000Y-100410000D01*
X122556000Y-97870000D02*
X122556000Y-100410000D01*
X120016000Y-100410000D02*
X121032000Y-100410000D01*
X120016000Y-99394000D02*
X120016000Y-100410000D01*
X138812000Y-113110000D02*
X139574000Y-113110000D01*
X138812000Y-112348000D02*
X138812000Y-113110000D01*
X142876000Y-104220000D02*
X139320000Y-104220000D01*
X142876000Y-112856000D02*
X142876000Y-104220000D01*
X139320000Y-112856000D02*
X142876000Y-112856000D01*
X139320000Y-104220000D02*
X139320000Y-112856000D01*
X116206000Y-103458000D02*
X113666000Y-103458000D01*
X116206000Y-116158000D02*
X116206000Y-103458000D01*
X113666000Y-116158000D02*
X116206000Y-116158000D01*
X113666000Y-103458000D02*
X113666000Y-116158000D01*
X113666000Y-100918000D02*
X113666000Y-101680000D01*
X114936000Y-100918000D02*
X113666000Y-100918000D01*
X120270000Y-96854000D02*
X105030000Y-96854000D01*
X120270000Y-94314000D02*
X120270000Y-96854000D01*
X105030000Y-94314000D02*
X120270000Y-94314000D01*
X105030000Y-96854000D02*
X105030000Y-94314000D01*
X102490000Y-96854000D02*
X103760000Y-96854000D01*
X102490000Y-95584000D02*
X102490000Y-96854000D01*
X126874000Y-96854000D02*
X124334000Y-96854000D01*
X126874000Y-94314000D02*
X126874000Y-96854000D01*
X124334000Y-94314000D02*
X126874000Y-94314000D01*
X124334000Y-96854000D02*
X124334000Y-94314000D01*
X121794000Y-96854000D02*
X123064000Y-96854000D01*
X121794000Y-95584000D02*
X121794000Y-96854000D01*
X136018000Y-96854000D02*
X130938000Y-96854000D01*
X136018000Y-94314000D02*
X136018000Y-96854000D01*
X130938000Y-94314000D02*
X136018000Y-94314000D01*
X130938000Y-96854000D02*
X130938000Y-94314000D01*
X128398000Y-96854000D02*
X129668000Y-96854000D01*
X128398000Y-95584000D02*
X128398000Y-96854000D01*
X152782000Y-96854000D02*
X140082000Y-96854000D01*
X152782000Y-94314000D02*
X152782000Y-96854000D01*
X140082000Y-94314000D02*
X152782000Y-94314000D01*
X140082000Y-96854000D02*
X140082000Y-94314000D01*
X137415000Y-96930200D02*
X139066000Y-96930200D01*
X137415000Y-95609400D02*
X137415000Y-96930200D01*
X109143161Y-97782285D02*
X109190780Y-97925142D01*
X109190780Y-98163238D01*
X109143161Y-98258476D01*
X109095542Y-98306095D01*
X109000304Y-98353714D01*
X108905066Y-98353714D01*
X108809828Y-98306095D01*
X108762209Y-98258476D01*
X108714590Y-98163238D01*
X108666971Y-97972761D01*
X108619352Y-97877523D01*
X108571733Y-97829904D01*
X108476495Y-97782285D01*
X108381257Y-97782285D01*
X108286019Y-97829904D01*
X108238400Y-97877523D01*
X108190780Y-97972761D01*
X108190780Y-98210857D01*
X108238400Y-98353714D01*
X109190780Y-98782285D02*
X108190780Y-98782285D01*
X108190780Y-99020380D01*
X108238400Y-99163238D01*
X108333638Y-99258476D01*
X108428876Y-99306095D01*
X108619352Y-99353714D01*
X108762209Y-99353714D01*
X108952685Y-99306095D01*
X109047923Y-99258476D01*
X109143161Y-99163238D01*
X109190780Y-99020380D01*
X109190780Y-98782285D01*
X105749200Y-98047895D02*
X105701580Y-97952657D01*
X105701580Y-97809800D01*
X105749200Y-97666942D01*
X105844438Y-97571704D01*
X105939676Y-97524085D01*
X106130152Y-97476466D01*
X106273009Y-97476466D01*
X106463485Y-97524085D01*
X106558723Y-97571704D01*
X106653961Y-97666942D01*
X106701580Y-97809800D01*
X106701580Y-97905038D01*
X106653961Y-98047895D01*
X106606342Y-98095514D01*
X106273009Y-98095514D01*
X106273009Y-97905038D01*
X106701580Y-98524085D02*
X105701580Y-98524085D01*
X106701580Y-99095514D01*
X105701580Y-99095514D01*
X106701580Y-99571704D02*
X105701580Y-99571704D01*
X105701580Y-99809800D01*
X105749200Y-99952657D01*
X105844438Y-100047895D01*
X105939676Y-100095514D01*
X106130152Y-100143133D01*
X106273009Y-100143133D01*
X106463485Y-100095514D01*
X106558723Y-100047895D01*
X106653961Y-99952657D01*
X106701580Y-99809800D01*
X106701580Y-99571704D01*
X114256504Y-97381257D02*
X113456504Y-97381257D01*
X113456504Y-97571733D01*
X113494600Y-97686019D01*
X113570790Y-97762209D01*
X113646980Y-97800304D01*
X113799361Y-97838400D01*
X113913647Y-97838400D01*
X114066028Y-97800304D01*
X114142219Y-97762209D01*
X114218409Y-97686019D01*
X114256504Y-97571733D01*
X114256504Y-97381257D01*
X114332695Y-97990780D02*
X114332695Y-98600304D01*
X113456504Y-98943161D02*
X113456504Y-99095542D01*
X113494600Y-99171733D01*
X113570790Y-99247923D01*
X113723171Y-99286019D01*
X113989838Y-99286019D01*
X114142219Y-99247923D01*
X114218409Y-99171733D01*
X114256504Y-99095542D01*
X114256504Y-98943161D01*
X114218409Y-98866971D01*
X114142219Y-98790780D01*
X113989838Y-98752685D01*
X113723171Y-98752685D01*
X113570790Y-98790780D01*
X113494600Y-98866971D01*
X113456504Y-98943161D01*
X113456504Y-99628876D02*
X114104123Y-99628876D01*
X114180314Y-99666971D01*
X114218409Y-99705066D01*
X114256504Y-99781257D01*
X114256504Y-99933638D01*
X114218409Y-100009828D01*
X114180314Y-100047923D01*
X114104123Y-100086019D01*
X113456504Y-100086019D01*
X113456504Y-100352685D02*
X113456504Y-100809828D01*
X114256504Y-100581257D02*
X113456504Y-100581257D01*
X119477780Y-97941523D02*
X119477780Y-97465333D01*
X118477780Y-97465333D01*
X119477780Y-98846285D02*
X119001590Y-98512952D01*
X119477780Y-98274857D02*
X118477780Y-98274857D01*
X118477780Y-98655809D01*
X118525400Y-98751047D01*
X118573019Y-98798666D01*
X118668257Y-98846285D01*
X118811114Y-98846285D01*
X118906352Y-98798666D01*
X118953971Y-98751047D01*
X119001590Y-98655809D01*
X119001590Y-98274857D01*
X119382542Y-99846285D02*
X119430161Y-99798666D01*
X119477780Y-99655809D01*
X119477780Y-99560571D01*
X119430161Y-99417714D01*
X119334923Y-99322476D01*
X119239685Y-99274857D01*
X119049209Y-99227238D01*
X118906352Y-99227238D01*
X118715876Y-99274857D01*
X118620638Y-99322476D01*
X118525400Y-99417714D01*
X118477780Y-99560571D01*
X118477780Y-99655809D01*
X118525400Y-99798666D01*
X118573019Y-99846285D01*
X110676800Y-98139428D02*
X110629180Y-98044190D01*
X110629180Y-97901333D01*
X110676800Y-97758476D01*
X110772038Y-97663238D01*
X110867276Y-97615619D01*
X111057752Y-97568000D01*
X111200609Y-97568000D01*
X111391085Y-97615619D01*
X111486323Y-97663238D01*
X111581561Y-97758476D01*
X111629180Y-97901333D01*
X111629180Y-97996571D01*
X111581561Y-98139428D01*
X111533942Y-98187047D01*
X111200609Y-98187047D01*
X111200609Y-97996571D01*
X111343466Y-98568000D02*
X111343466Y-99044190D01*
X111629180Y-98472761D02*
X110629180Y-98806095D01*
X111629180Y-99139428D01*
X111629180Y-99472761D02*
X110629180Y-99472761D01*
X111629180Y-99948952D02*
X110629180Y-99948952D01*
X111629180Y-100520380D01*
X110629180Y-100520380D01*
X116413971Y-97705066D02*
X116461590Y-97847923D01*
X116509209Y-97895542D01*
X116604447Y-97943161D01*
X116747304Y-97943161D01*
X116842542Y-97895542D01*
X116890161Y-97847923D01*
X116937780Y-97752685D01*
X116937780Y-97371733D01*
X115937780Y-97371733D01*
X115937780Y-97705066D01*
X115985400Y-97800304D01*
X116033019Y-97847923D01*
X116128257Y-97895542D01*
X116223495Y-97895542D01*
X116318733Y-97847923D01*
X116366352Y-97800304D01*
X116413971Y-97705066D01*
X116413971Y-97371733D01*
X116842542Y-98943161D02*
X116890161Y-98895542D01*
X116937780Y-98752685D01*
X116937780Y-98657447D01*
X116890161Y-98514590D01*
X116794923Y-98419352D01*
X116699685Y-98371733D01*
X116509209Y-98324114D01*
X116366352Y-98324114D01*
X116175876Y-98371733D01*
X116080638Y-98419352D01*
X115985400Y-98514590D01*
X115937780Y-98657447D01*
X115937780Y-98752685D01*
X115985400Y-98895542D01*
X116033019Y-98943161D01*
X116937780Y-99847923D02*
X116937780Y-99371733D01*
X115937780Y-99371733D01*
X116937780Y-100181257D02*
X115937780Y-100181257D01*
X116937780Y-100752685D02*
X116366352Y-100324114D01*
X115937780Y-100752685D02*
X116509209Y-100181257D01*
X112711742Y-112784571D02*
X112568885Y-112832190D01*
X112521266Y-112879809D01*
X112473647Y-112975047D01*
X112473647Y-113117904D01*
X112521266Y-113213142D01*
X112568885Y-113260761D01*
X112664123Y-113308380D01*
X113045076Y-113308380D01*
X113045076Y-112308380D01*
X112711742Y-112308380D01*
X112616504Y-112356000D01*
X112568885Y-112403619D01*
X112521266Y-112498857D01*
X112521266Y-112594095D01*
X112568885Y-112689333D01*
X112616504Y-112736952D01*
X112711742Y-112784571D01*
X113045076Y-112784571D01*
X112092695Y-113022666D02*
X111616504Y-113022666D01*
X112187933Y-113308380D02*
X111854600Y-112308380D01*
X111521266Y-113308380D01*
X111330790Y-112308380D02*
X110759361Y-112308380D01*
X111045076Y-113308380D02*
X111045076Y-112308380D01*
X110426028Y-112927428D02*
X109664123Y-112927428D01*
X112973647Y-114340380D02*
X112783171Y-114340380D01*
X112687933Y-114388000D01*
X112592695Y-114483238D01*
X112545076Y-114673714D01*
X112545076Y-115007047D01*
X112592695Y-115197523D01*
X112687933Y-115292761D01*
X112783171Y-115340380D01*
X112973647Y-115340380D01*
X113068885Y-115292761D01*
X113164123Y-115197523D01*
X113211742Y-115007047D01*
X113211742Y-114673714D01*
X113164123Y-114483238D01*
X113068885Y-114388000D01*
X112973647Y-114340380D01*
X112116504Y-114340380D02*
X112116504Y-115149904D01*
X112068885Y-115245142D01*
X112021266Y-115292761D01*
X111926028Y-115340380D01*
X111735552Y-115340380D01*
X111640314Y-115292761D01*
X111592695Y-115245142D01*
X111545076Y-115149904D01*
X111545076Y-114340380D01*
X111211742Y-114340380D02*
X110640314Y-114340380D01*
X110926028Y-115340380D02*
X110926028Y-114340380D01*
X110306980Y-114959428D02*
X109545076Y-114959428D01*
X113430847Y-101614980D02*
X113240371Y-101614980D01*
X113145133Y-101662600D01*
X113049895Y-101757838D01*
X113002276Y-101948314D01*
X113002276Y-102281647D01*
X113049895Y-102472123D01*
X113145133Y-102567361D01*
X113240371Y-102614980D01*
X113430847Y-102614980D01*
X113526085Y-102567361D01*
X113621323Y-102472123D01*
X113668942Y-102281647D01*
X113668942Y-101948314D01*
X113621323Y-101757838D01*
X113526085Y-101662600D01*
X113430847Y-101614980D01*
X112573704Y-101614980D02*
X112573704Y-102424504D01*
X112526085Y-102519742D01*
X112478466Y-102567361D01*
X112383228Y-102614980D01*
X112192752Y-102614980D01*
X112097514Y-102567361D01*
X112049895Y-102519742D01*
X112002276Y-102424504D01*
X112002276Y-101614980D01*
X111668942Y-101614980D02*
X111097514Y-101614980D01*
X111383228Y-102614980D02*
X111383228Y-101614980D01*
X110764180Y-102234028D02*
X110002276Y-102234028D01*
X110383228Y-102614980D02*
X110383228Y-101853076D01*
X113270542Y-103970771D02*
X113127685Y-104018390D01*
X113080066Y-104066009D01*
X113032447Y-104161247D01*
X113032447Y-104304104D01*
X113080066Y-104399342D01*
X113127685Y-104446961D01*
X113222923Y-104494580D01*
X113603876Y-104494580D01*
X113603876Y-103494580D01*
X113270542Y-103494580D01*
X113175304Y-103542200D01*
X113127685Y-103589819D01*
X113080066Y-103685057D01*
X113080066Y-103780295D01*
X113127685Y-103875533D01*
X113175304Y-103923152D01*
X113270542Y-103970771D01*
X113603876Y-103970771D01*
X112651495Y-104208866D02*
X112175304Y-104208866D01*
X112746733Y-104494580D02*
X112413400Y-103494580D01*
X112080066Y-104494580D01*
X111889590Y-103494580D02*
X111318161Y-103494580D01*
X111603876Y-104494580D02*
X111603876Y-103494580D01*
X110984828Y-104113628D02*
X110222923Y-104113628D01*
X110603876Y-104494580D02*
X110603876Y-103732676D01*
X112565895Y-106942619D02*
X113089704Y-107609285D01*
X112565895Y-107609285D02*
X113089704Y-106942619D01*
X112565895Y-109431819D02*
X113089704Y-110098485D01*
X112565895Y-110098485D02*
X113089704Y-109431819D01*
X125670466Y-115226200D02*
X125765704Y-115178580D01*
X125908561Y-115178580D01*
X126051419Y-115226200D01*
X126146657Y-115321438D01*
X126194276Y-115416676D01*
X126241895Y-115607152D01*
X126241895Y-115750009D01*
X126194276Y-115940485D01*
X126146657Y-116035723D01*
X126051419Y-116130961D01*
X125908561Y-116178580D01*
X125813323Y-116178580D01*
X125670466Y-116130961D01*
X125622847Y-116083342D01*
X125622847Y-115750009D01*
X125813323Y-115750009D01*
X124622847Y-116178580D02*
X124956180Y-115702390D01*
X125194276Y-116178580D02*
X125194276Y-115178580D01*
X124813323Y-115178580D01*
X124718085Y-115226200D01*
X124670466Y-115273819D01*
X124622847Y-115369057D01*
X124622847Y-115511914D01*
X124670466Y-115607152D01*
X124718085Y-115654771D01*
X124813323Y-115702390D01*
X125194276Y-115702390D01*
X124194276Y-115654771D02*
X123860942Y-115654771D01*
X123718085Y-116178580D02*
X124194276Y-116178580D01*
X124194276Y-115178580D01*
X123718085Y-115178580D01*
X123289514Y-115654771D02*
X122956180Y-115654771D01*
X122813323Y-116178580D02*
X123289514Y-116178580D01*
X123289514Y-115178580D01*
X122813323Y-115178580D01*
X122384752Y-116178580D02*
X122384752Y-115178580D01*
X121813323Y-116178580D01*
X121813323Y-115178580D01*
X125510257Y-113511580D02*
X125843590Y-113035390D01*
X126081685Y-113511580D02*
X126081685Y-112511580D01*
X125700733Y-112511580D01*
X125605495Y-112559200D01*
X125557876Y-112606819D01*
X125510257Y-112702057D01*
X125510257Y-112844914D01*
X125557876Y-112940152D01*
X125605495Y-112987771D01*
X125700733Y-113035390D01*
X126081685Y-113035390D01*
X125081685Y-112987771D02*
X124748352Y-112987771D01*
X124605495Y-113511580D02*
X125081685Y-113511580D01*
X125081685Y-112511580D01*
X124605495Y-112511580D01*
X124176923Y-113511580D02*
X124176923Y-112511580D01*
X123938828Y-112511580D01*
X123795971Y-112559200D01*
X123700733Y-112654438D01*
X123653114Y-112749676D01*
X123605495Y-112940152D01*
X123605495Y-113083009D01*
X123653114Y-113273485D01*
X123700733Y-113368723D01*
X123795971Y-113463961D01*
X123938828Y-113511580D01*
X124176923Y-113511580D01*
X157887209Y-116102380D02*
X157887209Y-115102380D01*
X157506257Y-115102380D01*
X157411019Y-115150000D01*
X157363400Y-115197619D01*
X157315780Y-115292857D01*
X157315780Y-115435714D01*
X157363400Y-115530952D01*
X157411019Y-115578571D01*
X157506257Y-115626190D01*
X157887209Y-115626190D01*
X156411019Y-116102380D02*
X156887209Y-116102380D01*
X156887209Y-115102380D01*
X156125304Y-115816666D02*
X155649114Y-115816666D01*
X156220542Y-116102380D02*
X155887209Y-115102380D01*
X155553876Y-116102380D01*
X155030066Y-115626190D02*
X155030066Y-116102380D01*
X155363400Y-115102380D02*
X155030066Y-115626190D01*
X154696733Y-115102380D01*
X99170457Y-116000780D02*
X99503790Y-115524590D01*
X99741885Y-116000780D02*
X99741885Y-115000780D01*
X99360933Y-115000780D01*
X99265695Y-115048400D01*
X99218076Y-115096019D01*
X99170457Y-115191257D01*
X99170457Y-115334114D01*
X99218076Y-115429352D01*
X99265695Y-115476971D01*
X99360933Y-115524590D01*
X99741885Y-115524590D01*
X98741885Y-115476971D02*
X98408552Y-115476971D01*
X98265695Y-116000780D02*
X98741885Y-116000780D01*
X98741885Y-115000780D01*
X98265695Y-115000780D01*
X97265695Y-115905542D02*
X97313314Y-115953161D01*
X97456171Y-116000780D01*
X97551409Y-116000780D01*
X97694266Y-115953161D01*
X97789504Y-115857923D01*
X97837123Y-115762685D01*
X97884742Y-115572209D01*
X97884742Y-115429352D01*
X97837123Y-115238876D01*
X97789504Y-115143638D01*
X97694266Y-115048400D01*
X97551409Y-115000780D01*
X97456171Y-115000780D01*
X97313314Y-115048400D01*
X97265695Y-115096019D01*
X146271695Y-97925619D02*
X146795504Y-98592285D01*
X146271695Y-98592285D02*
X146795504Y-97925619D01*
X138365980Y-97622552D02*
X138365980Y-97813028D01*
X138413600Y-97908266D01*
X138508838Y-98003504D01*
X138699314Y-98051123D01*
X139032647Y-98051123D01*
X139223123Y-98003504D01*
X139318361Y-97908266D01*
X139365980Y-97813028D01*
X139365980Y-97622552D01*
X139318361Y-97527314D01*
X139223123Y-97432076D01*
X139032647Y-97384457D01*
X138699314Y-97384457D01*
X138508838Y-97432076D01*
X138413600Y-97527314D01*
X138365980Y-97622552D01*
X138365980Y-98479695D02*
X139175504Y-98479695D01*
X139270742Y-98527314D01*
X139318361Y-98574933D01*
X139365980Y-98670171D01*
X139365980Y-98860647D01*
X139318361Y-98955885D01*
X139270742Y-99003504D01*
X139175504Y-99051123D01*
X138365980Y-99051123D01*
X138365980Y-99384457D02*
X138365980Y-99955885D01*
X139365980Y-99670171D02*
X138365980Y-99670171D01*
X138985028Y-100289219D02*
X138985028Y-101051123D01*
X139365980Y-100670171D02*
X138604076Y-100670171D01*
X149002171Y-98392457D02*
X149049790Y-98535314D01*
X149097409Y-98582933D01*
X149192647Y-98630552D01*
X149335504Y-98630552D01*
X149430742Y-98582933D01*
X149478361Y-98535314D01*
X149525980Y-98440076D01*
X149525980Y-98059123D01*
X148525980Y-98059123D01*
X148525980Y-98392457D01*
X148573600Y-98487695D01*
X148621219Y-98535314D01*
X148716457Y-98582933D01*
X148811695Y-98582933D01*
X148906933Y-98535314D01*
X148954552Y-98487695D01*
X149002171Y-98392457D01*
X149002171Y-98059123D01*
X149240266Y-99011504D02*
X149240266Y-99487695D01*
X149525980Y-98916266D02*
X148525980Y-99249600D01*
X149525980Y-99582933D01*
X148525980Y-99773409D02*
X148525980Y-100344838D01*
X149525980Y-100059123D02*
X148525980Y-100059123D01*
X149145028Y-100678171D02*
X149145028Y-101440076D01*
X151065980Y-98130552D02*
X151065980Y-98321028D01*
X151113600Y-98416266D01*
X151208838Y-98511504D01*
X151399314Y-98559123D01*
X151732647Y-98559123D01*
X151923123Y-98511504D01*
X152018361Y-98416266D01*
X152065980Y-98321028D01*
X152065980Y-98130552D01*
X152018361Y-98035314D01*
X151923123Y-97940076D01*
X151732647Y-97892457D01*
X151399314Y-97892457D01*
X151208838Y-97940076D01*
X151113600Y-98035314D01*
X151065980Y-98130552D01*
X151065980Y-98987695D02*
X151875504Y-98987695D01*
X151970742Y-99035314D01*
X152018361Y-99082933D01*
X152065980Y-99178171D01*
X152065980Y-99368647D01*
X152018361Y-99463885D01*
X151970742Y-99511504D01*
X151875504Y-99559123D01*
X151065980Y-99559123D01*
X151065980Y-99892457D02*
X151065980Y-100463885D01*
X152065980Y-100178171D02*
X151065980Y-100178171D01*
X151685028Y-100797219D02*
X151685028Y-101559123D01*
X141382171Y-97884457D02*
X141429790Y-98027314D01*
X141477409Y-98074933D01*
X141572647Y-98122552D01*
X141715504Y-98122552D01*
X141810742Y-98074933D01*
X141858361Y-98027314D01*
X141905980Y-97932076D01*
X141905980Y-97551123D01*
X140905980Y-97551123D01*
X140905980Y-97884457D01*
X140953600Y-97979695D01*
X141001219Y-98027314D01*
X141096457Y-98074933D01*
X141191695Y-98074933D01*
X141286933Y-98027314D01*
X141334552Y-97979695D01*
X141382171Y-97884457D01*
X141382171Y-97551123D01*
X141620266Y-98503504D02*
X141620266Y-98979695D01*
X141905980Y-98408266D02*
X140905980Y-98741600D01*
X141905980Y-99074933D01*
X140905980Y-99265409D02*
X140905980Y-99836838D01*
X141905980Y-99551123D02*
X140905980Y-99551123D01*
X141525028Y-100170171D02*
X141525028Y-100932076D01*
X141905980Y-100551123D02*
X141144076Y-100551123D01*
X143731695Y-97874819D02*
X144255504Y-98541485D01*
X143731695Y-98541485D02*
X144255504Y-97874819D01*
X120738380Y-101019695D02*
X120738380Y-101638742D01*
X121119333Y-101305409D01*
X121119333Y-101448266D01*
X121166952Y-101543504D01*
X121214571Y-101591123D01*
X121309809Y-101638742D01*
X121547904Y-101638742D01*
X121643142Y-101591123D01*
X121690761Y-101543504D01*
X121738380Y-101448266D01*
X121738380Y-101162552D01*
X121690761Y-101067314D01*
X121643142Y-101019695D01*
X120738380Y-101924457D02*
X121738380Y-102257790D01*
X120738380Y-102591123D01*
X134289161Y-101019742D02*
X134336780Y-101162600D01*
X134336780Y-101400695D01*
X134289161Y-101495933D01*
X134241542Y-101543552D01*
X134146304Y-101591171D01*
X134051066Y-101591171D01*
X133955828Y-101543552D01*
X133908209Y-101495933D01*
X133860590Y-101400695D01*
X133812971Y-101210219D01*
X133765352Y-101114980D01*
X133717733Y-101067361D01*
X133622495Y-101019742D01*
X133527257Y-101019742D01*
X133432019Y-101067361D01*
X133384400Y-101114980D01*
X133336780Y-101210219D01*
X133336780Y-101448314D01*
X133384400Y-101591171D01*
X133812971Y-102019742D02*
X133812971Y-102353076D01*
X134336780Y-102495933D02*
X134336780Y-102019742D01*
X133336780Y-102019742D01*
X133336780Y-102495933D01*
X134336780Y-103400695D02*
X134336780Y-102924504D01*
X133336780Y-102924504D01*
X131822180Y-101421323D02*
X131822180Y-100945133D01*
X130822180Y-100945133D01*
X131822180Y-102326085D02*
X131345990Y-101992752D01*
X131822180Y-101754657D02*
X130822180Y-101754657D01*
X130822180Y-102135609D01*
X130869800Y-102230847D01*
X130917419Y-102278466D01*
X131012657Y-102326085D01*
X131155514Y-102326085D01*
X131250752Y-102278466D01*
X131298371Y-102230847D01*
X131345990Y-102135609D01*
X131345990Y-101754657D01*
X131726942Y-103326085D02*
X131774561Y-103278466D01*
X131822180Y-103135609D01*
X131822180Y-103040371D01*
X131774561Y-102897514D01*
X131679323Y-102802276D01*
X131584085Y-102754657D01*
X131393609Y-102707038D01*
X131250752Y-102707038D01*
X131060276Y-102754657D01*
X130965038Y-102802276D01*
X130869800Y-102897514D01*
X130822180Y-103040371D01*
X130822180Y-103135609D01*
X130869800Y-103278466D01*
X130917419Y-103326085D01*
X126269171Y-101286466D02*
X126316790Y-101429323D01*
X126364409Y-101476942D01*
X126459647Y-101524561D01*
X126602504Y-101524561D01*
X126697742Y-101476942D01*
X126745361Y-101429323D01*
X126792980Y-101334085D01*
X126792980Y-100953133D01*
X125792980Y-100953133D01*
X125792980Y-101286466D01*
X125840600Y-101381704D01*
X125888219Y-101429323D01*
X125983457Y-101476942D01*
X126078695Y-101476942D01*
X126173933Y-101429323D01*
X126221552Y-101381704D01*
X126269171Y-101286466D01*
X126269171Y-100953133D01*
X126697742Y-102524561D02*
X126745361Y-102476942D01*
X126792980Y-102334085D01*
X126792980Y-102238847D01*
X126745361Y-102095990D01*
X126650123Y-102000752D01*
X126554885Y-101953133D01*
X126364409Y-101905514D01*
X126221552Y-101905514D01*
X126031076Y-101953133D01*
X125935838Y-102000752D01*
X125840600Y-102095990D01*
X125792980Y-102238847D01*
X125792980Y-102334085D01*
X125840600Y-102476942D01*
X125888219Y-102524561D01*
X126792980Y-103429323D02*
X126792980Y-102953133D01*
X125792980Y-102953133D01*
X126792980Y-103762657D02*
X125792980Y-103762657D01*
X126792980Y-104334085D02*
X126221552Y-103905514D01*
X125792980Y-104334085D02*
X126364409Y-103762657D01*
X129307580Y-100954723D02*
X128307580Y-100954723D01*
X128307580Y-101192819D01*
X128355200Y-101335676D01*
X128450438Y-101430914D01*
X128545676Y-101478533D01*
X128736152Y-101526152D01*
X128879009Y-101526152D01*
X129069485Y-101478533D01*
X129164723Y-101430914D01*
X129259961Y-101335676D01*
X129307580Y-101192819D01*
X129307580Y-100954723D01*
X128307580Y-102145200D02*
X128307580Y-102335676D01*
X128355200Y-102430914D01*
X128450438Y-102526152D01*
X128640914Y-102573771D01*
X128974247Y-102573771D01*
X129164723Y-102526152D01*
X129259961Y-102430914D01*
X129307580Y-102335676D01*
X129307580Y-102145200D01*
X129259961Y-102049961D01*
X129164723Y-101954723D01*
X128974247Y-101907104D01*
X128640914Y-101907104D01*
X128450438Y-101954723D01*
X128355200Y-102049961D01*
X128307580Y-102145200D01*
X128307580Y-103002342D02*
X129117104Y-103002342D01*
X129212342Y-103049961D01*
X129259961Y-103097580D01*
X129307580Y-103192819D01*
X129307580Y-103383295D01*
X129259961Y-103478533D01*
X129212342Y-103526152D01*
X129117104Y-103573771D01*
X128307580Y-103573771D01*
X128307580Y-103907104D02*
X128307580Y-104478533D01*
X129307580Y-104192819D02*
X128307580Y-104192819D01*
X123249800Y-101553095D02*
X123202180Y-101457857D01*
X123202180Y-101315000D01*
X123249800Y-101172142D01*
X123345038Y-101076904D01*
X123440276Y-101029285D01*
X123630752Y-100981666D01*
X123773609Y-100981666D01*
X123964085Y-101029285D01*
X124059323Y-101076904D01*
X124154561Y-101172142D01*
X124202180Y-101315000D01*
X124202180Y-101410238D01*
X124154561Y-101553095D01*
X124106942Y-101600714D01*
X123773609Y-101600714D01*
X123773609Y-101410238D01*
X124202180Y-102029285D02*
X123202180Y-102029285D01*
X124202180Y-102600714D01*
X123202180Y-102600714D01*
X124202180Y-103076904D02*
X123202180Y-103076904D01*
X123202180Y-103315000D01*
X123249800Y-103457857D01*
X123345038Y-103553095D01*
X123440276Y-103600714D01*
X123630752Y-103648333D01*
X123773609Y-103648333D01*
X123964085Y-103600714D01*
X124059323Y-103553095D01*
X124154561Y-103457857D01*
X124202180Y-103315000D01*
X124202180Y-103076904D01*
X122981428Y-97582628D02*
X123324285Y-97582628D01*
X123152857Y-97582628D02*
X123152857Y-96982628D01*
X123210000Y-97068342D01*
X123267142Y-97125485D01*
X123324285Y-97154057D01*
X122781428Y-96982628D02*
X122638571Y-97582628D01*
X122524285Y-97154057D01*
X122410000Y-97582628D01*
X122267142Y-96982628D01*
X125908742Y-97036600D02*
X125965885Y-97008028D01*
X126051600Y-97008028D01*
X126137314Y-97036600D01*
X126194457Y-97093742D01*
X126223028Y-97150885D01*
X126251600Y-97265171D01*
X126251600Y-97350885D01*
X126223028Y-97465171D01*
X126194457Y-97522314D01*
X126137314Y-97579457D01*
X126051600Y-97608028D01*
X125994457Y-97608028D01*
X125908742Y-97579457D01*
X125880171Y-97550885D01*
X125880171Y-97350885D01*
X125994457Y-97350885D01*
X125623028Y-97608028D02*
X125623028Y-97008028D01*
X125280171Y-97608028D01*
X125280171Y-97008028D01*
X124994457Y-97608028D02*
X124994457Y-97008028D01*
X124851600Y-97008028D01*
X124765885Y-97036600D01*
X124708742Y-97093742D01*
X124680171Y-97150885D01*
X124651600Y-97265171D01*
X124651600Y-97350885D01*
X124680171Y-97465171D01*
X124708742Y-97522314D01*
X124765885Y-97579457D01*
X124851600Y-97608028D01*
X124994457Y-97608028D01*
D11*
X135154342Y-97087400D02*
X135211485Y-97058828D01*
X135297200Y-97058828D01*
X135382914Y-97087400D01*
X135440057Y-97144542D01*
X135468628Y-97201685D01*
X135497200Y-97315971D01*
X135497200Y-97401685D01*
X135468628Y-97515971D01*
X135440057Y-97573114D01*
X135382914Y-97630257D01*
X135297200Y-97658828D01*
X135240057Y-97658828D01*
X135154342Y-97630257D01*
X135125771Y-97601685D01*
X135125771Y-97401685D01*
X135240057Y-97401685D01*
X134868628Y-97658828D02*
X134868628Y-97058828D01*
X134525771Y-97658828D01*
X134525771Y-97058828D01*
X134240057Y-97658828D02*
X134240057Y-97058828D01*
X134097200Y-97058828D01*
X134011485Y-97087400D01*
X133954342Y-97144542D01*
X133925771Y-97201685D01*
X133897200Y-97315971D01*
X133897200Y-97401685D01*
X133925771Y-97515971D01*
X133954342Y-97573114D01*
X134011485Y-97630257D01*
X134097200Y-97658828D01*
X134240057Y-97658828D01*
D10*
X132928600Y-97684228D02*
X132928600Y-97084228D01*
X132585742Y-97684228D01*
X132585742Y-97084228D01*
X132071457Y-97655657D02*
X132128600Y-97684228D01*
X132242885Y-97684228D01*
X132300028Y-97655657D01*
X132328600Y-97598514D01*
X132328600Y-97369942D01*
X132300028Y-97312800D01*
X132242885Y-97284228D01*
X132128600Y-97284228D01*
X132071457Y-97312800D01*
X132042885Y-97369942D01*
X132042885Y-97427085D01*
X132328600Y-97484228D01*
X131700028Y-97684228D02*
X131757171Y-97655657D01*
X131785742Y-97627085D01*
X131814314Y-97569942D01*
X131814314Y-97398514D01*
X131785742Y-97341371D01*
X131757171Y-97312800D01*
X131700028Y-97284228D01*
X131614314Y-97284228D01*
X131557171Y-97312800D01*
X131528600Y-97341371D01*
X131500028Y-97398514D01*
X131500028Y-97569942D01*
X131528600Y-97627085D01*
X131557171Y-97655657D01*
X131614314Y-97684228D01*
X131700028Y-97684228D01*
X131242885Y-97684228D02*
X131242885Y-97084228D01*
X131014314Y-97084228D01*
X130957171Y-97112800D01*
X130928600Y-97141371D01*
X130900028Y-97198514D01*
X130900028Y-97284228D01*
X130928600Y-97341371D01*
X130957171Y-97369942D01*
X131014314Y-97398514D01*
X131242885Y-97398514D01*
X129807685Y-97058828D02*
X130093400Y-97058828D01*
X130121971Y-97344542D01*
X130093400Y-97315971D01*
X130036257Y-97287400D01*
X129893400Y-97287400D01*
X129836257Y-97315971D01*
X129807685Y-97344542D01*
X129779114Y-97401685D01*
X129779114Y-97544542D01*
X129807685Y-97601685D01*
X129836257Y-97630257D01*
X129893400Y-97658828D01*
X130036257Y-97658828D01*
X130093400Y-97630257D01*
X130121971Y-97601685D01*
X129607685Y-97058828D02*
X129407685Y-97658828D01*
X129207685Y-97058828D01*
X103484380Y-98377523D02*
X103484380Y-97901333D01*
X103960571Y-97853714D01*
X103912952Y-97901333D01*
X103865333Y-97996571D01*
X103865333Y-98234666D01*
X103912952Y-98329904D01*
X103960571Y-98377523D01*
X104055809Y-98425142D01*
X104293904Y-98425142D01*
X104389142Y-98377523D01*
X104436761Y-98329904D01*
X104484380Y-98234666D01*
X104484380Y-97996571D01*
X104436761Y-97901333D01*
X104389142Y-97853714D01*
X103484380Y-98710857D02*
X104484380Y-99044190D01*
X103484380Y-99377523D01*
X136562152Y-105062971D02*
X136419295Y-105110590D01*
X136371676Y-105158209D01*
X136324057Y-105253447D01*
X136324057Y-105396304D01*
X136371676Y-105491542D01*
X136419295Y-105539161D01*
X136514533Y-105586780D01*
X136895485Y-105586780D01*
X136895485Y-104586780D01*
X136562152Y-104586780D01*
X136466914Y-104634400D01*
X136419295Y-104682019D01*
X136371676Y-104777257D01*
X136371676Y-104872495D01*
X136419295Y-104967733D01*
X136466914Y-105015352D01*
X136562152Y-105062971D01*
X136895485Y-105062971D01*
X135943104Y-105301066D02*
X135466914Y-105301066D01*
X136038342Y-105586780D02*
X135705009Y-104586780D01*
X135371676Y-105586780D01*
X135181200Y-104586780D02*
X134609771Y-104586780D01*
X134895485Y-105586780D02*
X134895485Y-104586780D01*
X134419295Y-104586780D02*
X133847866Y-104586780D01*
X134133580Y-105586780D02*
X134133580Y-104586780D01*
X133514533Y-105062971D02*
X133181200Y-105062971D01*
X133038342Y-105586780D02*
X133514533Y-105586780D01*
X133514533Y-104586780D01*
X133038342Y-104586780D01*
X132038342Y-105586780D02*
X132371676Y-105110590D01*
X132609771Y-105586780D02*
X132609771Y-104586780D01*
X132228819Y-104586780D01*
X132133580Y-104634400D01*
X132085961Y-104682019D01*
X132038342Y-104777257D01*
X132038342Y-104920114D01*
X132085961Y-105015352D01*
X132133580Y-105062971D01*
X132228819Y-105110590D01*
X132609771Y-105110590D01*
X131419295Y-105110590D02*
X131419295Y-105586780D01*
X131752628Y-104586780D02*
X131419295Y-105110590D01*
X131085961Y-104586780D01*
X160092000Y-96468000D02*
X160092000Y-120468000D01*
X157092000Y-123468000D02*
X98092000Y-123468000D01*
X156592000Y-93468000D02*
X157092000Y-93468000D01*
X98592000Y-93468000D02*
X98092000Y-93468000D01*
X95092000Y-120468000D02*
X95092000Y-96468000D01*
X160092000Y-120468000D02*
G75*
G02X157092000Y-123468000I-3000000J0D01*
G01*
X157092000Y-93468000D02*
G75*
G02X160092000Y-96468000I0J-3000000D01*
G01*
X95092000Y-96468000D02*
G75*
G02X98092000Y-93468000I3000000J0D01*
G01*
X98092000Y-123468000D02*
G75*
G02X95092000Y-120468000I0J3000000D01*
G01*
X156592000Y-93468000D02*
X98592000Y-93468000D01*
D12*
X134854400Y-114905200D02*
X135154400Y-114305200D01*
X135454400Y-114905200D02*
X134854400Y-114905200D01*
X135154400Y-114305200D02*
X135454400Y-114905200D01*
X132334400Y-111215200D02*
X132654400Y-111215200D01*
X132334400Y-107795200D02*
X132334400Y-111215200D01*
X132654400Y-107715200D02*
X132334400Y-107795200D01*
X132974400Y-107795200D02*
X132654400Y-107715200D01*
X132974400Y-111215200D02*
X132974400Y-107795200D01*
X132654400Y-111215200D02*
X132974400Y-111215200D01*
X133984400Y-112215200D02*
X133824400Y-112215200D01*
X134834400Y-111215200D02*
X135154400Y-111215200D01*
X134834400Y-107795200D02*
X134834400Y-111215200D01*
X135154400Y-107715200D02*
X134834400Y-107795200D01*
X135474400Y-107795200D02*
X135154400Y-107715200D01*
X135474400Y-111215200D02*
X135474400Y-107795200D01*
X135154400Y-111215200D02*
X135474400Y-111215200D01*
X136544400Y-111215200D02*
X131264400Y-111215200D01*
X131264400Y-112215200D02*
X130044400Y-112215200D01*
X131264400Y-107215200D02*
X131264400Y-112215200D01*
X130044400Y-107215200D02*
X131264400Y-107215200D01*
X136544400Y-112215200D02*
X137764400Y-112215200D01*
X136544400Y-107215200D02*
X136544400Y-112215200D01*
X137764400Y-107215200D02*
X136544400Y-107215200D01*
X131264400Y-114415200D02*
X131264400Y-112215200D01*
X130044400Y-114415200D02*
X131264400Y-114415200D01*
X130044400Y-105995200D02*
X130044400Y-114415200D01*
X137764400Y-105995200D02*
X130044400Y-105995200D01*
X137764400Y-114415200D02*
X137764400Y-105995200D01*
X136544400Y-114415200D02*
X137764400Y-114415200D01*
X136544400Y-112215200D02*
X136544400Y-114415200D01*
X153052000Y-122568000D02*
X153052000Y-119968000D01*
X153052000Y-122568000D02*
X102132000Y-122568000D01*
X102132000Y-122568000D02*
X102132000Y-117368000D01*
X150452000Y-117368000D02*
X102132000Y-117368000D01*
X150452000Y-119968000D02*
X150452000Y-117368000D01*
X153052000Y-119968000D02*
X150452000Y-119968000D01*
X153052000Y-117368000D02*
X151722000Y-117368000D01*
X153052000Y-118698000D02*
X153052000Y-117368000D01*
M02*
