%TF.GenerationSoftware,KiCad,Pcbnew,(5.1.5-0-10_14)*%
%TF.CreationDate,2020-02-24T01:19:29+01:00*%
%TF.ProjectId,raspberrypi_zerow_uhat,72617370-6265-4727-9279-70695f7a6572,1.0*%
%TF.SameCoordinates,Original*%
%TF.FileFunction,Legend,Top*%
%TF.FilePolarity,Positive*%
%FSLAX46Y46*%
G04 Gerber Fmt 4.6, Leading zero omitted, Abs format (unit mm)*
G04 Created by KiCad (PCBNEW (5.1.5-0-10_14)) date 2020-02-24 01:19:29*
%MOMM*%
%LPD*%
G04 APERTURE LIST*
%ADD10C,0.150000*%
%ADD11C,0.125000*%
%ADD12C,0.120000*%
G04 APERTURE END LIST*
D10*
X144770095Y-115496571D02*
X144436761Y-115496571D01*
X144436761Y-116020380D02*
X144436761Y-115020380D01*
X144912952Y-115020380D01*
X145674857Y-115972761D02*
X145579619Y-116020380D01*
X145389142Y-116020380D01*
X145293904Y-115972761D01*
X145246285Y-115877523D01*
X145246285Y-115496571D01*
X145293904Y-115401333D01*
X145389142Y-115353714D01*
X145579619Y-115353714D01*
X145674857Y-115401333D01*
X145722476Y-115496571D01*
X145722476Y-115591809D01*
X145246285Y-115687047D01*
X146151047Y-116020380D02*
X146151047Y-115020380D01*
X146151047Y-115401333D02*
X146246285Y-115353714D01*
X146436761Y-115353714D01*
X146532000Y-115401333D01*
X146579619Y-115448952D01*
X146627238Y-115544190D01*
X146627238Y-115829904D01*
X146579619Y-115925142D01*
X146532000Y-115972761D01*
X146436761Y-116020380D01*
X146246285Y-116020380D01*
X146151047Y-115972761D01*
X147055809Y-115925142D02*
X147103428Y-115972761D01*
X147055809Y-116020380D01*
X147008190Y-115972761D01*
X147055809Y-115925142D01*
X147055809Y-116020380D01*
X148246285Y-115115619D02*
X148293904Y-115068000D01*
X148389142Y-115020380D01*
X148627238Y-115020380D01*
X148722476Y-115068000D01*
X148770095Y-115115619D01*
X148817714Y-115210857D01*
X148817714Y-115306095D01*
X148770095Y-115448952D01*
X148198666Y-116020380D01*
X148817714Y-116020380D01*
X149436761Y-115020380D02*
X149532000Y-115020380D01*
X149627238Y-115068000D01*
X149674857Y-115115619D01*
X149722476Y-115210857D01*
X149770095Y-115401333D01*
X149770095Y-115639428D01*
X149722476Y-115829904D01*
X149674857Y-115925142D01*
X149627238Y-115972761D01*
X149532000Y-116020380D01*
X149436761Y-116020380D01*
X149341523Y-115972761D01*
X149293904Y-115925142D01*
X149246285Y-115829904D01*
X149198666Y-115639428D01*
X149198666Y-115401333D01*
X149246285Y-115210857D01*
X149293904Y-115115619D01*
X149341523Y-115068000D01*
X149436761Y-115020380D01*
X150151047Y-115115619D02*
X150198666Y-115068000D01*
X150293904Y-115020380D01*
X150532000Y-115020380D01*
X150627238Y-115068000D01*
X150674857Y-115115619D01*
X150722476Y-115210857D01*
X150722476Y-115306095D01*
X150674857Y-115448952D01*
X150103428Y-116020380D01*
X150722476Y-116020380D01*
X151341523Y-115020380D02*
X151436761Y-115020380D01*
X151532000Y-115068000D01*
X151579619Y-115115619D01*
X151627238Y-115210857D01*
X151674857Y-115401333D01*
X151674857Y-115639428D01*
X151627238Y-115829904D01*
X151579619Y-115925142D01*
X151532000Y-115972761D01*
X151436761Y-116020380D01*
X151341523Y-116020380D01*
X151246285Y-115972761D01*
X151198666Y-115925142D01*
X151151047Y-115829904D01*
X151103428Y-115639428D01*
X151103428Y-115401333D01*
X151151047Y-115210857D01*
X151198666Y-115115619D01*
X151246285Y-115068000D01*
X151341523Y-115020380D01*
X121032000Y-115568000D02*
X118032000Y-115568000D01*
X121032000Y-104568000D02*
X121032000Y-115568000D01*
X118032000Y-104568000D02*
X121032000Y-104568000D01*
X118032000Y-115068000D02*
X118032000Y-104568000D01*
X119984380Y-115139428D02*
X118984380Y-115139428D01*
X119365333Y-115139428D02*
X119317714Y-115044190D01*
X119317714Y-114853714D01*
X119365333Y-114758476D01*
X119412952Y-114710857D01*
X119508190Y-114663238D01*
X119793904Y-114663238D01*
X119889142Y-114710857D01*
X119936761Y-114758476D01*
X119984380Y-114853714D01*
X119984380Y-115044190D01*
X119936761Y-115139428D01*
X119984380Y-114091809D02*
X119936761Y-114187047D01*
X119889142Y-114234666D01*
X119793904Y-114282285D01*
X119508190Y-114282285D01*
X119412952Y-114234666D01*
X119365333Y-114187047D01*
X119317714Y-114091809D01*
X119317714Y-113948952D01*
X119365333Y-113853714D01*
X119412952Y-113806095D01*
X119508190Y-113758476D01*
X119793904Y-113758476D01*
X119889142Y-113806095D01*
X119936761Y-113853714D01*
X119984380Y-113948952D01*
X119984380Y-114091809D01*
X119984380Y-113425142D02*
X119317714Y-112901333D01*
X119317714Y-113425142D02*
X119984380Y-112901333D01*
X119889142Y-112520380D02*
X119936761Y-112472761D01*
X119984380Y-112520380D01*
X119936761Y-112568000D01*
X119889142Y-112520380D01*
X119984380Y-112520380D01*
X119984380Y-112044190D02*
X118984380Y-112044190D01*
X119365333Y-112044190D02*
X119317714Y-111948952D01*
X119317714Y-111758476D01*
X119365333Y-111663238D01*
X119412952Y-111615619D01*
X119508190Y-111568000D01*
X119793904Y-111568000D01*
X119889142Y-111615619D01*
X119936761Y-111663238D01*
X119984380Y-111758476D01*
X119984380Y-111948952D01*
X119936761Y-112044190D01*
X119603428Y-111139428D02*
X119603428Y-110377523D01*
X119984380Y-109758476D02*
X119936761Y-109853714D01*
X119841523Y-109901333D01*
X118984380Y-109901333D01*
X119984380Y-108948952D02*
X119460571Y-108948952D01*
X119365333Y-108996571D01*
X119317714Y-109091809D01*
X119317714Y-109282285D01*
X119365333Y-109377523D01*
X119936761Y-108948952D02*
X119984380Y-109044190D01*
X119984380Y-109282285D01*
X119936761Y-109377523D01*
X119841523Y-109425142D01*
X119746285Y-109425142D01*
X119651047Y-109377523D01*
X119603428Y-109282285D01*
X119603428Y-109044190D01*
X119555809Y-108948952D01*
X119984380Y-108472761D02*
X118984380Y-108472761D01*
X119365333Y-108472761D02*
X119317714Y-108377523D01*
X119317714Y-108187047D01*
X119365333Y-108091809D01*
X119412952Y-108044190D01*
X119508190Y-107996571D01*
X119793904Y-107996571D01*
X119889142Y-108044190D01*
X119936761Y-108091809D01*
X119984380Y-108187047D01*
X119984380Y-108377523D01*
X119936761Y-108472761D01*
X119936761Y-107615619D02*
X119984380Y-107520380D01*
X119984380Y-107329904D01*
X119936761Y-107234666D01*
X119841523Y-107187047D01*
X119793904Y-107187047D01*
X119698666Y-107234666D01*
X119651047Y-107329904D01*
X119651047Y-107472761D01*
X119603428Y-107568000D01*
X119508190Y-107615619D01*
X119460571Y-107615619D01*
X119365333Y-107568000D01*
X119317714Y-107472761D01*
X119317714Y-107329904D01*
X119365333Y-107234666D01*
X119889142Y-106758476D02*
X119936761Y-106710857D01*
X119984380Y-106758476D01*
X119936761Y-106806095D01*
X119889142Y-106758476D01*
X119984380Y-106758476D01*
X119936761Y-105853714D02*
X119984380Y-105948952D01*
X119984380Y-106139428D01*
X119936761Y-106234666D01*
X119889142Y-106282285D01*
X119793904Y-106329904D01*
X119508190Y-106329904D01*
X119412952Y-106282285D01*
X119365333Y-106234666D01*
X119317714Y-106139428D01*
X119317714Y-105948952D01*
X119365333Y-105853714D01*
X119984380Y-105425142D02*
X118984380Y-105425142D01*
X119984380Y-104996571D02*
X119460571Y-104996571D01*
X119365333Y-105044190D01*
X119317714Y-105139428D01*
X119317714Y-105282285D01*
X119365333Y-105377523D01*
X119412952Y-105425142D01*
X124994457Y-97062000D02*
X124937314Y-97033428D01*
X124851600Y-97033428D01*
X124765885Y-97062000D01*
X124708742Y-97119142D01*
X124680171Y-97176285D01*
X124651600Y-97290571D01*
X124651600Y-97376285D01*
X124680171Y-97490571D01*
X124708742Y-97547714D01*
X124765885Y-97604857D01*
X124851600Y-97633428D01*
X124908742Y-97633428D01*
X124994457Y-97604857D01*
X125023028Y-97576285D01*
X125023028Y-97376285D01*
X124908742Y-97376285D01*
X125280171Y-97633428D02*
X125280171Y-97033428D01*
X125623028Y-97633428D01*
X125623028Y-97033428D01*
X125908742Y-97633428D02*
X125908742Y-97033428D01*
X126051600Y-97033428D01*
X126137314Y-97062000D01*
X126194457Y-97119142D01*
X126223028Y-97176285D01*
X126251600Y-97290571D01*
X126251600Y-97376285D01*
X126223028Y-97490571D01*
X126194457Y-97547714D01*
X126137314Y-97604857D01*
X126051600Y-97633428D01*
X125908742Y-97633428D01*
X122587771Y-97633428D02*
X122244914Y-97633428D01*
X122416342Y-97633428D02*
X122416342Y-97033428D01*
X122359200Y-97119142D01*
X122302057Y-97176285D01*
X122244914Y-97204857D01*
X122787771Y-97033428D02*
X122930628Y-97633428D01*
X123044914Y-97204857D01*
X123159200Y-97633428D01*
X123302057Y-97033428D01*
D11*
X134240057Y-97062000D02*
X134182914Y-97033428D01*
X134097200Y-97033428D01*
X134011485Y-97062000D01*
X133954342Y-97119142D01*
X133925771Y-97176285D01*
X133897200Y-97290571D01*
X133897200Y-97376285D01*
X133925771Y-97490571D01*
X133954342Y-97547714D01*
X134011485Y-97604857D01*
X134097200Y-97633428D01*
X134154342Y-97633428D01*
X134240057Y-97604857D01*
X134268628Y-97576285D01*
X134268628Y-97376285D01*
X134154342Y-97376285D01*
X134525771Y-97633428D02*
X134525771Y-97033428D01*
X134868628Y-97633428D01*
X134868628Y-97033428D01*
X135154342Y-97633428D02*
X135154342Y-97033428D01*
X135297200Y-97033428D01*
X135382914Y-97062000D01*
X135440057Y-97119142D01*
X135468628Y-97176285D01*
X135497200Y-97290571D01*
X135497200Y-97376285D01*
X135468628Y-97490571D01*
X135440057Y-97547714D01*
X135382914Y-97604857D01*
X135297200Y-97633428D01*
X135154342Y-97633428D01*
D10*
X131004800Y-97684228D02*
X131004800Y-97084228D01*
X131347657Y-97684228D01*
X131347657Y-97084228D01*
X131861942Y-97655657D02*
X131804800Y-97684228D01*
X131690514Y-97684228D01*
X131633371Y-97655657D01*
X131604800Y-97598514D01*
X131604800Y-97369942D01*
X131633371Y-97312800D01*
X131690514Y-97284228D01*
X131804800Y-97284228D01*
X131861942Y-97312800D01*
X131890514Y-97369942D01*
X131890514Y-97427085D01*
X131604800Y-97484228D01*
X132233371Y-97684228D02*
X132176228Y-97655657D01*
X132147657Y-97627085D01*
X132119085Y-97569942D01*
X132119085Y-97398514D01*
X132147657Y-97341371D01*
X132176228Y-97312800D01*
X132233371Y-97284228D01*
X132319085Y-97284228D01*
X132376228Y-97312800D01*
X132404800Y-97341371D01*
X132433371Y-97398514D01*
X132433371Y-97569942D01*
X132404800Y-97627085D01*
X132376228Y-97655657D01*
X132319085Y-97684228D01*
X132233371Y-97684228D01*
X132690514Y-97684228D02*
X132690514Y-97084228D01*
X132919085Y-97084228D01*
X132976228Y-97112800D01*
X133004800Y-97141371D01*
X133033371Y-97198514D01*
X133033371Y-97284228D01*
X133004800Y-97341371D01*
X132976228Y-97369942D01*
X132919085Y-97398514D01*
X132690514Y-97398514D01*
X129553714Y-97084228D02*
X129268000Y-97084228D01*
X129239428Y-97369942D01*
X129268000Y-97341371D01*
X129325142Y-97312800D01*
X129468000Y-97312800D01*
X129525142Y-97341371D01*
X129553714Y-97369942D01*
X129582285Y-97427085D01*
X129582285Y-97569942D01*
X129553714Y-97627085D01*
X129525142Y-97655657D01*
X129468000Y-97684228D01*
X129325142Y-97684228D01*
X129268000Y-97655657D01*
X129239428Y-97627085D01*
X129753714Y-97084228D02*
X129953714Y-97684228D01*
X130153714Y-97084228D01*
X137340428Y-111998628D02*
X137340428Y-111884342D01*
X137369000Y-111827200D01*
X137426142Y-111770057D01*
X137540428Y-111741485D01*
X137740428Y-111741485D01*
X137854714Y-111770057D01*
X137911857Y-111827200D01*
X137940428Y-111884342D01*
X137940428Y-111998628D01*
X137911857Y-112055771D01*
X137854714Y-112112914D01*
X137740428Y-112141485D01*
X137540428Y-112141485D01*
X137426142Y-112112914D01*
X137369000Y-112055771D01*
X137340428Y-111998628D01*
X137340428Y-111484342D02*
X137826142Y-111484342D01*
X137883285Y-111455771D01*
X137911857Y-111427200D01*
X137940428Y-111370057D01*
X137940428Y-111255771D01*
X137911857Y-111198628D01*
X137883285Y-111170057D01*
X137826142Y-111141485D01*
X137340428Y-111141485D01*
X137340428Y-110941485D02*
X137340428Y-110598628D01*
X137940428Y-110770057D02*
X137340428Y-110770057D01*
X137711857Y-110398628D02*
X137711857Y-109941485D01*
X137940428Y-110170057D02*
X137483285Y-110170057D01*
X137391228Y-108601485D02*
X137391228Y-108887200D01*
X137676942Y-108915771D01*
X137648371Y-108887200D01*
X137619800Y-108830057D01*
X137619800Y-108687200D01*
X137648371Y-108630057D01*
X137676942Y-108601485D01*
X137734085Y-108572914D01*
X137876942Y-108572914D01*
X137934085Y-108601485D01*
X137962657Y-108630057D01*
X137991228Y-108687200D01*
X137991228Y-108830057D01*
X137962657Y-108887200D01*
X137934085Y-108915771D01*
X137391228Y-108401485D02*
X137991228Y-108201485D01*
X137391228Y-108001485D01*
X135133771Y-111038142D02*
X135181390Y-110895285D01*
X135229009Y-110847666D01*
X135324247Y-110800047D01*
X135467104Y-110800047D01*
X135562342Y-110847666D01*
X135609961Y-110895285D01*
X135657580Y-110990523D01*
X135657580Y-111371476D01*
X134657580Y-111371476D01*
X134657580Y-111038142D01*
X134705200Y-110942904D01*
X134752819Y-110895285D01*
X134848057Y-110847666D01*
X134943295Y-110847666D01*
X135038533Y-110895285D01*
X135086152Y-110942904D01*
X135133771Y-111038142D01*
X135133771Y-111371476D01*
X135371866Y-110419095D02*
X135371866Y-109942904D01*
X135657580Y-110514333D02*
X134657580Y-110181000D01*
X135657580Y-109847666D01*
X134657580Y-109657190D02*
X134657580Y-109085761D01*
X135657580Y-109371476D02*
X134657580Y-109371476D01*
X135276628Y-108752428D02*
X135276628Y-107990523D01*
X135657580Y-108371476D02*
X134895676Y-108371476D01*
X112540495Y-110209580D02*
X113064304Y-109542914D01*
X112540495Y-109542914D02*
X113064304Y-110209580D01*
X112489695Y-107720380D02*
X113013504Y-107053714D01*
X112489695Y-107053714D02*
X113013504Y-107720380D01*
X146170095Y-98169980D02*
X146693904Y-97503314D01*
X146170095Y-97503314D02*
X146693904Y-98169980D01*
X143630095Y-98220780D02*
X144153904Y-97554114D01*
X143630095Y-97554114D02*
X144153904Y-98220780D01*
X126513771Y-106145580D02*
X126513771Y-105145580D01*
X126847104Y-105859866D01*
X127180438Y-105145580D01*
X127180438Y-106145580D01*
X127656628Y-106145580D02*
X127656628Y-105145580D01*
X128704247Y-106050342D02*
X128656628Y-106097961D01*
X128513771Y-106145580D01*
X128418533Y-106145580D01*
X128275676Y-106097961D01*
X128180438Y-106002723D01*
X128132819Y-105907485D01*
X128085200Y-105717009D01*
X128085200Y-105574152D01*
X128132819Y-105383676D01*
X128180438Y-105288438D01*
X128275676Y-105193200D01*
X128418533Y-105145580D01*
X128513771Y-105145580D01*
X128656628Y-105193200D01*
X128704247Y-105240819D01*
X129634742Y-114883180D02*
X129158552Y-114883180D01*
X129158552Y-113883180D01*
X129968076Y-114359371D02*
X130301409Y-114359371D01*
X130444266Y-114883180D02*
X129968076Y-114883180D01*
X129968076Y-113883180D01*
X130444266Y-113883180D01*
X130872838Y-114883180D02*
X130872838Y-113883180D01*
X131110933Y-113883180D01*
X131253790Y-113930800D01*
X131349028Y-114026038D01*
X131396647Y-114121276D01*
X131444266Y-114311752D01*
X131444266Y-114454609D01*
X131396647Y-114645085D01*
X131349028Y-114740323D01*
X131253790Y-114835561D01*
X131110933Y-114883180D01*
X130872838Y-114883180D01*
X123668780Y-117227600D02*
X122668780Y-117227600D01*
X123668780Y-116656171D01*
X122668780Y-116656171D01*
X123621161Y-115799028D02*
X123668780Y-115894266D01*
X123668780Y-116084742D01*
X123621161Y-116179980D01*
X123525923Y-116227600D01*
X123144971Y-116227600D01*
X123049733Y-116179980D01*
X123002114Y-116084742D01*
X123002114Y-115894266D01*
X123049733Y-115799028D01*
X123144971Y-115751409D01*
X123240209Y-115751409D01*
X123335447Y-116227600D01*
X123668780Y-115179980D02*
X123621161Y-115275219D01*
X123573542Y-115322838D01*
X123478304Y-115370457D01*
X123192590Y-115370457D01*
X123097352Y-115322838D01*
X123049733Y-115275219D01*
X123002114Y-115179980D01*
X123002114Y-115037123D01*
X123049733Y-114941885D01*
X123097352Y-114894266D01*
X123192590Y-114846647D01*
X123478304Y-114846647D01*
X123573542Y-114894266D01*
X123621161Y-114941885D01*
X123668780Y-115037123D01*
X123668780Y-115179980D01*
X123668780Y-114418076D02*
X122668780Y-114418076D01*
X122668780Y-114037123D01*
X122716400Y-113941885D01*
X122764019Y-113894266D01*
X122859257Y-113846647D01*
X123002114Y-113846647D01*
X123097352Y-113894266D01*
X123144971Y-113941885D01*
X123192590Y-114037123D01*
X123192590Y-114418076D01*
X123668780Y-113418076D02*
X123002114Y-113418076D01*
X122668780Y-113418076D02*
X122716400Y-113465695D01*
X122764019Y-113418076D01*
X122716400Y-113370457D01*
X122668780Y-113418076D01*
X122764019Y-113418076D01*
X123668780Y-113037123D02*
X123002114Y-112513314D01*
X123002114Y-113037123D02*
X123668780Y-112513314D01*
X123621161Y-111751409D02*
X123668780Y-111846647D01*
X123668780Y-112037123D01*
X123621161Y-112132361D01*
X123525923Y-112179980D01*
X123144971Y-112179980D01*
X123049733Y-112132361D01*
X123002114Y-112037123D01*
X123002114Y-111846647D01*
X123049733Y-111751409D01*
X123144971Y-111703790D01*
X123240209Y-111703790D01*
X123335447Y-112179980D01*
X123668780Y-111132361D02*
X123621161Y-111227600D01*
X123525923Y-111275219D01*
X122668780Y-111275219D01*
X138636076Y-103402380D02*
X138636076Y-102402380D01*
X139017028Y-102402380D01*
X139112266Y-102450000D01*
X139159885Y-102497619D01*
X139207504Y-102592857D01*
X139207504Y-102735714D01*
X139159885Y-102830952D01*
X139112266Y-102878571D01*
X139017028Y-102926190D01*
X138636076Y-102926190D01*
X139826552Y-102402380D02*
X140017028Y-102402380D01*
X140112266Y-102450000D01*
X140207504Y-102545238D01*
X140255123Y-102735714D01*
X140255123Y-103069047D01*
X140207504Y-103259523D01*
X140112266Y-103354761D01*
X140017028Y-103402380D01*
X139826552Y-103402380D01*
X139731314Y-103354761D01*
X139636076Y-103259523D01*
X139588457Y-103069047D01*
X139588457Y-102735714D01*
X139636076Y-102545238D01*
X139731314Y-102450000D01*
X139826552Y-102402380D01*
X140588457Y-102402380D02*
X140826552Y-103402380D01*
X141017028Y-102688095D01*
X141207504Y-103402380D01*
X141445600Y-102402380D01*
X141826552Y-102878571D02*
X142159885Y-102878571D01*
X142302742Y-103402380D02*
X141826552Y-103402380D01*
X141826552Y-102402380D01*
X142302742Y-102402380D01*
X143302742Y-103402380D02*
X142969409Y-102926190D01*
X142731314Y-103402380D02*
X142731314Y-102402380D01*
X143112266Y-102402380D01*
X143207504Y-102450000D01*
X143255123Y-102497619D01*
X143302742Y-102592857D01*
X143302742Y-102735714D01*
X143255123Y-102830952D01*
X143207504Y-102878571D01*
X143112266Y-102926190D01*
X142731314Y-102926190D01*
X97833942Y-116102380D02*
X97500609Y-115626190D01*
X97262514Y-116102380D02*
X97262514Y-115102380D01*
X97643466Y-115102380D01*
X97738704Y-115150000D01*
X97786323Y-115197619D01*
X97833942Y-115292857D01*
X97833942Y-115435714D01*
X97786323Y-115530952D01*
X97738704Y-115578571D01*
X97643466Y-115626190D01*
X97262514Y-115626190D01*
X98262514Y-115578571D02*
X98595847Y-115578571D01*
X98738704Y-116102380D02*
X98262514Y-116102380D01*
X98262514Y-115102380D01*
X98738704Y-115102380D01*
X99738704Y-116007142D02*
X99691085Y-116054761D01*
X99548228Y-116102380D01*
X99452990Y-116102380D01*
X99310133Y-116054761D01*
X99214895Y-115959523D01*
X99167276Y-115864285D01*
X99119657Y-115673809D01*
X99119657Y-115530952D01*
X99167276Y-115340476D01*
X99214895Y-115245238D01*
X99310133Y-115150000D01*
X99452990Y-115102380D01*
X99548228Y-115102380D01*
X99691085Y-115150000D01*
X99738704Y-115197619D01*
X154661790Y-116020380D02*
X154661790Y-115020380D01*
X155042742Y-115020380D01*
X155137980Y-115068000D01*
X155185600Y-115115619D01*
X155233219Y-115210857D01*
X155233219Y-115353714D01*
X155185600Y-115448952D01*
X155137980Y-115496571D01*
X155042742Y-115544190D01*
X154661790Y-115544190D01*
X156137980Y-116020380D02*
X155661790Y-116020380D01*
X155661790Y-115020380D01*
X156423695Y-115734666D02*
X156899885Y-115734666D01*
X156328457Y-116020380D02*
X156661790Y-115020380D01*
X156995123Y-116020380D01*
X157518933Y-115544190D02*
X157518933Y-116020380D01*
X157185600Y-115020380D02*
X157518933Y-115544190D01*
X157852266Y-115020380D01*
X105603428Y-115353714D02*
X105841523Y-116020380D01*
X106079619Y-115353714D01*
X106984380Y-116020380D02*
X106412952Y-116020380D01*
X106698666Y-116020380D02*
X106698666Y-115020380D01*
X106603428Y-115163238D01*
X106508190Y-115258476D01*
X106412952Y-115306095D01*
X107412952Y-115925142D02*
X107460571Y-115972761D01*
X107412952Y-116020380D01*
X107365333Y-115972761D01*
X107412952Y-115925142D01*
X107412952Y-116020380D01*
X108079619Y-115020380D02*
X108174857Y-115020380D01*
X108270095Y-115068000D01*
X108317714Y-115115619D01*
X108365333Y-115210857D01*
X108412952Y-115401333D01*
X108412952Y-115639428D01*
X108365333Y-115829904D01*
X108317714Y-115925142D01*
X108270095Y-115972761D01*
X108174857Y-116020380D01*
X108079619Y-116020380D01*
X107984380Y-115972761D01*
X107936761Y-115925142D01*
X107889142Y-115829904D01*
X107841523Y-115639428D01*
X107841523Y-115401333D01*
X107889142Y-115210857D01*
X107936761Y-115115619D01*
X107984380Y-115068000D01*
X108079619Y-115020380D01*
X111676800Y-97957428D02*
X111724419Y-97862190D01*
X111724419Y-97719333D01*
X111676800Y-97576476D01*
X111581561Y-97481238D01*
X111486323Y-97433619D01*
X111295847Y-97386000D01*
X111152990Y-97386000D01*
X110962514Y-97433619D01*
X110867276Y-97481238D01*
X110772038Y-97576476D01*
X110724419Y-97719333D01*
X110724419Y-97814571D01*
X110772038Y-97957428D01*
X110819657Y-98005047D01*
X111152990Y-98005047D01*
X111152990Y-97814571D01*
X111010133Y-98386000D02*
X111010133Y-98862190D01*
X110724419Y-98290761D02*
X111724419Y-98624095D01*
X110724419Y-98957428D01*
X110724419Y-99290761D02*
X111724419Y-99290761D01*
X110724419Y-99766952D02*
X111724419Y-99766952D01*
X110724419Y-100338380D01*
X111724419Y-100338380D01*
X113450933Y-97486800D02*
X114150933Y-97486800D01*
X114150933Y-97653466D01*
X114117600Y-97753466D01*
X114050933Y-97820133D01*
X113984266Y-97853466D01*
X113850933Y-97886800D01*
X113750933Y-97886800D01*
X113617600Y-97853466D01*
X113550933Y-97820133D01*
X113484266Y-97753466D01*
X113450933Y-97653466D01*
X113450933Y-97486800D01*
X113384266Y-98020133D02*
X113384266Y-98553466D01*
X114150933Y-98853466D02*
X114150933Y-98986800D01*
X114117600Y-99053466D01*
X114050933Y-99120133D01*
X113917600Y-99153466D01*
X113684266Y-99153466D01*
X113550933Y-99120133D01*
X113484266Y-99053466D01*
X113450933Y-98986800D01*
X113450933Y-98853466D01*
X113484266Y-98786800D01*
X113550933Y-98720133D01*
X113684266Y-98686800D01*
X113917600Y-98686800D01*
X114050933Y-98720133D01*
X114117600Y-98786800D01*
X114150933Y-98853466D01*
X114150933Y-99453466D02*
X113584266Y-99453466D01*
X113517600Y-99486800D01*
X113484266Y-99520133D01*
X113450933Y-99586800D01*
X113450933Y-99720133D01*
X113484266Y-99786800D01*
X113517600Y-99820133D01*
X113584266Y-99853466D01*
X114150933Y-99853466D01*
X114150933Y-100086800D02*
X114150933Y-100486800D01*
X113450933Y-100286800D02*
X114150933Y-100286800D01*
X118344419Y-98043123D02*
X118344419Y-97566933D01*
X119344419Y-97566933D01*
X118344419Y-98947885D02*
X118820609Y-98614552D01*
X118344419Y-98376457D02*
X119344419Y-98376457D01*
X119344419Y-98757409D01*
X119296800Y-98852647D01*
X119249180Y-98900266D01*
X119153942Y-98947885D01*
X119011085Y-98947885D01*
X118915847Y-98900266D01*
X118868228Y-98852647D01*
X118820609Y-98757409D01*
X118820609Y-98376457D01*
X118439657Y-99947885D02*
X118392038Y-99900266D01*
X118344419Y-99757409D01*
X118344419Y-99662171D01*
X118392038Y-99519314D01*
X118487276Y-99424076D01*
X118582514Y-99376457D01*
X118772990Y-99328838D01*
X118915847Y-99328838D01*
X119106323Y-99376457D01*
X119201561Y-99424076D01*
X119296800Y-99519314D01*
X119344419Y-99662171D01*
X119344419Y-99757409D01*
X119296800Y-99900266D01*
X119249180Y-99947885D01*
X116408400Y-97749466D02*
X116375066Y-97849466D01*
X116341733Y-97882800D01*
X116275066Y-97916133D01*
X116175066Y-97916133D01*
X116108400Y-97882800D01*
X116075066Y-97849466D01*
X116041733Y-97782800D01*
X116041733Y-97516133D01*
X116741733Y-97516133D01*
X116741733Y-97749466D01*
X116708400Y-97816133D01*
X116675066Y-97849466D01*
X116608400Y-97882800D01*
X116541733Y-97882800D01*
X116475066Y-97849466D01*
X116441733Y-97816133D01*
X116408400Y-97749466D01*
X116408400Y-97516133D01*
X116108400Y-98616133D02*
X116075066Y-98582800D01*
X116041733Y-98482800D01*
X116041733Y-98416133D01*
X116075066Y-98316133D01*
X116141733Y-98249466D01*
X116208400Y-98216133D01*
X116341733Y-98182800D01*
X116441733Y-98182800D01*
X116575066Y-98216133D01*
X116641733Y-98249466D01*
X116708400Y-98316133D01*
X116741733Y-98416133D01*
X116741733Y-98482800D01*
X116708400Y-98582800D01*
X116675066Y-98616133D01*
X116041733Y-99249466D02*
X116041733Y-98916133D01*
X116741733Y-98916133D01*
X116041733Y-99482800D02*
X116741733Y-99482800D01*
X116041733Y-99882800D02*
X116441733Y-99582800D01*
X116741733Y-99882800D02*
X116341733Y-99482800D01*
X106032000Y-98022495D02*
X106079619Y-97927257D01*
X106079619Y-97784400D01*
X106032000Y-97641542D01*
X105936761Y-97546304D01*
X105841523Y-97498685D01*
X105651047Y-97451066D01*
X105508190Y-97451066D01*
X105317714Y-97498685D01*
X105222476Y-97546304D01*
X105127238Y-97641542D01*
X105079619Y-97784400D01*
X105079619Y-97879638D01*
X105127238Y-98022495D01*
X105174857Y-98070114D01*
X105508190Y-98070114D01*
X105508190Y-97879638D01*
X105079619Y-98498685D02*
X106079619Y-98498685D01*
X105079619Y-99070114D01*
X106079619Y-99070114D01*
X105079619Y-99546304D02*
X106079619Y-99546304D01*
X106079619Y-99784400D01*
X106032000Y-99927257D01*
X105936761Y-100022495D01*
X105841523Y-100070114D01*
X105651047Y-100117733D01*
X105508190Y-100117733D01*
X105317714Y-100070114D01*
X105222476Y-100022495D01*
X105127238Y-99927257D01*
X105079619Y-99784400D01*
X105079619Y-99546304D01*
X104155219Y-98136723D02*
X104155219Y-97660533D01*
X103679028Y-97612914D01*
X103726647Y-97660533D01*
X103774266Y-97755771D01*
X103774266Y-97993866D01*
X103726647Y-98089104D01*
X103679028Y-98136723D01*
X103583790Y-98184342D01*
X103345695Y-98184342D01*
X103250457Y-98136723D01*
X103202838Y-98089104D01*
X103155219Y-97993866D01*
X103155219Y-97755771D01*
X103202838Y-97660533D01*
X103250457Y-97612914D01*
X104155219Y-98470057D02*
X103155219Y-98803390D01*
X104155219Y-99136723D01*
X149068828Y-97808257D02*
X149021209Y-97951114D01*
X148973590Y-97998733D01*
X148878352Y-98046352D01*
X148735495Y-98046352D01*
X148640257Y-97998733D01*
X148592638Y-97951114D01*
X148545019Y-97855876D01*
X148545019Y-97474923D01*
X149545019Y-97474923D01*
X149545019Y-97808257D01*
X149497400Y-97903495D01*
X149449780Y-97951114D01*
X149354542Y-97998733D01*
X149259304Y-97998733D01*
X149164066Y-97951114D01*
X149116447Y-97903495D01*
X149068828Y-97808257D01*
X149068828Y-97474923D01*
X148830733Y-98427304D02*
X148830733Y-98903495D01*
X148545019Y-98332066D02*
X149545019Y-98665400D01*
X148545019Y-98998733D01*
X149545019Y-99189209D02*
X149545019Y-99760638D01*
X148545019Y-99474923D02*
X149545019Y-99474923D01*
X148925971Y-100093971D02*
X148925971Y-100855876D01*
X152008819Y-97749552D02*
X152008819Y-97940028D01*
X151961200Y-98035266D01*
X151865961Y-98130504D01*
X151675485Y-98178123D01*
X151342152Y-98178123D01*
X151151676Y-98130504D01*
X151056438Y-98035266D01*
X151008819Y-97940028D01*
X151008819Y-97749552D01*
X151056438Y-97654314D01*
X151151676Y-97559076D01*
X151342152Y-97511457D01*
X151675485Y-97511457D01*
X151865961Y-97559076D01*
X151961200Y-97654314D01*
X152008819Y-97749552D01*
X152008819Y-98606695D02*
X151199295Y-98606695D01*
X151104057Y-98654314D01*
X151056438Y-98701933D01*
X151008819Y-98797171D01*
X151008819Y-98987647D01*
X151056438Y-99082885D01*
X151104057Y-99130504D01*
X151199295Y-99178123D01*
X152008819Y-99178123D01*
X152008819Y-99511457D02*
X152008819Y-100082885D01*
X151008819Y-99797171D02*
X152008819Y-99797171D01*
X151389771Y-100416219D02*
X151389771Y-101178123D01*
X139232619Y-97673352D02*
X139232619Y-97863828D01*
X139185000Y-97959066D01*
X139089761Y-98054304D01*
X138899285Y-98101923D01*
X138565952Y-98101923D01*
X138375476Y-98054304D01*
X138280238Y-97959066D01*
X138232619Y-97863828D01*
X138232619Y-97673352D01*
X138280238Y-97578114D01*
X138375476Y-97482876D01*
X138565952Y-97435257D01*
X138899285Y-97435257D01*
X139089761Y-97482876D01*
X139185000Y-97578114D01*
X139232619Y-97673352D01*
X139232619Y-98530495D02*
X138423095Y-98530495D01*
X138327857Y-98578114D01*
X138280238Y-98625733D01*
X138232619Y-98720971D01*
X138232619Y-98911447D01*
X138280238Y-99006685D01*
X138327857Y-99054304D01*
X138423095Y-99101923D01*
X139232619Y-99101923D01*
X139232619Y-99435257D02*
X139232619Y-100006685D01*
X138232619Y-99720971D02*
X139232619Y-99720971D01*
X138613571Y-100340019D02*
X138613571Y-101101923D01*
X138232619Y-100720971D02*
X138994523Y-100720971D01*
X141423428Y-97782857D02*
X141375809Y-97925714D01*
X141328190Y-97973333D01*
X141232952Y-98020952D01*
X141090095Y-98020952D01*
X140994857Y-97973333D01*
X140947238Y-97925714D01*
X140899619Y-97830476D01*
X140899619Y-97449523D01*
X141899619Y-97449523D01*
X141899619Y-97782857D01*
X141852000Y-97878095D01*
X141804380Y-97925714D01*
X141709142Y-97973333D01*
X141613904Y-97973333D01*
X141518666Y-97925714D01*
X141471047Y-97878095D01*
X141423428Y-97782857D01*
X141423428Y-97449523D01*
X141185333Y-98401904D02*
X141185333Y-98878095D01*
X140899619Y-98306666D02*
X141899619Y-98640000D01*
X140899619Y-98973333D01*
X141899619Y-99163809D02*
X141899619Y-99735238D01*
X140899619Y-99449523D02*
X141899619Y-99449523D01*
X141280571Y-100068571D02*
X141280571Y-100830476D01*
X140899619Y-100449523D02*
X141661523Y-100449523D01*
X124765847Y-111200228D02*
X125527752Y-111200228D01*
X125146800Y-111581180D02*
X125146800Y-110819276D01*
X127043942Y-111073180D02*
X126710609Y-110596990D01*
X126472514Y-111073180D02*
X126472514Y-110073180D01*
X126853466Y-110073180D01*
X126948704Y-110120800D01*
X126996323Y-110168419D01*
X127043942Y-110263657D01*
X127043942Y-110406514D01*
X126996323Y-110501752D01*
X126948704Y-110549371D01*
X126853466Y-110596990D01*
X126472514Y-110596990D01*
X127472514Y-110549371D02*
X127805847Y-110549371D01*
X127948704Y-111073180D02*
X127472514Y-111073180D01*
X127472514Y-110073180D01*
X127948704Y-110073180D01*
X128377276Y-111073180D02*
X128377276Y-110073180D01*
X128615371Y-110073180D01*
X128758228Y-110120800D01*
X128853466Y-110216038D01*
X128901085Y-110311276D01*
X128948704Y-110501752D01*
X128948704Y-110644609D01*
X128901085Y-110835085D01*
X128853466Y-110930323D01*
X128758228Y-111025561D01*
X128615371Y-111073180D01*
X128377276Y-111073180D01*
X110022857Y-104148571D02*
X110165714Y-104196190D01*
X110213333Y-104243809D01*
X110260952Y-104339047D01*
X110260952Y-104481904D01*
X110213333Y-104577142D01*
X110165714Y-104624761D01*
X110070476Y-104672380D01*
X109689523Y-104672380D01*
X109689523Y-103672380D01*
X110022857Y-103672380D01*
X110118095Y-103720000D01*
X110165714Y-103767619D01*
X110213333Y-103862857D01*
X110213333Y-103958095D01*
X110165714Y-104053333D01*
X110118095Y-104100952D01*
X110022857Y-104148571D01*
X109689523Y-104148571D01*
X110641904Y-104386666D02*
X111118095Y-104386666D01*
X110546666Y-104672380D02*
X110880000Y-103672380D01*
X111213333Y-104672380D01*
X111403809Y-103672380D02*
X111975238Y-103672380D01*
X111689523Y-104672380D02*
X111689523Y-103672380D01*
X112308571Y-104291428D02*
X113070476Y-104291428D01*
X112689523Y-104672380D02*
X112689523Y-103910476D01*
X110022857Y-112784571D02*
X110165714Y-112832190D01*
X110213333Y-112879809D01*
X110260952Y-112975047D01*
X110260952Y-113117904D01*
X110213333Y-113213142D01*
X110165714Y-113260761D01*
X110070476Y-113308380D01*
X109689523Y-113308380D01*
X109689523Y-112308380D01*
X110022857Y-112308380D01*
X110118095Y-112356000D01*
X110165714Y-112403619D01*
X110213333Y-112498857D01*
X110213333Y-112594095D01*
X110165714Y-112689333D01*
X110118095Y-112736952D01*
X110022857Y-112784571D01*
X109689523Y-112784571D01*
X110641904Y-113022666D02*
X111118095Y-113022666D01*
X110546666Y-113308380D02*
X110880000Y-112308380D01*
X111213333Y-113308380D01*
X111403809Y-112308380D02*
X111975238Y-112308380D01*
X111689523Y-113308380D02*
X111689523Y-112308380D01*
X112308571Y-112927428D02*
X113070476Y-112927428D01*
X109760952Y-114340380D02*
X109951428Y-114340380D01*
X110046666Y-114388000D01*
X110141904Y-114483238D01*
X110189523Y-114673714D01*
X110189523Y-115007047D01*
X110141904Y-115197523D01*
X110046666Y-115292761D01*
X109951428Y-115340380D01*
X109760952Y-115340380D01*
X109665714Y-115292761D01*
X109570476Y-115197523D01*
X109522857Y-115007047D01*
X109522857Y-114673714D01*
X109570476Y-114483238D01*
X109665714Y-114388000D01*
X109760952Y-114340380D01*
X110618095Y-114340380D02*
X110618095Y-115149904D01*
X110665714Y-115245142D01*
X110713333Y-115292761D01*
X110808571Y-115340380D01*
X110999047Y-115340380D01*
X111094285Y-115292761D01*
X111141904Y-115245142D01*
X111189523Y-115149904D01*
X111189523Y-114340380D01*
X111522857Y-114340380D02*
X112094285Y-114340380D01*
X111808571Y-115340380D02*
X111808571Y-114340380D01*
X112427619Y-114959428D02*
X113189523Y-114959428D01*
X109760952Y-101640380D02*
X109951428Y-101640380D01*
X110046666Y-101688000D01*
X110141904Y-101783238D01*
X110189523Y-101973714D01*
X110189523Y-102307047D01*
X110141904Y-102497523D01*
X110046666Y-102592761D01*
X109951428Y-102640380D01*
X109760952Y-102640380D01*
X109665714Y-102592761D01*
X109570476Y-102497523D01*
X109522857Y-102307047D01*
X109522857Y-101973714D01*
X109570476Y-101783238D01*
X109665714Y-101688000D01*
X109760952Y-101640380D01*
X110618095Y-101640380D02*
X110618095Y-102449904D01*
X110665714Y-102545142D01*
X110713333Y-102592761D01*
X110808571Y-102640380D01*
X110999047Y-102640380D01*
X111094285Y-102592761D01*
X111141904Y-102545142D01*
X111189523Y-102449904D01*
X111189523Y-101640380D01*
X111522857Y-101640380D02*
X112094285Y-101640380D01*
X111808571Y-102640380D02*
X111808571Y-101640380D01*
X112427619Y-102259428D02*
X113189523Y-102259428D01*
X112808571Y-102640380D02*
X112808571Y-101878476D01*
X133327238Y-101045142D02*
X133279619Y-101188000D01*
X133279619Y-101426095D01*
X133327238Y-101521333D01*
X133374857Y-101568952D01*
X133470095Y-101616571D01*
X133565333Y-101616571D01*
X133660571Y-101568952D01*
X133708190Y-101521333D01*
X133755809Y-101426095D01*
X133803428Y-101235619D01*
X133851047Y-101140380D01*
X133898666Y-101092761D01*
X133993904Y-101045142D01*
X134089142Y-101045142D01*
X134184380Y-101092761D01*
X134232000Y-101140380D01*
X134279619Y-101235619D01*
X134279619Y-101473714D01*
X134232000Y-101616571D01*
X133803428Y-102045142D02*
X133803428Y-102378476D01*
X133279619Y-102521333D02*
X133279619Y-102045142D01*
X134279619Y-102045142D01*
X134279619Y-102521333D01*
X133279619Y-103426095D02*
X133279619Y-102949904D01*
X134279619Y-102949904D01*
X130739619Y-101497523D02*
X130739619Y-101021333D01*
X131739619Y-101021333D01*
X130739619Y-102402285D02*
X131215809Y-102068952D01*
X130739619Y-101830857D02*
X131739619Y-101830857D01*
X131739619Y-102211809D01*
X131692000Y-102307047D01*
X131644380Y-102354666D01*
X131549142Y-102402285D01*
X131406285Y-102402285D01*
X131311047Y-102354666D01*
X131263428Y-102307047D01*
X131215809Y-102211809D01*
X131215809Y-101830857D01*
X130834857Y-103402285D02*
X130787238Y-103354666D01*
X130739619Y-103211809D01*
X130739619Y-103116571D01*
X130787238Y-102973714D01*
X130882476Y-102878476D01*
X130977714Y-102830857D01*
X131168190Y-102783238D01*
X131311047Y-102783238D01*
X131501523Y-102830857D01*
X131596761Y-102878476D01*
X131692000Y-102973714D01*
X131739619Y-103116571D01*
X131739619Y-103211809D01*
X131692000Y-103354666D01*
X131644380Y-103402285D01*
X128199619Y-101005523D02*
X129199619Y-101005523D01*
X129199619Y-101243619D01*
X129152000Y-101386476D01*
X129056761Y-101481714D01*
X128961523Y-101529333D01*
X128771047Y-101576952D01*
X128628190Y-101576952D01*
X128437714Y-101529333D01*
X128342476Y-101481714D01*
X128247238Y-101386476D01*
X128199619Y-101243619D01*
X128199619Y-101005523D01*
X129199619Y-102196000D02*
X129199619Y-102386476D01*
X129152000Y-102481714D01*
X129056761Y-102576952D01*
X128866285Y-102624571D01*
X128532952Y-102624571D01*
X128342476Y-102576952D01*
X128247238Y-102481714D01*
X128199619Y-102386476D01*
X128199619Y-102196000D01*
X128247238Y-102100761D01*
X128342476Y-102005523D01*
X128532952Y-101957904D01*
X128866285Y-101957904D01*
X129056761Y-102005523D01*
X129152000Y-102100761D01*
X129199619Y-102196000D01*
X129199619Y-103053142D02*
X128390095Y-103053142D01*
X128294857Y-103100761D01*
X128247238Y-103148380D01*
X128199619Y-103243619D01*
X128199619Y-103434095D01*
X128247238Y-103529333D01*
X128294857Y-103576952D01*
X128390095Y-103624571D01*
X129199619Y-103624571D01*
X129199619Y-103957904D02*
X129199619Y-104529333D01*
X128199619Y-104243619D02*
X129199619Y-104243619D01*
X126183428Y-101362666D02*
X126135809Y-101505523D01*
X126088190Y-101553142D01*
X125992952Y-101600761D01*
X125850095Y-101600761D01*
X125754857Y-101553142D01*
X125707238Y-101505523D01*
X125659619Y-101410285D01*
X125659619Y-101029333D01*
X126659619Y-101029333D01*
X126659619Y-101362666D01*
X126612000Y-101457904D01*
X126564380Y-101505523D01*
X126469142Y-101553142D01*
X126373904Y-101553142D01*
X126278666Y-101505523D01*
X126231047Y-101457904D01*
X126183428Y-101362666D01*
X126183428Y-101029333D01*
X125754857Y-102600761D02*
X125707238Y-102553142D01*
X125659619Y-102410285D01*
X125659619Y-102315047D01*
X125707238Y-102172190D01*
X125802476Y-102076952D01*
X125897714Y-102029333D01*
X126088190Y-101981714D01*
X126231047Y-101981714D01*
X126421523Y-102029333D01*
X126516761Y-102076952D01*
X126612000Y-102172190D01*
X126659619Y-102315047D01*
X126659619Y-102410285D01*
X126612000Y-102553142D01*
X126564380Y-102600761D01*
X125659619Y-103505523D02*
X125659619Y-103029333D01*
X126659619Y-103029333D01*
X125659619Y-103838857D02*
X126659619Y-103838857D01*
X125659619Y-104410285D02*
X126231047Y-103981714D01*
X126659619Y-104410285D02*
X126088190Y-103838857D01*
X124072000Y-101426095D02*
X124119619Y-101330857D01*
X124119619Y-101188000D01*
X124072000Y-101045142D01*
X123976761Y-100949904D01*
X123881523Y-100902285D01*
X123691047Y-100854666D01*
X123548190Y-100854666D01*
X123357714Y-100902285D01*
X123262476Y-100949904D01*
X123167238Y-101045142D01*
X123119619Y-101188000D01*
X123119619Y-101283238D01*
X123167238Y-101426095D01*
X123214857Y-101473714D01*
X123548190Y-101473714D01*
X123548190Y-101283238D01*
X123119619Y-101902285D02*
X124119619Y-101902285D01*
X123119619Y-102473714D01*
X124119619Y-102473714D01*
X123119619Y-102949904D02*
X124119619Y-102949904D01*
X124119619Y-103188000D01*
X124072000Y-103330857D01*
X123976761Y-103426095D01*
X123881523Y-103473714D01*
X123691047Y-103521333D01*
X123548190Y-103521333D01*
X123357714Y-103473714D01*
X123262476Y-103426095D01*
X123167238Y-103330857D01*
X123119619Y-103188000D01*
X123119619Y-102949904D01*
X121579619Y-100918095D02*
X121579619Y-101537142D01*
X121198666Y-101203809D01*
X121198666Y-101346666D01*
X121151047Y-101441904D01*
X121103428Y-101489523D01*
X121008190Y-101537142D01*
X120770095Y-101537142D01*
X120674857Y-101489523D01*
X120627238Y-101441904D01*
X120579619Y-101346666D01*
X120579619Y-101060952D01*
X120627238Y-100965714D01*
X120674857Y-100918095D01*
X121579619Y-101822857D02*
X120579619Y-102156190D01*
X121579619Y-102489523D01*
X160092000Y-96468000D02*
X160092000Y-120468000D01*
X157092000Y-123468000D02*
X98092000Y-123468000D01*
X156592000Y-93468000D02*
X157092000Y-93468000D01*
X98592000Y-93468000D02*
X98092000Y-93468000D01*
X95092000Y-120468000D02*
X95092000Y-96468000D01*
X160092000Y-120468000D02*
G75*
G02X157092000Y-123468000I-3000000J0D01*
G01*
X157092000Y-93468000D02*
G75*
G02X160092000Y-96468000I0J-3000000D01*
G01*
X95092000Y-96468000D02*
G75*
G02X98092000Y-93468000I3000000J0D01*
G01*
X98092000Y-123468000D02*
G75*
G02X95092000Y-120468000I0J3000000D01*
G01*
X156592000Y-93468000D02*
X98592000Y-93468000D01*
D12*
X109432000Y-99568000D02*
X106632000Y-99568000D01*
X106632000Y-99568000D02*
X106632000Y-97568000D01*
X106632000Y-97568000D02*
X109432000Y-97568000D01*
X109432000Y-97568000D02*
X109432000Y-99568000D01*
X119905200Y-100470000D02*
X119905200Y-99140000D01*
X121235200Y-100470000D02*
X119905200Y-100470000D01*
X122505200Y-100470000D02*
X122505200Y-97810000D01*
X122505200Y-97810000D02*
X135265200Y-97810000D01*
X122505200Y-100470000D02*
X135265200Y-100470000D01*
X135265200Y-100470000D02*
X135265200Y-97810000D01*
X138821200Y-113137200D02*
X138821200Y-112137200D01*
X139821200Y-113137200D02*
X138821200Y-113137200D01*
X142821200Y-112837200D02*
X139121200Y-112837200D01*
X142821200Y-111957200D02*
X142821200Y-112837200D01*
X142821200Y-109457200D02*
X142821200Y-110017200D01*
X142821200Y-106967200D02*
X142821200Y-107517200D01*
X142821200Y-104137200D02*
X142821200Y-105007200D01*
X139121200Y-104137200D02*
X142821200Y-104137200D01*
X139121200Y-105017200D02*
X139121200Y-104137200D01*
X139121200Y-107517200D02*
X139121200Y-106957200D01*
X139121200Y-109987200D02*
X139121200Y-109457200D01*
X139121200Y-112837200D02*
X139121200Y-111987200D01*
X133603600Y-115700800D02*
X134373600Y-115700800D01*
X141683600Y-115700800D02*
X140913600Y-115700800D01*
X134373600Y-117070800D02*
X140913600Y-117070800D01*
X134373600Y-114330800D02*
X134373600Y-117070800D01*
X140913600Y-114330800D02*
X134373600Y-114330800D01*
X140913600Y-117070800D02*
X140913600Y-114330800D01*
X137482000Y-96914000D02*
X137482000Y-95584000D01*
X138812000Y-96914000D02*
X137482000Y-96914000D01*
X140082000Y-96914000D02*
X140082000Y-94254000D01*
X140082000Y-94254000D02*
X152842000Y-94254000D01*
X140082000Y-96914000D02*
X152842000Y-96914000D01*
X152842000Y-96914000D02*
X152842000Y-94254000D01*
X102430000Y-96914000D02*
X102430000Y-95584000D01*
X103760000Y-96914000D02*
X102430000Y-96914000D01*
X105030000Y-96914000D02*
X105030000Y-94254000D01*
X105030000Y-94254000D02*
X120330000Y-94254000D01*
X105030000Y-96914000D02*
X120330000Y-96914000D01*
X120330000Y-96914000D02*
X120330000Y-94254000D01*
X113606000Y-100858000D02*
X114936000Y-100858000D01*
X113606000Y-102188000D02*
X113606000Y-100858000D01*
X113606000Y-103458000D02*
X116266000Y-103458000D01*
X116266000Y-103458000D02*
X116266000Y-116218000D01*
X113606000Y-103458000D02*
X113606000Y-116218000D01*
X113606000Y-116218000D02*
X116266000Y-116218000D01*
X128338000Y-96914000D02*
X128338000Y-95584000D01*
X129668000Y-96914000D02*
X128338000Y-96914000D01*
X130938000Y-96914000D02*
X130938000Y-94254000D01*
X130938000Y-94254000D02*
X136078000Y-94254000D01*
X130938000Y-96914000D02*
X136078000Y-96914000D01*
X136078000Y-96914000D02*
X136078000Y-94254000D01*
X121734000Y-96914000D02*
X121734000Y-95584000D01*
X123064000Y-96914000D02*
X121734000Y-96914000D01*
X124334000Y-96914000D02*
X124334000Y-94254000D01*
X124334000Y-94254000D02*
X126934000Y-94254000D01*
X124334000Y-96914000D02*
X126934000Y-96914000D01*
X126934000Y-96914000D02*
X126934000Y-94254000D01*
X101042200Y-112246400D02*
X101042200Y-110976400D01*
X102312200Y-112246400D02*
X101042200Y-112246400D01*
X105232200Y-109933471D02*
X105232200Y-109536400D01*
X104472200Y-109933471D02*
X104472200Y-109536400D01*
X105232200Y-100876400D02*
X105232200Y-106876400D01*
X104472200Y-100876400D02*
X105232200Y-100876400D01*
X104472200Y-106876400D02*
X104472200Y-100876400D01*
X103582200Y-109536400D02*
X103582200Y-106876400D01*
X102692200Y-109866400D02*
X102692200Y-109536400D01*
X101932200Y-109866400D02*
X101932200Y-109536400D01*
X102592200Y-106876400D02*
X102592200Y-100876400D01*
X102472200Y-106876400D02*
X102472200Y-100876400D01*
X102352200Y-106876400D02*
X102352200Y-100876400D01*
X102232200Y-106876400D02*
X102232200Y-100876400D01*
X102112200Y-106876400D02*
X102112200Y-100876400D01*
X101992200Y-106876400D02*
X101992200Y-100876400D01*
X102692200Y-100876400D02*
X102692200Y-106876400D01*
X101932200Y-100876400D02*
X102692200Y-100876400D01*
X101932200Y-106876400D02*
X101932200Y-100876400D01*
X100982200Y-106876400D02*
X100982200Y-109536400D01*
X106182200Y-106876400D02*
X100982200Y-106876400D01*
X106182200Y-109536400D02*
X106182200Y-106876400D01*
X100982200Y-109536400D02*
X106182200Y-109536400D01*
X148895800Y-112297200D02*
X148895800Y-111027200D01*
X150165800Y-112297200D02*
X148895800Y-112297200D01*
X153085800Y-109984271D02*
X153085800Y-109587200D01*
X152325800Y-109984271D02*
X152325800Y-109587200D01*
X153085800Y-100927200D02*
X153085800Y-106927200D01*
X152325800Y-100927200D02*
X153085800Y-100927200D01*
X152325800Y-106927200D02*
X152325800Y-100927200D01*
X151435800Y-109587200D02*
X151435800Y-106927200D01*
X150545800Y-109917200D02*
X150545800Y-109587200D01*
X149785800Y-109917200D02*
X149785800Y-109587200D01*
X150445800Y-106927200D02*
X150445800Y-100927200D01*
X150325800Y-106927200D02*
X150325800Y-100927200D01*
X150205800Y-106927200D02*
X150205800Y-100927200D01*
X150085800Y-106927200D02*
X150085800Y-100927200D01*
X149965800Y-106927200D02*
X149965800Y-100927200D01*
X149845800Y-106927200D02*
X149845800Y-100927200D01*
X150545800Y-100927200D02*
X150545800Y-106927200D01*
X149785800Y-100927200D02*
X150545800Y-100927200D01*
X149785800Y-106927200D02*
X149785800Y-100927200D01*
X148835800Y-106927200D02*
X148835800Y-109587200D01*
X154035800Y-106927200D02*
X148835800Y-106927200D01*
X154035800Y-109587200D02*
X154035800Y-106927200D01*
X148835800Y-109587200D02*
X154035800Y-109587200D01*
X126046200Y-116917800D02*
X129136200Y-116917800D01*
X130091200Y-114357800D02*
G75*
G03X130091200Y-114357800I-2500000J0D01*
G01*
X127590738Y-111367800D02*
G75*
G02X129136030Y-116917800I462J-2990000D01*
G01*
X127591662Y-111367800D02*
G75*
G03X126046370Y-116917800I-462J-2990000D01*
G01*
X131255000Y-117158400D02*
X131255000Y-116008400D01*
X123955000Y-117158400D02*
X131255000Y-117158400D01*
X123955000Y-111658400D02*
X131255000Y-111658400D01*
X158016000Y-102348000D02*
X158016000Y-105068000D01*
X158016000Y-111928000D02*
X158016000Y-114648000D01*
X145716000Y-110068000D02*
X145716000Y-106928000D01*
X145716000Y-114648000D02*
X145716000Y-111928000D01*
X156545050Y-108538000D02*
G75*
G03X156545050Y-108538000I-4579050J0D01*
G01*
X145716000Y-105068000D02*
X145716000Y-102348000D01*
X158016000Y-114648000D02*
X145716000Y-114648000D01*
X158016000Y-106928000D02*
X158016000Y-110068000D01*
X145716000Y-102348000D02*
X158016000Y-102348000D01*
X109556000Y-102348000D02*
X109556000Y-105068000D01*
X109556000Y-111928000D02*
X109556000Y-114648000D01*
X97256000Y-110068000D02*
X97256000Y-106928000D01*
X97256000Y-114648000D02*
X97256000Y-111928000D01*
X108085050Y-108538000D02*
G75*
G03X108085050Y-108538000I-4579050J0D01*
G01*
X97256000Y-105068000D02*
X97256000Y-102348000D01*
X109556000Y-114648000D02*
X97256000Y-114648000D01*
X109556000Y-106928000D02*
X109556000Y-110068000D01*
X97256000Y-102348000D02*
X109556000Y-102348000D01*
D10*
X137476933Y-118523180D02*
X137143600Y-118046990D01*
X136905504Y-118523180D02*
X136905504Y-117523180D01*
X137286457Y-117523180D01*
X137381695Y-117570800D01*
X137429314Y-117618419D01*
X137476933Y-117713657D01*
X137476933Y-117856514D01*
X137429314Y-117951752D01*
X137381695Y-117999371D01*
X137286457Y-118046990D01*
X136905504Y-118046990D01*
X138429314Y-118523180D02*
X137857885Y-118523180D01*
X138143600Y-118523180D02*
X138143600Y-117523180D01*
X138048361Y-117666038D01*
X137953123Y-117761276D01*
X137857885Y-117808895D01*
M02*
